<?xml version="1.0" encoding="utf-8"?>
<!-- Generator: Adobe Illustrator 19.0.1, SVG Export Plug-In . SVG Version: 6.00 Build 0)  -->
<!DOCTYPE svg PUBLIC "-//W3C//DTD SVG 1.1//EN" "http://www.w3.org/Graphics/SVG/1.1/DTD/svg11.dtd">
<svg version="1.1" id="Layer_1" xmlns="http://www.w3.org/2000/svg" xmlns:xlink="http://www.w3.org/1999/xlink" x="0px" y="0px"
	 width="80px" height="80px" viewBox="0 0 80 80" enable-background="new 0 0 80 80" xml:space="preserve">
<g>
	<g>
		<g>
			<path fill="#444444" d="M70,16c-4.7,0-7.7-5.3-7.9-5.5c-0.2-0.3-0.2-0.7,0-1C62.3,9.3,65.2,4,70,4c4.7,0,7.7,5.3,7.9,5.5
				c0.2,0.3,0.2,0.7,0,1C77.7,10.7,74.7,16,70,16z M64.2,10c0.8,1.2,3,4,5.8,4s5-2.8,5.8-4c-0.8-1.2-3-4-5.8-4
				C67.1,6,65,8.8,64.2,10z"/>
		</g>
	</g>
	<g>
		<g>
			<circle fill="#444444" cx="70" cy="10" r="2"/>
		</g>
	</g>
</g>
<g>
	<g>
		<g>
			<path fill="#96C03D" d="M70,36c-4.7,0-7.7-5.3-7.9-5.5c-0.2-0.3-0.2-0.7,0-1c0.1-0.2,3.1-5.5,7.9-5.5c4.7,0,7.7,5.3,7.9,5.5
				c0.2,0.3,0.2,0.7,0,1C77.7,30.7,74.7,36,70,36z M64.2,30c0.8,1.2,3,4,5.8,4s5-2.8,5.8-4c-0.8-1.2-3-4-5.8-4
				C67.1,26,65,28.8,64.2,30z"/>
		</g>
	</g>
	<g>
		<g>
			<circle fill="#96C03D" cx="70" cy="30" r="2"/>
		</g>
	</g>
</g>
<g>
	<g>
		<g>
			<path fill="#FFFFFF" d="M70,56c-4.7,0-7.7-5.3-7.9-5.5c-0.2-0.3-0.2-0.7,0-1c0.1-0.2,3.1-5.5,7.9-5.5c4.7,0,7.7,5.3,7.9,5.5
				c0.2,0.3,0.2,0.7,0,1C77.7,50.7,74.7,56,70,56z M64.2,50c0.8,1.2,3,4,5.8,4s5-2.8,5.8-4c-0.8-1.2-3-4-5.8-4
				C67.1,46,65,48.8,64.2,50z"/>
		</g>
	</g>
	<g>
		<g>
			<circle fill="#FFFFFF" cx="70" cy="50" r="2"/>
		</g>
	</g>
</g>
<polygon fill="#FFFFFF" points="2,69.6 3.6,68 7.6,70.4 16.4,64 18,65.6 7.6,76 "/>
<g>
	<g>
		<path fill="#444444" d="M15,14H6c-0.5,0-0.9-0.4-1-0.9L4.1,4H3C2.4,4,2,3.6,2,3s0.4-1,1-1h2c0.5,0,0.9,0.4,1,0.9L6.2,5H16
			c0.3,0,0.6,0.1,0.8,0.3C16.9,5.6,17,5.9,17,6.1l-1,7C15.9,13.6,15.5,14,15,14z M6.9,12h7.2l0.7-5H6.4L6.9,12z"/>
	</g>
	<g>
		<circle fill="#444444" cx="6.5" cy="16.5" r="1.5"/>
	</g>
	<g>
		<circle fill="#444444" cx="15.5" cy="16.5" r="1.5"/>
	</g>
</g>
<path fill="#444444" d="M36.7,6.3l-4-4C32.5,2.1,32.3,2,32,2h-8c-0.6,0-1,0.4-1,1v14c0,0.6,0.4,1,1,1h12c0.6,0,1-0.4,1-1V7
	C37,6.7,36.9,6.5,36.7,6.3z M34.6,7H32V4.4L34.6,7z M25,16V4h5v4c0,0.6,0.4,1,1,1h4v7H25z"/>
<path fill="#444444" d="M57,2H43c-0.6,0-1,0.4-1,1v14c0,0.6,0.4,1,1,1h14c0.6,0,1-0.4,1-1V3C58,2.4,57.6,2,57,2z M52,4v4.1l-1.4-1
	C50.4,7.1,50.2,7,50,7s-0.4,0.1-0.6,0.2l-1.4,1V4H52z M56,16H44V4h2v6c0,0.4,0.2,0.7,0.5,0.9c0.3,0.2,0.7,0.2,1,0L50,9.2l2.4,1.6
	c0.2,0.1,0.4,0.2,0.6,0.2c0.2,0,0.3,0,0.5-0.1c0.3-0.2,0.5-0.5,0.5-0.9V4h2V16z"/>
<g>
	<g>
		<path fill="#FFFFFF" d="M15,54H6c-0.5,0-0.9-0.4-1-0.9L4.1,44H3c-0.6,0-1-0.4-1-1s0.4-1,1-1h2c0.5,0,0.9,0.4,1,0.9L6.2,45H16
			c0.3,0,0.6,0.1,0.8,0.3c0.2,0.2,0.3,0.5,0.2,0.8l-1,7C15.9,53.6,15.5,54,15,54z M6.9,52h7.2l0.7-5H6.4L6.9,52z"/>
	</g>
	<g>
		<circle fill="#FFFFFF" cx="6.5" cy="56.5" r="1.5"/>
	</g>
	<g>
		<circle fill="#FFFFFF" cx="15.5" cy="56.5" r="1.5"/>
	</g>
</g>
<path fill="#FFFFFF" d="M36.7,46.3l-4-4C32.5,42.1,32.3,42,32,42h-8c-0.6,0-1,0.4-1,1v14c0,0.6,0.4,1,1,1h12c0.6,0,1-0.4,1-1V47
	C37,46.7,36.9,46.5,36.7,46.3z M34.6,47H32v-2.6L34.6,47z M25,56V44h5v4c0,0.6,0.4,1,1,1h4v7H25z"/>
<path fill="#FFFFFF" d="M58,43c0-0.6-0.4-1-1-1H43c-0.6,0-1,0.4-1,1v14c0,0.6,0.4,1,1,1h14c0.6,0,1-0.4,1-1V43z M52,44v4.1l-1.4-1
	C50.4,47.1,50.2,47,50,47s-0.4,0.1-0.6,0.2l-1.4,1V44H52z M56,56H44V44h2v6c0,0.4,0.2,0.7,0.5,0.9c0.3,0.2,0.7,0.2,1,0l2.4-1.6
	l2.4,1.6c0.2,0.1,0.4,0.2,0.6,0.2c0.2,0,0.3,0,0.5-0.1c0.3-0.2,0.5-0.5,0.5-0.9v-6h2V56z"/>
<g>
	<g>
		<path fill="#96C03D" d="M15,34H6c-0.5,0-0.9-0.4-1-0.9L4.1,24H3c-0.6,0-1-0.4-1-1s0.4-1,1-1h2c0.5,0,0.9,0.4,1,0.9L6.2,25H16
			c0.3,0,0.6,0.1,0.8,0.3c0.2,0.2,0.3,0.5,0.2,0.8l-1,7C15.9,33.6,15.5,34,15,34z M6.9,32h7.2l0.7-5H6.4L6.9,32z"/>
	</g>
	<g>
		<circle fill="#96C03D" cx="6.5" cy="36.5" r="1.5"/>
	</g>
	<g>
		<circle fill="#96C03D" cx="15.5" cy="36.5" r="1.5"/>
	</g>
</g>
<path fill="#96C03D" d="M36.7,26.3l-4-4C32.5,22.1,32.3,22,32,22h-8c-0.6,0-1,0.4-1,1v14c0,0.6,0.4,1,1,1h12c0.6,0,1-0.4,1-1V27
	C37,26.7,36.9,26.5,36.7,26.3z M34.6,27H32v-2.6L34.6,27z M25,36V24h5v4c0,0.6,0.4,1,1,1h4v7H25z"/>
<path fill="#96C03D" d="M57,22H43c-0.6,0-1,0.4-1,1v14c0,0.6,0.4,1,1,1h14c0.6,0,1-0.4,1-1V23C58,22.4,57.6,22,57,22z M52,24v4.1
	l-1.4-1C50.4,27.1,50.2,27,50,27s-0.4,0.1-0.6,0.2l-1.4,1V24H52z M56,36H44V24h2v6c0,0.4,0.2,0.7,0.5,0.9c0.3,0.2,0.7,0.2,1,0
	l2.4-1.6l2.4,1.6c0.2,0.1,0.4,0.2,0.6,0.2c0.2,0,0.3,0,0.5-0.1c0.3-0.2,0.5-0.5,0.5-0.9v-6h2V36z"/>
</svg>
