<?xml version="1.0" encoding="utf-8"?>
<!-- Generator: Adobe Illustrator 19.0.1, SVG Export Plug-In . SVG Version: 6.00 Build 0)  -->
<!DOCTYPE svg PUBLIC "-//W3C//DTD SVG 1.1//EN" "http://www.w3.org/Graphics/SVG/1.1/DTD/svg11.dtd">
<svg version="1.1" id="Layer_1" xmlns="http://www.w3.org/2000/svg" xmlns:xlink="http://www.w3.org/1999/xlink" x="0px" y="0px"
	 width="80px" height="80px" viewBox="0 0 80 80" enable-background="new 0 0 80 80" xml:space="preserve">
<g>
	<g>
		<g>
			<path fill="#444444" d="M70,16c-4.7,0-7.7-5.3-7.9-5.5c-0.2-0.3-0.2-0.7,0-1C62.3,9.3,65.2,4,70,4c4.7,0,7.7,5.3,7.9,5.5
				c0.2,0.3,0.2,0.7,0,1C77.7,10.7,74.7,16,70,16z M64.2,10c0.8,1.2,3,4,5.8,4s5-2.8,5.8-4c-0.8-1.2-3-4-5.8-4
				C67.1,6,65,8.8,64.2,10z"/>
		</g>
	</g>
	<g>
		<g>
			<circle fill="#444444" cx="70" cy="10" r="2"/>
		</g>
	</g>
</g>
<g>
	<path fill="#444444" d="M16,18h-4c-0.6,0-1-0.4-1-1v-3H9v3c0,0.6-0.4,1-1,1H4c-0.6,0-1-0.4-1-1V8c0-0.3,0.1-0.6,0.4-0.8l6-5
		c0.4-0.3,0.9-0.3,1.3,0l6,5C16.9,7.4,17,7.7,17,8v9C17,17.6,16.6,18,16,18z M13,16h2V8.5l-5-4.2L5,8.5V16h2v-3c0-0.6,0.4-1,1-1h4
		c0.6,0,1,0.4,1,1V16z"/>
</g>
<g>
	<g>
		<circle fill="#444444" cx="48" cy="10" r="2"/>
	</g>
	<g>
		<path fill="#444444" d="M52,16h-4c-3.3,0-6-2.7-6-6s2.7-6,6-6h4c3.3,0,6,2.7,6,6S55.3,16,52,16z M48,6c-2.2,0-4,1.8-4,4s1.8,4,4,4
			h4c2.2,0,4-1.8,4-4s-1.8-4-4-4H48z"/>
	</g>
</g>
<g>
	<path fill="#444444" d="M28,9h-5c-0.6,0-1-0.4-1-1V3c0-0.6,0.4-1,1-1h5c0.6,0,1,0.4,1,1v5C29,8.6,28.6,9,28,9z M24,7h3V4h-3V7z"/>
</g>
<g>
	<path fill="#444444" d="M37,9h-5c-0.6,0-1-0.4-1-1V3c0-0.6,0.4-1,1-1h5c0.6,0,1,0.4,1,1v5C38,8.6,37.6,9,37,9z M33,7h3V4h-3V7z"/>
</g>
<g>
	<path fill="#444444" d="M28,18h-5c-0.6,0-1-0.4-1-1v-5c0-0.6,0.4-1,1-1h5c0.6,0,1,0.4,1,1v5C29,17.6,28.6,18,28,18z M24,16h3v-3h-3
		V16z"/>
</g>
<g>
	<path fill="#444444" d="M37,18h-5c-0.6,0-1-0.4-1-1v-5c0-0.6,0.4-1,1-1h5c0.6,0,1,0.4,1,1v5C38,17.6,37.6,18,37,18z M33,16h3v-3h-3
		V16z"/>
</g>
<g>
	<g>
		<g>
			<g>
				<path fill="#96C03D" d="M70,36c-4.7,0-7.7-5.3-7.9-5.5c-0.2-0.3-0.2-0.7,0-1c0.1-0.2,3.1-5.5,7.9-5.5c4.7,0,7.7,5.3,7.9,5.5
					c0.2,0.3,0.2,0.7,0,1C77.7,30.7,74.7,36,70,36z M64.2,30c0.8,1.2,3,4,5.8,4s5-2.8,5.8-4c-0.8-1.2-3-4-5.8-4
					C67.1,26,65,28.8,64.2,30z"/>
			</g>
		</g>
		<g>
			<g>
				<circle fill="#96C03D" cx="70" cy="30" r="2"/>
			</g>
		</g>
	</g>
	<g>
		<path fill="#96C03D" d="M16,38h-4c-0.6,0-1-0.4-1-1v-3H9v3c0,0.6-0.4,1-1,1H4c-0.6,0-1-0.4-1-1v-9c0-0.3,0.1-0.6,0.4-0.8l6-5
			c0.4-0.3,0.9-0.3,1.3,0l6,5c0.2,0.2,0.4,0.5,0.4,0.8v9C17,37.6,16.6,38,16,38z M13,36h2v-7.5l-5-4.2l-5,4.2V36h2v-3
			c0-0.6,0.4-1,1-1h4c0.6,0,1,0.4,1,1V36z"/>
	</g>
	<g>
		<g>
			<circle fill="#96C03D" cx="48" cy="30" r="2"/>
		</g>
		<g>
			<path fill="#96C03D" d="M52,36h-4c-3.3,0-6-2.7-6-6s2.7-6,6-6h4c3.3,0,6,2.7,6,6S55.3,36,52,36z M48,26c-2.2,0-4,1.8-4,4
				s1.8,4,4,4h4c2.2,0,4-1.8,4-4s-1.8-4-4-4H48z"/>
		</g>
	</g>
	<g>
		<path fill="#96C03D" d="M28,29h-5c-0.6,0-1-0.4-1-1v-5c0-0.6,0.4-1,1-1h5c0.6,0,1,0.4,1,1v5C29,28.6,28.6,29,28,29z M24,27h3v-3
			h-3V27z"/>
	</g>
	<g>
		<path fill="#96C03D" d="M37,29h-5c-0.6,0-1-0.4-1-1v-5c0-0.6,0.4-1,1-1h5c0.6,0,1,0.4,1,1v5C38,28.6,37.6,29,37,29z M33,27h3v-3
			h-3V27z"/>
	</g>
	<g>
		<path fill="#96C03D" d="M28,38h-5c-0.6,0-1-0.4-1-1v-5c0-0.6,0.4-1,1-1h5c0.6,0,1,0.4,1,1v5C29,37.6,28.6,38,28,38z M24,36h3v-3
			h-3V36z"/>
	</g>
	<g>
		<path fill="#96C03D" d="M37,38h-5c-0.6,0-1-0.4-1-1v-5c0-0.6,0.4-1,1-1h5c0.6,0,1,0.4,1,1v5C38,37.6,37.6,38,37,38z M33,36h3v-3
			h-3V36z"/>
	</g>
</g>
<g>
	<g>
		<g>
			<g>
				<path fill="#FFFFFF" d="M70,56c-4.7,0-7.7-5.3-7.9-5.5c-0.2-0.3-0.2-0.7,0-1c0.1-0.2,3.1-5.5,7.9-5.5c4.7,0,7.7,5.3,7.9,5.5
					c0.2,0.3,0.2,0.7,0,1C77.7,50.7,74.7,56,70,56z M64.2,50c0.8,1.2,3,4,5.8,4s5-2.8,5.8-4c-0.8-1.2-3-4-5.8-4
					C67.1,46,65,48.8,64.2,50z"/>
			</g>
		</g>
		<g>
			<g>
				<circle fill="#FFFFFF" cx="70" cy="50" r="2"/>
			</g>
		</g>
	</g>
	<g>
		<path fill="#FFFFFF" d="M16,58h-4c-0.6,0-1-0.4-1-1v-3H9v3c0,0.6-0.4,1-1,1H4c-0.6,0-1-0.4-1-1v-9c0-0.3,0.1-0.6,0.4-0.8l6-5
			c0.4-0.3,0.9-0.3,1.3,0l6,5c0.2,0.2,0.4,0.5,0.4,0.8v9C17,57.6,16.6,58,16,58z M13,56h2v-7.5l-5-4.2l-5,4.2V56h2v-3
			c0-0.6,0.4-1,1-1h4c0.6,0,1,0.4,1,1V56z"/>
	</g>
	<g>
		<g>
			<circle fill="#FFFFFF" cx="48" cy="50" r="2"/>
		</g>
		<g>
			<path fill="#FFFFFF" d="M52,56h-4c-3.3,0-6-2.7-6-6s2.7-6,6-6h4c3.3,0,6,2.7,6,6S55.3,56,52,56z M48,46c-2.2,0-4,1.8-4,4
				s1.8,4,4,4h4c2.2,0,4-1.8,4-4s-1.8-4-4-4H48z"/>
		</g>
	</g>
	<g>
		<path fill="#FFFFFF" d="M28,49h-5c-0.6,0-1-0.4-1-1v-5c0-0.6,0.4-1,1-1h5c0.6,0,1,0.4,1,1v5C29,48.6,28.6,49,28,49z M24,47h3v-3
			h-3V47z"/>
	</g>
	<g>
		<path fill="#FFFFFF" d="M37,49h-5c-0.6,0-1-0.4-1-1v-5c0-0.6,0.4-1,1-1h5c0.6,0,1,0.4,1,1v5C38,48.6,37.6,49,37,49z M33,47h3v-3
			h-3V47z"/>
	</g>
	<g>
		<path fill="#FFFFFF" d="M28,58h-5c-0.6,0-1-0.4-1-1v-5c0-0.6,0.4-1,1-1h5c0.6,0,1,0.4,1,1v5C29,57.6,28.6,58,28,58z M24,56h3v-3
			h-3V56z"/>
	</g>
	<g>
		<path fill="#FFFFFF" d="M37,58h-5c-0.6,0-1-0.4-1-1v-5c0-0.6,0.4-1,1-1h5c0.6,0,1,0.4,1,1v5C38,57.6,37.6,58,37,58z M33,56h3v-3
			h-3V56z"/>
	</g>
</g>
<polygon fill="#FFFFFF" points="2,69.6 3.6,68 7.6,70.4 16.4,64 18,65.6 7.6,76 "/>
</svg>
