<?xml version="1.0" encoding="utf-8"?>
<!-- Generator: Adobe Illustrator 17.1.0, SVG Export Plug-In . SVG Version: 6.00 Build 0)  -->
<!DOCTYPE svg PUBLIC "-//W3C//DTD SVG 1.1//EN" "http://www.w3.org/Graphics/SVG/1.1/DTD/svg11.dtd">
<svg version="1.1" id="Layer_1" xmlns="http://www.w3.org/2000/svg" xmlns:xlink="http://www.w3.org/1999/xlink" x="0px" y="0px"
	 width="128px" height="64px" viewBox="0 0 128 64" enable-background="new 0 0 128 64" xml:space="preserve">
<path fill="#242E30" d="M24,11c-0.6,0.3-1.2,0.4-1.9,0.5c0.7-0.4,1.2-1,1.4-1.8c-0.6,0.4-1.3,0.6-2.1,0.8c-0.6-0.6-1.5-1-2.4-1
	c-1.8,0-3.3,1.5-3.3,3.3c0,0.3,0,0.5,0.1,0.7c-2.7-0.1-5.1-1.4-6.8-3.4c-0.3,0.5-0.4,1-0.4,1.7c0,1.1,0.6,2.1,1.5,2.7
	c-0.5,0-1-0.2-1.5-0.4l0,0c0,1.6,1.1,2.9,2.6,3.2c-0.4,0.3-1,0.3-1.5,0c0.4,1.3,1.6,2.3,3.1,2.3c-1.1,0.9-2.5,1.4-4.1,1.4
	c-0.3,0-0.5,0-0.8,0c1.5,0.9,3.2,1.5,5,1.5c6,0,9.3-5,9.3-9.3c0-0.1,0-0.3,0-0.4C23,12.3,23.6,11.7,24,11z"/>
<path fill="#242E30" d="M78,16v8h3v-8h2l1-3h-3c0,0,0-0.5,0-1.3c0-0.3,0.2-0.7,0.7-0.7c1,0,2.9,0,2.3,0V8c0,0-1.6,0-3.3,0
	C79,8,78,9.3,78,10.8s0,2.3,0,2.3h-2v3h2V16z"/>
<path fill="#242E30" d="M112,24c-4.4,0-8-3.6-8-8s3.6-8,8-8s8,3.6,8,8S116.4,24,112,24z M118.7,17.1c-0.2-0.1-2.1-0.6-4.3-0.3
	c0.9,2.5,1.1,3.7,1.3,4.9C117.4,20.6,118.4,19,118.7,17.1z M114.7,22.3c-0.2-1.2-0.5-2.7-1.5-5.2l0,0c-3.9,1.3-5.2,4-5.4,4.3
	C109.4,22.7,112,23.2,114.7,22.3z M106.9,20.6c1.6-3.1,5.8-4.6,5.9-4.6c-0.2-0.4-0.4-0.8-0.6-1.2c-3.4,1-6.7,1-7,1
	C105.1,17.7,105.8,19.4,106.9,20.6z M105.3,14.6c0.3,0,3.1,0,6.3-0.8c-1.1-2-2.3-3.7-2.5-4C107.2,10.7,105.8,12.5,105.3,14.6z
	 M110.4,9.4c0.2,0.3,1.4,1.9,2.5,4c2.4-0.9,3.5-2.3,3.6-2.5C115.3,9.8,113,8.9,110.4,9.4z M117.3,11.7c-0.1,0.2-1.3,1.7-3.8,2.7
	c0.2,0.3,0.4,0.9,0.6,1.4c2.3-0.3,4,0,4.8,0.2C118.9,14.2,118.2,12.8,117.3,11.7z"/>
<path fill="#242E30" d="M50.8,17.1c-0.6,0-1.1,0.7-1.1,1.6s0.5,1.6,1.1,1.6s1.1-0.7,1.1-1.6C51.9,17.8,51.4,17.1,50.8,17.1z
	 M54.7,13.1c0.1-0.3,0.1-2.1-0.6-3.8c0,0-1.6,0.2-4,1.8c-0.5-0.1-1.3-0.2-2.2-0.2s-1.7,0.1-2.2,0.2c-2.4-1.6-4-1.8-4-1.8
	C41,11,41,12.8,41.1,13.1C40.5,13.9,40,15,40,16.4c0,6.2,5.2,6.3,6.5,6.3c0.3,0,0.9,0,1.5,0s1.2,0,1.5,0c1.3,0,6.5-0.1,6.5-6.3
	C56,15,55.5,13.9,54.7,13.1z M48,22L48,22c-3.3,0-5.9-0.4-5.9-3.6c0-0.8,0.3-1.5,0.9-2.1c1.1-1,2.9-0.5,4.9-0.5l0,0l0,0
	c2.1,0,3.9-0.5,4.9,0.5c0.6,0.6,0.9,1.3,0.9,2.1C53.9,21.6,51.3,22,48,22z M45.2,17.1c-0.6,0-1.1,0.7-1.1,1.6s0.5,1.6,1.1,1.6
	s1.1-0.7,1.1-1.6C46.4,17.8,45.9,17.1,45.2,17.1z"/>
<path fill="#FFFFFF" d="M24,43c-0.6,0.3-1.2,0.4-1.9,0.5c0.7-0.4,1.2-1,1.4-1.8c-0.6,0.4-1.3,0.6-2.1,0.8c-0.6-0.6-1.5-1-2.4-1
	c-1.8,0-3.3,1.5-3.3,3.3c0,0.3,0,0.5,0.1,0.7c-2.7-0.1-5.1-1.4-6.8-3.4c-0.3,0.5-0.4,1-0.4,1.7c0,1.1,0.6,2.1,1.5,2.7
	c-0.5,0-1-0.2-1.5-0.4l0,0c0,1.6,1.1,2.9,2.6,3.2c-0.4,0.3-1,0.3-1.5,0c0.4,1.3,1.6,2.3,3.1,2.3c-1.1,0.9-2.5,1.4-4.1,1.4
	c-0.3,0-0.5,0-0.8,0c1.5,0.9,3.2,1.5,5,1.5c6,0,9.3-5,9.3-9.3c0-0.1,0-0.3,0-0.4C23,44.3,23.6,43.7,24,43z"/>
<path fill="#FFFFFF" d="M78,48v8h3v-8h2l1-3h-3c0,0,0-0.5,0-1.3c0-0.3,0.2-0.7,0.7-0.7c1,0,2.9,0,2.3,0v-3c0,0-1.6,0-3.3,0
	C79,40,78,41.3,78,42.8s0,2.3,0,2.3h-2v3L78,48L78,48z"/>
<path fill="#FFFFFF" d="M112,56c-4.4,0-8-3.6-8-8s3.6-8,8-8s8,3.6,8,8S116.4,56,112,56z M118.7,49.1c-0.2-0.1-2.1-0.6-4.3-0.3
	c0.9,2.5,1.1,3.7,1.3,4.9C117.4,52.6,118.4,51,118.7,49.1z M114.7,54.3c-0.2-1.2-0.5-2.7-1.5-5.2l0,0c-3.9,1.3-5.2,4-5.4,4.3
	C109.4,54.7,112,55.2,114.7,54.3z M106.9,52.6c1.6-3.1,5.8-4.6,5.9-4.6c-0.2-0.4-0.4-0.8-0.6-1.2c-3.4,1-6.7,1-7,1
	C105.1,49.7,105.8,51.4,106.9,52.6z M105.3,46.6c0.3,0,3.1,0,6.3-0.8c-1.1-2-2.3-3.7-2.5-4C107.2,42.7,105.8,44.5,105.3,46.6z
	 M110.4,41.4c0.2,0.3,1.4,1.9,2.5,4c2.4-0.9,3.5-2.3,3.6-2.5C115.3,41.8,113,40.9,110.4,41.4z M117.3,43.7c-0.1,0.2-1.3,1.7-3.8,2.7
	c0.2,0.3,0.4,0.9,0.6,1.4c2.3-0.3,4,0,4.8,0.2C118.9,46.2,118.2,44.8,117.3,43.7z"/>
<path fill="#FFFFFF" d="M50.8,49.1c-0.6,0-1.1,0.7-1.1,1.6c0,0.9,0.5,1.6,1.1,1.6s1.1-0.7,1.1-1.6C51.9,49.8,51.4,49.1,50.8,49.1z
	 M54.7,45.1c0.1-0.3,0.1-2.1-0.6-3.8c0,0-1.6,0.2-4,1.8c-0.5-0.1-1.3-0.2-2.2-0.2s-1.7,0.1-2.2,0.2c-2.4-1.6-4-1.8-4-1.8
	C41,43,41,44.8,41.1,45.1C40.5,45.9,40,47,40,48.4c0,6.2,5.2,6.3,6.5,6.3c0.3,0,0.9,0,1.5,0s1.2,0,1.5,0c1.3,0,6.5-0.1,6.5-6.3
	C56,47,55.5,45.9,54.7,45.1z M48,54L48,54c-3.3,0-5.9-0.4-5.9-3.6c0-0.8,0.3-1.5,0.9-2.1c1.1-1,2.9-0.5,4.9-0.5l0,0l0,0
	c2.1,0,3.9-0.5,4.9,0.5c0.6,0.6,0.9,1.3,0.9,2.1C53.9,53.6,51.3,54,48,54z M45.2,49.1c-0.6,0-1.1,0.7-1.1,1.6c0,0.9,0.5,1.6,1.1,1.6
	s1.1-0.7,1.1-1.6C46.4,49.8,45.9,49.1,45.2,49.1z"/>
</svg>
