<?xml version="1.0" encoding="utf-8"?>
<!-- Generator: Adobe Illustrator 19.1.0, SVG Export Plug-In . SVG Version: 6.00 Build 0)  -->
<!DOCTYPE svg PUBLIC "-//W3C//DTD SVG 1.1//EN" "http://www.w3.org/Graphics/SVG/1.1/DTD/svg11.dtd">
<svg version="1.1" id="Layer_1" xmlns="http://www.w3.org/2000/svg" xmlns:xlink="http://www.w3.org/1999/xlink" x="0px" y="0px"
	 width="4000px" height="3000px" viewBox="0 0 4000 3000" enable-background="new 0 0 4000 3000" xml:space="preserve">
<g>
	<path fill="#FFFFFF" d="M1836.9,1488h-2.9v24h2.1c3.5,0,6.1-1,7.7-3.1s2.5-5.2,2.5-9.4c0-3.9-0.8-6.8-2.3-8.7
		C1842.5,1488.9,1840.1,1488,1836.9,1488z"/>
	<path fill="#FFFFFF" d="M0,0v3000h4000V0H0z M1758.4,1521h-13.6l-14-42h13l5.8,21.5c1.2,4.8,1.9,8.1,2,10c0.1-1.4,0.4-3.1,0.8-5.2
		s0.8-3.5,1.1-4.7l5.9-21.7h12.9L1758.4,1521z M1801,1521h-12v-42h12V1521z M1852.4,1515.4c-3.9,3.9-9.5,5.6-16.6,5.6H1822v-42h14.8
		c6.9,0,12.2,1.6,15.9,5.1c3.7,3.5,5.6,8.4,5.6,15C1858.3,1506.3,1856.4,1511.6,1852.4,1515.4z M1903,1488h-13v7h12v9h-12v8h13v9
		h-25v-42h25V1488z M1957.7,1516.4c-3.5,3.8-8.7,5.6-15.5,5.6c-6.7,0-11.9-1.9-15.5-5.7c-3.6-3.8-5.4-9.3-5.4-16.5
		c0-7.1,1.8-12.6,5.3-16.3c3.6-3.8,8.7-5.6,15.5-5.6c6.8,0,12,1.9,15.5,5.6c3.5,3.7,5.3,9.2,5.3,16.4
		C1963,1507.2,1961.3,1512.7,1957.7,1516.4z M2036,1488h-14v7h13v9h-13v8h14v9h-26v-42h26V1488z M2081,1488h-14v8h13v9h-13v16h-12
		v-42h26V1488z M2125,1488h-14v8h13v9h-13v16h-11v-42h25V1488z M2169,1488h-13v7h12v9h-12v8h13v9h-25v-42h25V1488z M2208.6,1512.6
		c1.9,0,3.5-0.3,5.3-0.8s4.1-1.2,5.1-1.9v9.8c-3,1.6-7.4,2.4-11.9,2.4c-6.5,0-11.3-1.9-14.7-5.6c-3.4-3.8-5.1-9.2-5.1-16.3
		c0-4.4,0.9-8.3,2.5-11.7c1.7-3.4,4.1-5.9,7.2-7.7c3.1-1.8,6.8-2.7,11.1-2.7c4.6,0,9.1,1,13.3,3l-3.5,9.1c-1.6-0.7-3.2-1.4-4.7-1.9
		c-1.6-0.5-3.3-0.8-5.1-0.8c-2.8,0-4.9,1.1-6.4,3.4s-2.3,5.4-2.3,9.3C2199.2,1508.5,2202.3,1512.6,2208.6,1512.6z M2269,1488h-10v33
		h-12v-33h-10v-9h32V1488z"/>
	<path fill="#FFFFFF" d="M1942.3,1487.4c-5.8,0-8.7,4.2-8.7,12.5c0,8.3,2.9,12.4,8.6,12.4c2.9,0,5.1-1,6.5-3c1.4-2,2.1-5.1,2.1-9.4
		c0-4.3-0.7-7.4-2.2-9.5C1947.3,1488.5,1945.1,1487.4,1942.3,1487.4z"/>
</g>
</svg>
