<?xml version="1.0" encoding="utf-8"?>
<!-- Generator: Adobe Illustrator 18.1.0, SVG Export Plug-In . SVG Version: 6.00 Build 0)  -->
<!DOCTYPE svg PUBLIC "-//W3C//DTD SVG 1.1//EN" "http://www.w3.org/Graphics/SVG/1.1/DTD/svg11.dtd">
<svg version="1.1" id="Layer_1" xmlns="http://www.w3.org/2000/svg" xmlns:xlink="http://www.w3.org/1999/xlink" x="0px" y="0px"
	 width="32px" height="32px" viewBox="0 0 32 32" enable-background="new 0 0 32 32" xml:space="preserve">
<path fill="#7D7D82" d="M27,16c-0.3,0-0.7,0-1,0.1c0,0,0-0.1,0-0.1c0-5.5-4.5-10-10-10c-4.5,0-8.3,2.9-9.5,7C2.9,13,0,15.9,0,19.5
	c0,3.4,2.6,6.2,6,6.5v0h21c2.8,0,5-2.2,5-5S29.8,16,27,16z M20.7,18.3L16,23l-4.7-4.7l1.4-1.4l2.3,2.3V12h2v7.2l2.3-2.3L20.7,18.3z"
	/>
</svg>
