<?xml version="1.0" encoding="utf-8"?>
<!-- Generator: Adobe Illustrator 18.1.0, SVG Export Plug-In . SVG Version: 6.00 Build 0)  -->
<!DOCTYPE svg PUBLIC "-//W3C//DTD SVG 1.1//EN" "http://www.w3.org/Graphics/SVG/1.1/DTD/svg11.dtd">
<svg version="1.1" id="Layer_1" xmlns="http://www.w3.org/2000/svg" xmlns:xlink="http://www.w3.org/1999/xlink" x="0px" y="0px"
	 width="58px" height="26px" viewBox="0 0 58 26" enable-background="new 0 0 58 26" xml:space="preserve">
<g>
	<path fill="#FFFFFF" d="M5,18.5C6.4,10.3,7.3,4.6,7.7,1.4V1.2c0.1-0.3,0.2-0.5,0.4-0.7c0.2-0.2,0.4-0.2,0.7-0.2s0.4,0,0.5,0.1
		c0.2,0.2,0.4,0.4,0.4,0.7c0,2.5,0.1,6.3,0.2,11.4C10,17.5,10,21.3,10,23.9c0,0.6-0.2,1.1-0.6,1.5C9.2,25.5,9,25.6,9,25.5
		c-0.4,0.1-0.7,0-0.7-0.3c0-0.1,0-0.3,0-0.5l0-0.5c0-1.6-0.1-2.9-0.1-3.8c0-0.9,0-2.2,0-3.8c0-1.6,0-4.7,0-9.2
		c-0.1,0.7-0.4,1.9-0.7,3.8c-0.4,1.8-0.6,3.2-0.8,4c-0.1,0.8-0.2,1.5-0.3,2.1s-0.2,1.1-0.2,1.5c-0.1,0.4-0.2,0.9-0.3,1.4
		c-0.2,1-0.6,1.5-1,1.5c-0.7,0-1-1-1-3c-0.1-1-0.5-3.1-1-6.1C2.2,9.4,1.8,7.3,1.7,6.2c0,2,0,3.5,0,4.5L1.9,24c0,0.5-0.2,0.9-0.5,1.2
		c-0.5,0-0.9-0.2-1.1-0.5C0.1,24.3,0,23.8,0,23.2l0.1-5.3L0,5.5c0-1.4,0-2.8,0-4.1L1,0.8c0.6,0.1,1.3,1.9,2,5.6
		C3.6,9.4,4,12,4.4,14.5C4.8,17,5,18.3,5,18.5z"/>
	<path fill="#FFFFFF" d="M17.7,23.4c0,1-0.1,1.7-0.4,2c-0.1,0.1-0.4,0.2-0.7,0.2c-0.3,0-0.6-0.2-0.8-0.7c0.2-0.5,0.4-2.3,0.4-5.4
		c0-0.6,0-1.4-0.1-2.5c-0.1-1.1-0.1-1.8-0.1-2.2c-0.4-0.7-1.1-2.4-1.9-5c-0.9-2.6-1.3-4.2-1.3-4.8V4.8l0.7-0.5c0.7,0,1.4,1.7,2.3,5
		c0.4,1.4,0.6,2.2,0.6,2.2c0.1-0.2,0.2-1,0.5-2.4c0.6-3.5,1.3-5.2,2-5.2c0.2,0,0.4,0.1,0.5,0.2c0.2,0.1,0.2,0.3,0.2,0.5
		c0,1.3-0.3,2.8-1,4.6c-0.6,1.8-1,3.3-1,4.7V23.4z"/>
	<path fill="#FFFFFF" d="M23.9,1.5L24.2,13c0,0.4,0,0.7-0.1,1v0.1c0,0.6,0.1,1.5,0.1,2.6c0.2,2.5,0.2,4.4,0.2,5.7v1h2.3
		c0.4,0.2,0.6,0.4,0.6,0.5c0.1,0.1,0.1,0.2,0.1,0.4s-0.1,0.3-0.2,0.5c-0.2,0.2-0.3,0.3-0.5,0.3c-0.2,0-0.4,0-0.6-0.1
		c-0.2,0-0.4,0.1-0.6,0.1l-1,0c-0.2,0.3-0.5,0.4-0.8,0.4s-0.6-0.1-0.8-0.3c-0.2-0.2-0.3-0.4-0.3-0.7l0.2-1.4c0-2.4-0.1-6.1-0.3-10.9
		c-0.2-4.8-0.3-8.5-0.3-10.9c0-0.2,0.1-0.4,0.2-0.5c0.2-0.1,0.4-0.2,0.6-0.2s0.4,0.1,0.6,0.3C23.8,1,23.9,1.2,23.9,1.5z"/>
	<path fill="#FFFFFF" d="M37.3,16.5c0,6.1-1.3,9.2-3.8,9.2c-2.3,0-3.6-2.9-3.9-8.7c0-0.6,0-1.1,0-1.7l0-2v-0.6c0-4.5,0.7-7.3,2-8.4
		C31.9,4.1,32.2,4,32.6,4c0.3,0.1,0.7,0.2,1.1,0.3c0.4,0.1,0.8,0.2,1,0.3c0.4,0.2,0.8,0.6,1.2,1.4c0.4,0.7,0.8,1.7,1,3
		c0.2,1.2,0.3,2.5,0.3,3.7V16.5z M31.3,9l0,1.9l0,3.1c0,0.3,0,0.6,0,0.9c0,0.4,0,0.8,0,1.4s0,1.2,0.1,1.7c0,0.6,0.1,1.2,0.2,1.8
		c0.1,0.6,0.1,1.2,0.2,1.8c0.1,0.5,0.2,1,0.3,1.5c0.3,0.9,0.7,1.4,1.1,1.4c0.6,0,1.1-0.6,1.4-1.7c0.5-1.7,0.7-3.8,0.7-6.3l0-3.3
		c0-2.3-0.1-3.9-0.3-4.7c-0.2-0.8-0.4-1.4-0.6-1.8c-0.4-0.8-0.9-1.2-1.6-1.2c0,0,0,0-0.1,0C31.9,5.3,31.3,6.5,31.3,9z"/>
	<path fill="#FFFFFF" d="M45.2,17l-0.6,0c-0.3,0-0.5,0-0.7-0.1c-0.2-0.1-0.3-0.3-0.3-0.6s0.1-0.5,0.3-0.7c0.2-0.2,0.4-0.2,0.7-0.2v0
		c2.1,0,3.1,0.3,3.1,1l-0.3,2.3l0.2,3.4c0,0.6,0,1.1-0.1,1.6c-1.2,1.1-2.3,1.7-3.3,1.7c-0.5,0-1-0.1-1.4-0.4
		c-0.4-0.3-0.8-0.7-1.2-1.4c-0.4-0.7-0.8-1.9-1.1-3.8c-0.3-1.9-0.5-3.2-0.5-3.9c0-0.7,0-1.3,0-1.8c0-0.5,0.1-1,0.1-1.6
		s0.1-1,0.1-1.2c0-0.2,0-0.4,0.1-0.8c0-0.3,0.1-0.7,0.1-1c0-0.3,0.1-0.7,0.2-1.3c0.1-0.6,0.2-1,0.3-1.3c0.1-0.3,0.3-0.7,0.5-1.1
		c0.2-0.4,0.4-0.7,0.7-1c0.6-0.5,1.4-0.8,2.2-0.8c0.8,0,1.3,0.3,1.3,0.8c0,0.2-0.1,0.5-0.3,0.6c-0.2,0.2-0.4,0.2-0.6,0.2L44,5.5
		c-0.6,0-1.1,0.7-1.4,2.2c-0.3,1.4-0.5,2.7-0.5,3.8c-0.1,1.7-0.1,2.9-0.1,3.5s0,1,0,1.3c0,0.3,0,0.7,0,1.2c0,0.5,0,0.9,0.1,1.3
		c0,0.4,0.1,0.8,0.1,1.2c0.1,0.4,0.1,0.8,0.2,1.2c0.1,0.3,0.2,0.7,0.3,1c0.1,0.3,0.3,0.6,0.4,0.8c0.4,0.5,0.8,0.7,1.3,0.7
		c0.9,0,1.4-1.8,1.4-5.4v-1.2C45.7,17,45.5,17,45.2,17z"/>
	<path fill="#FFFFFF" d="M58,16.5c0,6.1-1.3,9.2-3.8,9.2c-2.3,0-3.6-2.9-3.9-8.7c0-0.6,0-1.1,0-1.7l0-2v-0.6c0-4.5,0.7-7.3,2-8.4
		C52.6,4.1,52.9,4,53.3,4c0.3,0.1,0.7,0.2,1.1,0.3c0.4,0.1,0.8,0.2,1,0.3c0.4,0.2,0.8,0.6,1.2,1.4c0.4,0.7,0.8,1.7,1,3
		c0.2,1.2,0.3,2.5,0.3,3.7V16.5z M52,9l0,1.9l0,3.1c0,0.3,0,0.6,0,0.9c0,0.4,0,0.8,0,1.4s0,1.2,0.1,1.7c0,0.6,0.1,1.2,0.2,1.8
		c0.1,0.6,0.1,1.2,0.2,1.8c0.1,0.5,0.2,1,0.3,1.5c0.3,0.9,0.7,1.4,1.1,1.4c0.6,0,1.1-0.6,1.4-1.7c0.5-1.7,0.7-3.8,0.7-6.3l0-3.3
		c0-2.3-0.1-3.9-0.3-4.7c-0.2-0.8-0.4-1.4-0.6-1.8c-0.4-0.8-0.9-1.2-1.6-1.2c0,0,0,0-0.1,0C52.6,5.3,52,6.5,52,9z"/>
</g>
</svg>
