<svg xmlns="http://www.w3.org/2000/svg" viewBox="0 0 800 400" enable-background="new 0 0 800 400"><path fill="#0098ce" d="m0 0h800v400h-800z"/><path fill="#1e7cae" d="m288.76 196c0 65.38-53 118.38-118.38 118.38-65.38 0-118.38-52.999-118.38-118.38 0-65.38 53-118.38 118.38-118.38 65.38 0 118.38 52.999 118.38 118.38"/><g transform="matrix(1.61319 0 0 1.7559 142.74 150.3)"><path fill="#fff" d="m17.13 59.72c13.996-.412 24.919-11.614 22.831-26.23-.995-6.966-6.504-15.13-10.146-21.42-4.336-7.489-8.701-13.726-12.685-19.736h-.001c-3.984 6.01-8.349 12.247-12.684 19.736-3.642 6.292-9.151 14.455-10.146 21.42-2.089 14.621 8.834 25.822 22.831 26.23"/></g><g transform="matrix(.93219 0 0 1.1036 272.84 121.41)"><path fill="#0aa8d8" d="m-137.93 101.28c13.997-.412 24.92-11.613 22.831-26.23-.995-6.965-6.504-15.13-10.146-21.419-4.336-7.49-8.701-13.726-12.685-19.737-3.984 6.01-8.349 12.247-12.684 19.737-3.643 6.292-9.151 14.453-10.147 21.419-2.089 14.621 8.835 25.822 22.831 26.23"/></g><g fill="#fff"><path d="m270.58 248.43c-35.391 0-40.17-26.544-40.17-39.28 0-12.564 4.424-44.771 45.832-44.771 9.379 0 17.519 2.654 17.519 2.654v26.897h-16.28v-12.03c0 0-2.124-1.062-6.02-1.062-9.02 0-21.589 7.432-21.589 27.959 0 13.271 8.14 23.535 23.889 23.535 8.848 0 20.881-4.07 27.605-18.05 0 0 6.193 7.609 7.609 10.09.354.531.354.885.354 1.238-.001 5.133-10.441 22.83-38.754 22.83"/><path d="m338.53 248.07c-27.959 0-38.577-21.234-38.577-41.938 0-18.934 10.794-41.938 38.577-41.938 28.49 0 38.576 21.766 38.576 41.938 0 19.11-10.794 41.938-38.576 41.938m0-15.926c14.333 0 18.58-14.864 18.58-26.01 0-10.971-4.247-25.835-18.58-25.835-14.511 0-18.757 14.864-18.757 25.835-.001 11.149 4.246 26.01 18.757 26.01"/><path d="m475.68 215.87l7.433 10.264c0 0 .531.708.531 1.416 0 4.247-8.849 19.818-27.782 19.818-13.803 0-17.873-12.21-17.873-12.21-.177-.354-.354-.53-.53-.53-.354 0-.531.354-.531.354-4.955 8.671-14.333 13.09-24.95 13.09-27.783 0-30.968-26.01-30.968-35.922 0-22.65 11.856-47.955 48.31-47.955 1.593 0 3.362 0 5.132.177v-30.08h-7.432v-15.926h26.19v99.63c0 3.716 1.238 10.44 8.493 10.44 4.424.001 10.794-2.477 13.979-12.564m-41.23-34.506c0 0-2.478-1.062-8.848-1.062-8.848 0-24.774 6.547-24.774 29.2 0 4.601.177 19.996 14.864 19.996 12.03 0 18.758-10.264 18.758-19.288v-28.844"/><path d="m492.84 167.38v13.449c0 0 0 .708.354.708.177 0 .354-.177.708-.708.354-.531 10.09-15.749 30.79-15.749 1.593 0 4.955.177 6.02.885v31.498h-15.926v-12.387c-6.725 0-11.502 4.247-14.688 8.671-5.663 7.963-6.193 19.11-6.193 22.65v28.844h-18.935v-77.861h17.873"/><path d="m572.48 248.07c-27.959 0-38.576-21.234-38.576-41.938 0-18.934 10.794-41.938 38.576-41.938 28.49 0 38.577 21.766 38.577 41.938.001 19.11-10.794 41.938-38.577 41.938m0-15.926c14.334 0 18.581-14.864 18.581-26.01 0-10.971-4.247-25.835-18.581-25.835-14.51 0-18.757 14.864-18.757 25.835.001 11.149 4.248 26.01 18.757 26.01"/><path d="m626.1 200.3c0-.177 0-.531-.177-.531s-.354 0-.531.177c0 0-5.662 5.309-16.1 7.609-5.309 1.238-12.387 2.478-21.766 2.478-2.301 0-4.778 0-7.433-.178v-15.218c2.301.177 4.602.177 6.725.177 12.387 0 20.527-1.77 26.366-4.601 12.03-6.02 13.1-22.828 13.1-22.828h26.01c16.634 0 43.531 4.07 43.531 38.22 0 7.433-.53 41.06-37.515 41.06-7.255 0-13.271-2.478-13.271-2.478v49.901h-18.935v-93.78m49.725 6.02c0-16.1-8.14-23.18-25.658-23.18-1.77 0-3.539.177-5.132.177v42.646c0 0 3.893 4.777 12.387 4.777 14.864.001 18.403-13.624 18.403-24.419"/><path d="m720.24 188.62c-.354-.177-1.062-.531-1.416-.531 0 0-.354 0-.708.531 0 0-13.448 21.06-46.01 21.06-4.07 0-4.247-.177-7.078-.354v-15.04h7.785c37.869 0 44.24-39.28 44.24-39.28h17.16c0 0-1.238 7.963-5.663 16.811 0 0 20.704 12.21 20.704 36.984 0 7.078-3.539 38.576-37.515 38.576-9.02 0-12.918-2.123-12.918-2.123v-15.572c0 0 4.247 2.124 11.148 2.124 7.786 0 20.35-4.602 20.35-22.474.001-14.333-7.43-19.465-10.08-20.704"/></g></svg>