<svg xmlns="http://www.w3.org/2000/svg" viewBox="0 0 1100 1100" enable-background="new 0 0 1100 1100"><path fill="#237dac" d="m1096.09 550c0 300.49-243.6 544.09-544.09 544.09s-544.09-243.6-544.09-544.09 243.6-544.09 544.09-544.09 544.09 243.6 544.09 544.09"/><g transform="matrix(1.61319 0 0 1.7559 142.74 150.3)"><path fill="#fff" d="m253.69 382.5c64.33-1.896 114.53-53.38 104.94-120.58-4.573-32.01-29.893-69.53-46.633-98.45-19.927-34.422-39.99-63.09-58.3-90.71h-.001c-18.313 27.628-38.38 56.29-58.3 90.71-16.741 28.919-42.06 66.43-46.633 98.45-9.6 67.2 40.605 118.69 104.94 120.58"/></g><g transform="matrix(.93219 0 0 1.1036 272.84 121.41)"><path fill="#5ca9d6" d="m170.74 543.23c64.33-1.896 114.54-53.38 104.94-120.58-4.573-32.01-29.893-69.53-46.633-98.45-19.926-34.422-39.99-63.09-58.3-90.71h-.001c-18.312 27.628-38.38 56.29-58.3 90.71-16.741 28.919-42.06 66.43-46.633 98.45-9.601 67.2 40.604 118.68 104.93 120.58"/></g></svg>