<svg xmlns="http://www.w3.org/2000/svg" viewBox="0 0 800 400" enable-background="new 0 0 800 400"><path fill="#0098ce" d="m0 0h800v400h-800z"/><g fill="#fff"><path d="m274.18 242.68c-33.28 0-37.769-24.958-37.769-36.937 0-11.814 4.16-42.1 43.09-42.1 8.818 0 16.472 2.496 16.472 2.496v25.29h-15.307v-11.313c0 0-1.997-.999-5.657-.999-8.486 0-20.299 6.988-20.299 26.288 0 12.479 7.654 22.13 22.461 22.13 8.319 0 19.633-3.827 25.956-16.971 0 0 5.823 7.154 7.155 9.483.333.499.333.832.333 1.165 0 4.825-9.817 21.465-36.438 21.465"/><path d="m338.07 242.35c-26.289 0-36.27-19.966-36.27-39.433 0-17.802 10.149-39.432 36.27-39.432 26.788 0 36.27 20.465 36.27 39.432 0 17.97-10.15 39.433-36.27 39.433m0-14.974c13.477 0 17.47-13.977 17.47-24.459 0-10.315-3.993-24.291-17.47-24.291-13.644 0-17.636 13.976-17.636 24.291 0 10.482 3.992 24.459 17.636 24.459"/><path d="m467.02 212.07l6.988 9.65c0 0 .5.665.5 1.331 0 3.994-8.32 18.635-26.12 18.635-12.979 0-16.806-11.48-16.806-11.48-.166-.333-.332-.499-.498-.499-.333 0-.5.332-.5.332-4.658 8.153-13.477 12.312-23.459 12.312-26.12 0-29.12-24.458-29.12-33.774 0-21.298 11.147-45.09 45.42-45.09 1.498 0 3.161 0 4.825.167v-28.28h-6.987v-14.974h24.624v93.67c0 3.494 1.165 9.816 7.986 9.816 4.16 0 10.149-2.33 13.144-11.814m-38.767-32.443c0 0-2.329-.999-8.319-.999-8.318 0-23.293 6.156-23.293 27.453 0 4.325.166 18.801 13.976 18.801 11.314 0 17.637-9.65 17.637-18.13v-27.12"/><path d="m483.16 166.48v12.645c0 0 0 .666.332.666.166 0 .333-.166.666-.666.332-.499 9.483-14.808 28.95-14.808 1.497 0 4.659.166 5.657.832v29.616h-14.975v-11.646c-6.322 0-10.814 3.993-13.81 8.153-5.325 7.487-5.823 17.969-5.823 21.296v27.12h-17.804v-73.21h16.807"/><path d="m558.04 242.35c-26.288 0-36.27-19.966-36.27-39.433 0-17.802 10.149-39.432 36.27-39.432 26.788 0 36.27 20.465 36.27 39.432.001 17.97-10.149 39.433-36.27 39.433m0-14.974c13.478 0 17.471-13.977 17.471-24.459 0-10.315-3.993-24.291-17.471-24.291-13.643 0-17.636 13.976-17.636 24.291 0 10.482 3.993 24.459 17.636 24.459"/><path d="m608.45 197.43c0-.167 0-.5-.166-.5s-.332 0-.5.167c0 0-5.323 4.991-15.14 7.155-4.991 1.164-11.646 2.329-20.465 2.329-2.164 0-4.493 0-6.989-.167v-14.309c2.164.167 4.327.167 6.323.167 11.646 0 19.301-1.664 24.791-4.326 11.313-5.657 12.312-21.463 12.312-21.463h24.459c15.64 0 40.93 3.827 40.93 35.938 0 6.988-.499 38.602-35.27 38.602-6.821 0-12.479-2.33-12.479-2.33v46.92h-17.803v-88.18m46.754 5.656c0-15.14-7.653-21.795-24.12-21.795-1.664 0-3.328.166-4.826.166v40.1c0 0 3.66 4.492 11.647 4.492 13.976 0 17.304-12.811 17.304-22.961"/><path d="m696.97 186.44c-.334-.167-.998-.499-1.332-.499 0 0-.332 0-.665.499 0 0-12.645 19.799-43.26 19.799-3.827 0-3.993-.166-6.655-.332v-14.14h7.32c35.605 0 41.596-36.937 41.596-36.937h16.14c0 0-1.164 7.487-5.324 15.806 0 0 19.467 11.48 19.467 34.773 0 6.655-3.327 36.27-35.27 36.27-8.484 0-12.146-1.997-12.146-1.997v-14.642c0 0 3.993 1.998 10.482 1.998 7.32 0 19.13-4.327 19.13-21.13-.001-13.476-6.989-18.301-9.484-19.466"/><path d="m203.14 202.7c-2.168-16.525-14.176-35.891-22.12-50.819-9.449-17.77-18.965-32.565-27.649-46.827h-.001c-8.676 14.247-18.18 29.03-27.62 46.771 2.12 3.895 4.266 7.982 6.405 12.358.779 1.593 1.628 3.271 2.503 5 .342-.621.68-1.237 1.014-1.845 1.508-2.743 2.932-5.333 4.29-7.886 4.468-8.402 8.961-16.13 13.407-23.516 4.446 7.383 8.939 15.11 13.408 23.516 1.357 2.554 2.783 5.146 4.291 7.891 6.53 11.876 14.656 26.657 16.07 37.454 1.596 12.158-1.402 23.418-8.442 31.707-6.358 7.484-15.336 11.838-25.33 12.293-9.993-.455-18.972-4.809-25.329-12.293-.877-1.031-1.691-2.111-2.44-3.23-2.95 1.172-6.119 1.854-9.423 1.969-3.03-.104-5.946-.697-8.687-1.699 7.867 18.5 25.357 30.74 45.878 31.398 30.512-.979 54.32-27.553 49.769-62.25"/><path d="m115.98 166.85c1.15 2 2.3 4.056 3.444 6.176.887 1.644 1.807 3.292 2.783 5.04 3.706 6.643 8.782 15.739 9.533 21.37.777 5.83-.604 11.176-3.888 15.05-2.946 3.475-7.145 5.521-11.871 5.799-4.726-.277-8.926-2.324-11.872-5.799-3.283-3.871-4.664-9.215-3.886-15.05.75-5.631 5.828-14.731 9.536-21.376.973-1.743 1.892-3.389 2.778-5.03 1.144-2.121 2.292-4.174 3.443-6.176m.001-30.918c-5.542 8.964-11.612 18.264-17.64 29.432-5.065 9.383-12.726 21.552-14.11 31.94-2.905 21.803 12.285 38.506 31.749 39.12 19.463-.615 34.652-17.318 31.749-39.12-1.385-10.389-9.05-22.558-14.11-31.94-6.03-11.168-12.1-20.468-17.639-29.432z"/></g></svg>