<?xml version="1.0" encoding="utf-8"?>
<!-- Generator: Adobe Illustrator 19.1.0, SVG Export Plug-In . SVG Version: 6.00 Build 0)  -->
<!DOCTYPE svg PUBLIC "-//W3C//DTD SVG 1.1//EN" "http://www.w3.org/Graphics/SVG/1.1/DTD/svg11.dtd">
<svg version="1.1" id="icon-keyboard" xmlns="http://www.w3.org/2000/svg" xmlns:xlink="http://www.w3.org/1999/xlink" x="0px" y="0px"
	 width="186px" height="60px" viewBox="0 0 186 60" enable-background="new 0 0 186 60" xml:space="preserve">
<path fill="none" stroke="#FFFFFF" stroke-width="2" stroke-miterlimit="10" d="M119,59H67c-1.10457,0-2-0.89543-2-2V36
	c0-1.10457,0.89543-2,2-2h52c1.10457,0,2,0.89543,2,2v21C121,58.10457,120.10457,59,119,59z"/>
<path fill="none" stroke="#FFFFFF" stroke-width="2" stroke-miterlimit="10" d="M119,26H67c-1.10457,0-2-0.89543-2-2V3
	c0-1.10457,0.89543-2,2-2h52c1.10457,0,2,0.89543,2,2v21C121,25.10457,120.10457,26,119,26z"/>
<path fill="none" stroke="#FFFFFF" stroke-width="2" stroke-miterlimit="10" d="M55,59H3c-1.10457,0-2-0.89543-2-2V36
	c0-1.10457,0.89543-2,2-2h52c1.10457,0,2,0.89543,2,2v21C57,58.10457,56.10457,59,55,59z"/>
<path fill="none" stroke="#FFFFFF" stroke-width="2" stroke-miterlimit="10" d="M183,59h-52c-1.10457,0-2-0.89543-2-2V36
	c0-1.10457,0.89543-2,2-2h52c1.10457,0,2,0.89543,2,2v21C185,58.10457,184.10457,59,183,59z"/>
<path fill="#FFFFFF" d="M92.54309,49.97196l-3.23061-7.26889C89.16552,42.37243,89.40755,42,89.76938,42h6.46124
	c0.36182,0,0.60386,0.37243,0.4569,0.70307l-3.23061,7.26889C93.28094,50.36787,92.71906,50.36787,92.54309,49.97196z"/>
<path fill="#FFFFFF" d="M92.54309,10.02804l-3.23061,7.26889C89.16552,17.62757,89.40755,18,89.76938,18h6.46124
	c0.36182,0,0.60386-0.37243,0.4569-0.70307l-3.23061-7.26889C93.28094,9.63213,92.71906,9.63213,92.54309,10.02804z"/>
<path fill="#FFFFFF" d="M25.02804,46.04309l7.26889-3.23062C32.62757,42.66552,33,42.90755,33,43.26938v6.46124
	c0,0.36183-0.37243,0.60386-0.70307,0.45691l-7.26889-3.23062C24.63213,46.78095,24.63213,46.21905,25.02804,46.04309z"/>
<path fill="#FFFFFF" d="M160.97197,46.04309l-7.26891-3.23062C153.37242,42.66552,153,42.90755,153,43.26938v6.46124
	c0,0.36183,0.37242,0.60386,0.70306,0.45691l7.26891-3.23062C161.36787,46.78095,161.36787,46.21905,160.97197,46.04309z"/>
</svg>
