<?xml version="1.0" encoding="UTF-8" standalone="no"?>
<!-- Created with Inkscape (http://www.inkscape.org/) -->

<svg
   xmlns:dc="http://purl.org/dc/elements/1.1/"
   xmlns:cc="http://creativecommons.org/ns#"
   xmlns:rdf="http://www.w3.org/1999/02/22-rdf-syntax-ns#"
   xmlns:svg="http://www.w3.org/2000/svg"
   xmlns="http://www.w3.org/2000/svg"
   xmlns:sodipodi="http://sodipodi.sourceforge.net/DTD/sodipodi-0.dtd"
   xmlns:inkscape="http://www.inkscape.org/namespaces/inkscape"
   width="213.11777"
   height="172.51614"
   id="svg69498"
   sodipodi:version="0.32"
   inkscape:version="0.48.2 r9819"
   sodipodi:docname="tshirt.svg"
   inkscape:output_extension="org.inkscape.output.svg.inkscape"
   inkscape:export-xdpi="72"
   inkscape:export-ydpi="72"
   version="1.0"
   sodipodi:modified="true">
  <defs
     id="defs69500">
    <linearGradient
       id="linearGradient52013">
      <stop
         style="stop-color:#9bb0b8;stop-opacity:0.49803922;"
         offset="0"
         id="stop52019" />
      <stop
         id="stop52021"
         offset="0.5"
         style="stop-color:#ffffff;stop-opacity:1;" />
      <stop
         id="stop52017"
         offset="1"
         style="stop-color:#ffffff;stop-opacity:0;" />
    </linearGradient>
  </defs>
  <sodipodi:namedview
     id="base"
     pagecolor="#ffffff"
     bordercolor="#666666"
     borderopacity="1.0"
     gridtolerance="10000"
     guidetolerance="10"
     objecttolerance="10"
     inkscape:pageopacity="0.0"
     inkscape:pageshadow="2"
     inkscape:zoom="3.4206439"
     inkscape:cx="106.55888"
     inkscape:cy="86.258072"
     inkscape:document-units="px"
     inkscape:current-layer="layer1"
     inkscape:window-width="1244"
     inkscape:window-height="816"
     inkscape:window-x="-4"
     inkscape:window-y="59"
     showguides="true"
     inkscape:guide-bbox="true"
     showgrid="false"
     inkscape:window-maximized="0" />
  <metadata
     id="metadata69503">
    <rdf:RDF>
      <cc:Work
         rdf:about="">
        <dc:format>image/svg+xml</dc:format>
        <dc:type
           rdf:resource="http://purl.org/dc/dcmitype/StillImage" />
        <dc:title />
      </cc:Work>
    </rdf:RDF>
  </metadata>
  <g
     inkscape:label="Layer 1"
     inkscape:groupmode="layer"
     id="layer1"
     transform="translate(-235.03708,-20.292285)">
    <path
       style="fill:#fcffff;fill-opacity:1;stroke:#47a3da;stroke-width:11.78800011000000048;stroke-linecap:round;stroke-linejoin:round;stroke-miterlimit:0.10000000000000001;stroke-opacity:1;stroke-dasharray:none"
       d="m 295.6001,28.428012 c -0.77934,0.02102 -1.56628,0.23369 -2.29147,0.651698 l -23.22402,13.387067 -23.22403,13.387067 c -2.32057,1.337611 -3.10767,4.274881 -1.76789,6.591702 l 15.82267,27.364746 c 1.33978,2.316822 4.28862,3.102639 6.6092,1.765028 l 24.27456,-13.991248 0,102.256268 c 0,2.67524 2.16174,4.83347 4.84131,4.83347 l 89.67308,0 c 2.67957,0 4.83451,-2.15823 4.83451,-4.83347 l 0,-102.398831 24.52615,14.133811 c 2.32058,1.337611 5.26262,0.551794 6.6024,-1.765028 l 15.82267,-27.364746 c 1.33977,-2.316821 0.55268,-5.254091 -1.76789,-6.591702 L 389.8901,29.07971 c -0.94274,-0.543407 -1.99212,-0.736019 -2.99183,-0.617761 -0.19205,-0.02296 -0.38632,-0.03394 -0.58476,-0.03394 l -25.68888,0 c -0.38028,3.042697 -8.76444,14.744306 -19.03206,14.744306 -10.26763,0 -18.64499,-11.701609 -19.02528,-14.744306 l -25.92686,0 c -0.15591,0 -0.3103,0.01289 -0.46237,0.02715 -0.19299,-0.01815 -0.38303,-0.03241 -0.57796,-0.02715 z"
       id="path69759"
       inkscape:connector-curvature="0"
       sodipodi:nodetypes="csccccccsssscccccccscscscc" />
  </g>
</svg>
