<?xml version="1.0" encoding="utf-8"?>
<!-- Generator: Adobe Illustrator 19.1.0, SVG Export Plug-In . SVG Version: 6.00 Build 0)  -->
<!DOCTYPE svg PUBLIC "-//W3C//DTD SVG 1.1//EN" "http://www.w3.org/Graphics/SVG/1.1/DTD/svg11.dtd">
<svg version="1.1" id="Layer_1" xmlns="http://www.w3.org/2000/svg" xmlns:xlink="http://www.w3.org/1999/xlink" x="0px" y="0px"
	 width="96px" height="48px" viewBox="0 0 96 48" enable-background="new 0 0 96 48" xml:space="preserve">
<g transform="translate(0.5, 0.5)">
	<g>
		<path fill="#FFFFFF" d="M12.5,46.5c-0.3,0-0.5-0.1-0.7-0.3c-0.4-0.4-0.4-1,0-1.4l21.3-21.3L11.8,2.2c-0.4-0.4-0.4-1,0-1.4
			s1-0.4,1.4,0l22,22c0.4,0.4,0.4,1,0,1.4l-22,22C13,46.4,12.8,46.5,12.5,46.5z"/>
	</g>
</g>
<g transform="translate(0.5, 0.5)">
	<g>
		<path fill="#FFFFFF" d="M82.5,46.5c-0.3,0-0.5-0.1-0.7-0.3l-22-22c-0.4-0.4-0.4-1,0-1.4l22-22c0.4-0.4,1-0.4,1.4,0s0.4,1,0,1.4
			L61.9,23.5l21.3,21.3c0.4,0.4,0.4,1,0,1.4C83,46.4,82.8,46.5,82.5,46.5z"/>
	</g>
</g>
</svg>
