<?xml version="1.0" encoding="utf-8"?>
<!-- Generator: Adobe Illustrator 16.0.0, SVG Export Plug-In . SVG Version: 6.00 Build 0)  -->
<!DOCTYPE svg PUBLIC "-//W3C//DTD SVG 1.1//EN" "http://www.w3.org/Graphics/SVG/1.1/DTD/svg11.dtd">
<svg version="1.1" id="Layer_1" xmlns="http://www.w3.org/2000/svg" xmlns:xlink="http://www.w3.org/1999/xlink" x="0px" y="0px"
	 width="310px" height="177px" viewBox="0 0 310 177" enable-background="new 0 0 310 177" xml:space="preserve">
<path fill="#FFFFFF" d="M159.875,174.481L306.945,27.41c2.93-2.929,2.93-7.678,0-10.606L292.803,2.661
	c-1.406-1.407-3.314-2.197-5.303-2.197c-1.989,0-3.896,0.79-5.303,2.197L154.572,130.287L26.946,2.661
	c-1.406-1.407-3.314-2.197-5.303-2.197c-1.989,0-3.897,0.79-5.303,2.197L2.197,16.804C0.733,18.269,0,20.188,0,22.107
	s0.732,3.839,2.197,5.303l147.071,147.071C152.197,177.411,156.945,177.411,159.875,174.481L159.875,174.481z"/>
</svg>
