<?xml version="1.0" encoding="utf-8"?>
<!-- Generator: Adobe Illustrator 18.0.0, SVG Export Plug-In . SVG Version: 6.00 Build 0)  -->
<!DOCTYPE svg PUBLIC "-//W3C//DTD SVG 1.1//EN" "http://www.w3.org/Graphics/SVG/1.1/DTD/svg11.dtd">
<svg version="1.1" id="Layer_1" xmlns="http://www.w3.org/2000/svg" xmlns:xlink="http://www.w3.org/1999/xlink" x="0px" y="0px"
	 width="56px" height="50px" viewBox="0 0 56 50" enable-background="new 0 0 56 50" xml:space="preserve">
<g>
	<circle fill="#3E243C" cx="28" cy="25" r="2"/>
	<path fill="#3E243C" d="M28,2C15.3,2,5,12.3,5,25s10.3,23,23,23s23-10.3,23-23S40.7,2,28,2z M42.5,25.6l-1.9,1
		c-0.1,0.5-0.1,1-0.3,1.4l1.4,1.6c0.4,0.5,0.5,1.2,0.2,1.7L40.3,34c-0.3,0.5-0.8,0.7-1.3,0.7h-0.3l-2.1-0.4
		c-0.4,0.3-0.7,0.7-1.1,0.9v2.2c0,0.6-0.4,1.2-1,1.4L31.7,40c-0.2,0.1-0.3,0.1-0.5,0.1c-0.4,0-0.9-0.2-1.1-0.5l-1.4-1.7
		c-0.5,0-1,0-1.5,0l-1.4,1.7c-0.4,0.5-1.1,0.7-1.6,0.5L21.3,39c-0.6-0.2-1-0.8-1-1.4v-2.2c-0.4-0.3-0.8-0.6-1.1-0.9l-2.4,0.4
		c-0.5,0-1-0.3-1.3-0.7L14,31.4c-0.3-0.5-0.2-1.2,0.2-1.7l1.4-1.6c-0.1-0.5-0.2-1-0.3-1.4l-1.9-1c-0.5-0.3-0.8-0.9-0.7-1.5l0.5-3.1
		c0.1-0.6,0.6-1.1,1.2-1.2l2.1-0.3c0.2-0.4,0.5-0.9,0.7-1.3l-0.8-2c-0.2-0.6-0.1-1.3,0.4-1.7l2.4-2c0.5-0.4,1.2-0.4,1.7-0.1l1.8,1.1
		c0.5-0.2,0.9-0.4,1.4-0.5l0.7-2c0.2-0.6,0.8-1,1.4-1h3.1c0.6,0,1.2,0.4,1.4,1l0.7,2c0.5,0.1,0.9,0.3,1.4,0.5l1.8-1.1
		c0.5-0.3,1.2-0.3,1.7,0.1l2.4,2c0.5,0.4,0.7,1.1,0.4,1.7l-0.8,2c0.3,0.4,0.5,0.8,0.7,1.3l2.1,0.3c0.6,0.1,1.1,0.6,1.2,1.2l0.5,3.1
		C43.4,24.7,43.1,25.3,42.5,25.6z"/>
	<path fill="#3E243C" d="M38,21.2l-0.2-0.5c-0.3-0.7-0.7-1.3-1.1-1.9l-0.3-0.4l1-2.7l-1.8-1.5l-2.4,1.5l-0.5-0.2
		c-0.6-0.3-1.3-0.6-2-0.7l-0.5-0.1L29.3,12h-2.4L26,14.7l-0.5,0.1c-0.7,0.2-1.4,0.4-2,0.7L23,15.7l-2.4-1.5l-1.8,1.5l1,2.7l-0.3,0.4
		c-0.4,0.6-0.8,1.2-1.1,1.9L18,21.2l-2.8,0.4L14.8,24l2.5,1.4v0.5c0.1,0.7,0.2,1.4,0.4,2.1l0.1,0.5L16,30.7l1.2,2l2.8-0.5l0.4,0.4
		c0.5,0.5,1.1,1,1.7,1.4l0.4,0.3l-0.1,2.8l2.2,0.8l1.8-2.2l0.5,0.1c0.7,0.1,1.5,0.1,2.2,0l0.5-0.1l1.8,2.2l2.2-0.8l-0.1-2.8L34,34
		c0.6-0.4,1.1-0.9,1.7-1.4l0.4-0.4l2.8,0.5l1.2-2l-1.9-2.1l0.1-0.5c0.2-0.7,0.3-1.4,0.4-2.1v-0.5l2.5-1.4l-0.4-2.3L38,21.2z M28,29
		c-2.2,0-4-1.8-4-4s1.8-4,4-4s4,1.8,4,4S30.2,29,28,29z"/>
	<path fill="#3E243C" d="M0,0v50h56V0H0z M28,50C14.2,50,3,38.8,3,25S14.2,0,28,0s25,11.2,25,25S41.8,50,28,50z"/>
</g>
</svg>
