<?xml version="1.0" encoding="utf-8"?>
<!-- Generator: Adobe Illustrator 18.0.0, SVG Export Plug-In . SVG Version: 6.00 Build 0)  -->
<!DOCTYPE svg PUBLIC "-//W3C//DTD SVG 1.1//EN" "http://www.w3.org/Graphics/SVG/1.1/DTD/svg11.dtd">
<svg version="1.1" id="Layer_1" xmlns="http://www.w3.org/2000/svg" xmlns:xlink="http://www.w3.org/1999/xlink" x="0px" y="0px"
	 width="56px" height="50px" viewBox="0 0 56 50" enable-background="new 0 0 56 50" xml:space="preserve">
<g>
	<path fill="#3E243C" d="M30,34c-0.6,0-1,0.4-1,1s0.4,1,1,1s1-0.4,1-1S30.6,34,30,34z"/>
	<path fill="#3E243C" d="M20,34c-0.6,0-1,0.4-1,1s0.4,1,1,1s1-0.4,1-1S20.6,34,20,34z"/>
	<path fill="#3E243C" d="M28,2C15.3,2,5,12.3,5,25s10.3,23,23,23s23-10.3,23-23S40.7,2,28,2z M20,38c-1.7,0-3-1.3-3-3s1.3-3,3-3
		s3,1.3,3,3S21.7,38,20,38z M30,38c-1.7,0-3-1.3-3-3s1.3-3,3-3s3,1.3,3,3S31.7,38,30,38z M40,15h-2.3L33,30.3
		c-0.1,0.4-0.5,0.7-1,0.7H18c-0.5,0-0.8-0.3-1-0.7l-3-11c-0.1-0.3,0-0.6,0.2-0.9c0.2-0.2,0.5-0.4,0.8-0.4h16c0.6,0,1,0.4,1,1
		s-0.4,1-1,1H16.3l2.5,9h12.5L36,13.7c0.1-0.4,0.5-0.7,1-0.7h3c0.6,0,1,0.4,1,1S40.6,15,40,15z"/>
	<path fill="#3E243C" d="M0,0v50h56V0H0z M28,50C14.2,50,3,38.8,3,25S14.2,0,28,0s25,11.2,25,25S41.8,50,28,50z"/>
</g>
</svg>
