<?xml version="1.0" encoding="utf-8"?>
<!-- Generator: Adobe Illustrator 18.0.0, SVG Export Plug-In . SVG Version: 6.00 Build 0)  -->
<!DOCTYPE svg PUBLIC "-//W3C//DTD SVG 1.1//EN" "http://www.w3.org/Graphics/SVG/1.1/DTD/svg11.dtd">
<svg version="1.1" xmlns="http://www.w3.org/2000/svg" xmlns:xlink="http://www.w3.org/1999/xlink" x="0px" y="0px" width="420px"
	 height="325px" viewBox="0 0 420 325" style="enable-background:new 0 0 420 325;" xml:space="preserve">
<style type="text/css">
	.st0{fill:#3E253C;}
</style>
<g id="WEB_DESIGN">
</g>
<g id="APP_DESIGN">
</g>
<g id="ECOMMERCE">
	<g>
		<circle class="st0" cx="210" cy="210" r="2"/>
		<circle class="st0" cx="168" cy="225" r="2"/>
		<circle class="st0" cx="252" cy="223" r="2"/>
		<circle class="st0" cx="126" cy="233" r="2"/>
		<path class="st0" d="M81,267h258V163H81V267z M294,182c3.3,0,6,2.7,6,6s-2.7,6-6,6s-6-2.7-6-6S290.7,182,294,182z M286.7,191.5
			l2.6,3.1l-30,25l-2.6-3.1L286.7,191.5z M252,217c3.3,0,6,2.7,6,6s-2.7,6-6,6s-6-2.7-6-6S248.7,217,252,217z M217.7,209.1l27,10
			l-1.4,3.8l-27-10L217.7,209.1z M210,204c3.3,0,6,2.7,6,6s-2.7,6-6,6s-6-2.7-6-6S206.7,204,210,204z M202.4,211.1l1.2,3.8l-28,9
			l-1.2-3.8L202.4,211.1z M168,219c3.3,0,6,2.7,6,6s-2.7,6-6,6s-6-2.7-6-6S164.7,219,168,219z M159.7,225l0.6,4l-26,4l-0.6-4
			L159.7,225z M126,227c3.3,0,6,2.7,6,6s-2.7,6-6,6s-6-2.7-6-6S122.7,227,126,227z"/>
		<circle class="st0" cx="294" cy="188" r="2"/>
		<rect x="226" y="79" class="st0" width="20" height="3"/>
		<rect x="174" y="79" class="st0" width="20" height="3"/>
		<rect x="207" y="96" class="st0" width="6" height="2"/>
		<rect x="274" y="143" class="st0" width="56" height="6"/>
		<polygon class="st0" points="222,76 198,76 198,92 222,92 		"/>
		<path class="st0" d="M222,72c1.9,0,3.4,1.3,3.9,3H246v-5h-72v5h20.1c0.4-1.7,2-3,3.9-3H222z"/>
		<polygon class="st0" points="222,94 222,92 222,92 		"/>
		<path class="st0" d="M81,130h258v-11H81V130z M105,122c1.1,0,2,0.9,2,2s-0.9,2-2,2s-2-0.9-2-2S103.9,122,105,122z M97,122
			c1.1,0,2,0.9,2,2s-0.9,2-2,2s-2-0.9-2-2S95.9,122,97,122z M89,122c1.1,0,2,0.9,2,2s-0.9,2-2,2s-2-0.9-2-2S87.9,122,89,122z"/>
		<path class="st0" d="M347.2,102H72.8c-1.5,0-2.8,1.2-2.8,2.7V267h7V115h266v152h7V104.7C350,103.2,348.7,102,347.2,102z"/>
		<path class="st0" d="M81,159h258v-25H81V159z M270,139h64v14h-64V139z M96,136.5c5.5,0,10,4.5,10,10s-4.5,10-10,10s-10-4.5-10-10
			S90.5,136.5,96,136.5z"/>
		<rect x="182" y="54" class="st0" width="6" height="4"/>
		<path class="st0" d="M212,0v42h-4V0H0v325h208v-40h4v40h208V0H212z M217,57h24v4h-24V57z M230,55v-4h11v4H230z M396,277
			c0,4.4-3.6,8-8,8H208v-4h180c2.2,0,4-1.8,4-4v-6H28v6c0,2.2,1.8,4,4,4h170v4H32c-4.4,0-8-3.6-8-8v-10h42V104.7
			c0-3.6,3.1-6.7,6.8-6.7H203v-2h-5c-2.2,0-4-1.8-4-4v-6h-20c-2.2,0-4-1.8-4-4V46c0-2.2,1.8-4,4-4h38v4h-38v20h72V46h-27v-4h27
			c2.2,0,4,1.8,4,4v36c0,2.2-1.8,4-4,4h-20v6c0,2.2-1.8,4-4,4h-5v2h130.2c3.7,0,6.8,3,6.8,6.7V267h42V277z M192,50v12h-14V50H192z"
			/>
		<path class="st0" d="M96,152.5c3.3,0,6-2.7,6-6s-2.7-6-6-6s-6,2.7-6,6S92.7,152.5,96,152.5z"/>
	</g>
</g>
<g id="WORDPRESS">
</g>
</svg>
