<?xml version="1.0" encoding="utf-8"?>
<!-- Generator: Adobe Illustrator 18.0.0, SVG Export Plug-In . SVG Version: 6.00 Build 0)  -->
<!DOCTYPE svg PUBLIC "-//W3C//DTD SVG 1.1//EN" "http://www.w3.org/Graphics/SVG/1.1/DTD/svg11.dtd">
<svg version="1.1" xmlns="http://www.w3.org/2000/svg" xmlns:xlink="http://www.w3.org/1999/xlink" x="0px" y="0px" width="420px"
	 height="325px" viewBox="0 0 420 325" style="enable-background:new 0 0 420 325;" xml:space="preserve">
<style type="text/css">
	.st0{fill:#3E253C;}
</style>
<g id="WEB_DESIGN">
</g>
<g id="APP_DESIGN">
</g>
<g id="ECOMMERCE">
</g>
<g id="WORDPRESS">
	<g>
		<path class="st0" d="M35,271c0,1.1,0.9,2,2,2h46V94H35V271z"/>
		<path class="st0" d="M385,70H35v20h350V70z M230.9,82h-42.7v-4h42.7V82z"/>
		<path class="st0" d="M214.5,227.4l1.1-0.1l7.3,9l11.4-4.2l-0.2-11.6l0.9-0.6c2.4-1.7,4.8-3.6,6.9-5.8l0.8-0.8l11.4,2.2l6.1-10.5
			l-7.6-8.8l0.3-1c0.8-2.9,1.3-5.8,1.5-8.8l0.1-1.1l10.2-5.6l-2.1-12l-11.5-1.8l-0.4-1c-1.2-2.7-2.7-5.3-4.5-7.8l-0.6-0.9l4.2-10.8
			l-9.3-7.8l-9.9,6l-1-0.5c-2.7-1.3-5.5-2.3-8.4-3.1l-1.1-0.3l-3.8-11h-12.2l-3.8,11l-1.1,0.3c-2.9,0.7-5.7,1.8-8.4,3.1l-1,0.5
			l-9.9-6l-9.3,7.8l4.2,10.8l-0.6,0.9c-1.7,2.4-3.3,5-4.5,7.8l-0.4,1l-11.5,1.8l-2.1,12l10.2,5.6l0.1,1.1c0.2,3,0.7,6,1.5,8.8l0.3,1
			l-7.6,8.8l6.1,10.5l11.4-2.2l0.8,0.8c2.1,2.2,4.4,4.1,6.9,5.8l0.9,0.6l-0.2,11.6l11.4,4.2l7.3-9l1.1,0.1
			C208.5,227.7,211.5,227.7,214.5,227.4z M193,183c0-9.4,7.6-17,17-17s17,7.6,17,17s-7.6,17-17,17S193,192.4,193,183z"/>
		<path class="st0" d="M383,273c1.1,0,2-0.9,2-2V94h-49v179H383z"/>
		<path class="st0" d="M332,273V94H87v179h114v4H37c-3.3,0-6-2.7-6-6V57c0-3.3,2.7-6,6-6h171V0H0v325h208v-52H332z M206.2,231.5
			l-6,7.4c-1,1.3-2.8,1.8-4.3,1.2l-11.6-4.2c-1.6-0.6-2.6-2.1-2.5-3.7l0.2-9.5c-2-1.5-4-3.1-5.8-4.9l-9.4,1.8
			c-1.6,0.3-3.3-0.5-4.1-1.9l-6.2-10.7c-0.8-1.4-0.7-3.2,0.4-4.5l6.3-7.2c-0.6-2.4-1.1-5-1.3-7.5l-8.4-4.6c-1.4-0.8-2.2-2.4-1.9-4.1
			l2.1-12.1c0.3-1.6,1.6-2.9,3.2-3.2l9.4-1.5c1.1-2.3,2.4-4.5,3.8-6.6l-3.4-8.9c-0.6-1.5-0.1-3.3,1.1-4.4l9.4-7.9
			c1.2-1,3.1-1.2,4.5-0.4l8.2,4.9c2.3-1.1,4.7-1.9,7.2-2.6l3.1-9c0.5-1.6,2-2.6,3.7-2.6h12.3c1.7,0,3.1,1.1,3.7,2.6l3.1,9
			c2.5,0.7,4.8,1.5,7.2,2.6l8.2-4.9c1.4-0.8,3.3-0.7,4.5,0.4l9.4,7.9c1.3,1.1,1.7,2.8,1.1,4.4l-3.4,8.9c1.4,2.1,2.7,4.3,3.8,6.6
			l9.4,1.5c1.6,0.3,2.9,1.5,3.2,3.2l2.1,12.1c0.3,1.6-0.5,3.3-1.9,4.1l-8.4,4.6c-0.2,2.5-0.7,5-1.3,7.5l6.3,7.2
			c1.1,1.2,1.3,3,0.4,4.5l-6.2,10.7c-0.7,1.2-2,1.9-3.4,1.9c-0.2,0-0.5,0-0.7-0.1l-9.4-1.8c-1.8,1.8-3.8,3.4-5.8,4.9l0.2,9.6
			c0,1.7-1,3.1-2.5,3.7l-11.6,4.2c-0.4,0.2-0.9,0.2-1.3,0.2c-1.2,0-2.3-0.5-3-1.4l-6-7.4C211.3,231.7,208.7,231.7,206.2,231.5z"/>
		<path class="st0" d="M212,0v55H37c-1.1,0-2,0.9-2,2v9h350v-9c0-1.1-0.9-2-2-2H219v-4h164c3.3,0,6,2.7,6,6v214c0,3.3-2.7,6-6,6H212
			v48h208V0H212z M43,63c-1.1,0-2-0.9-2-2c0-1.1,0.9-2,2-2s2,0.9,2,2C45,62.1,44.1,63,43,63z M51,63c-1.1,0-2-0.9-2-2
			c0-1.1,0.9-2,2-2s2,0.9,2,2C53,62.1,52.1,63,51,63z M59,63c-1.1,0-2-0.9-2-2c0-1.1,0.9-2,2-2s2,0.9,2,2C61,62.1,60.1,63,59,63z"/>
		<path class="st0" d="M223,183c0-7.2-5.8-13-13-13s-13,5.8-13,13s5.8,13,13,13S223,190.2,223,183z"/>
	</g>
</g>
</svg>
