<?xml version="1.0" encoding="utf-8"?>
<!-- Generator: Adobe Illustrator 18.0.0, SVG Export Plug-In . SVG Version: 6.00 Build 0)  -->
<!DOCTYPE svg PUBLIC "-//W3C//DTD SVG 1.1//EN" "http://www.w3.org/Graphics/SVG/1.1/DTD/svg11.dtd">
<svg version="1.1" id="Layer_1" xmlns="http://www.w3.org/2000/svg" xmlns:xlink="http://www.w3.org/1999/xlink" x="0px" y="0px"
	 width="56px" height="50px" viewBox="0 0 56 50" enable-background="new 0 0 56 50" xml:space="preserve">
<g>
	<rect x="20" y="17" fill="#3E243C" width="16" height="13"/>
	<path fill="#3E243C" d="M20,38h16v-6H20V38z M28,33c1.1,0,2,0.9,2,2s-0.9,2-2,2s-2-0.9-2-2S26.9,33,28,33z"/>
	<path fill="#3E243C" d="M28,2C15.3,2,5,12.3,5,25s10.3,23,23,23s23-10.3,23-23S40.7,2,28,2z M38,38c0,1.1-0.9,2-2,2H20
		c-1.1,0-2-0.9-2-2V12c0-1.1,0.9-2,2-2h16c1.1,0,2,0.9,2,2V38z"/>
	<rect x="20" y="12" fill="#3E243C" width="16" height="3"/>
	<path fill="#3E243C" d="M0,0v50h56V0H0z M28,50C14.2,50,3,38.8,3,25S14.2,0,28,0s25,11.2,25,25S41.8,50,28,50z"/>
</g>
</svg>
