<?xml version="1.0" encoding="utf-8"?>
<!-- Generator: Adobe Illustrator 18.1.1, SVG Export Plug-In . SVG Version: 6.00 Build 0)  -->
<!DOCTYPE svg PUBLIC "-//W3C//DTD SVG 1.1//EN" "http://www.w3.org/Graphics/SVG/1.1/DTD/svg11.dtd">
<svg version="1.1" id="Layer_1" xmlns="http://www.w3.org/2000/svg" xmlns:xlink="http://www.w3.org/1999/xlink" x="0px" y="0px"
	 width="24px" height="24px" viewBox="0 0 24 24" enable-background="new 0 0 24 24" xml:space="preserve">
<path fill="none" stroke="#D5DDDF" stroke-width="2" stroke-linecap="square" stroke-miterlimit="10" d="M1,3"/>
<path fill="none" stroke="#D5DDDF" stroke-width="2" stroke-linecap="square" stroke-miterlimit="10" d="M21,12V5H3C1.9,5,1,4.1,1,3
	v17c0,1.7,1.3,3,3,3h17v-7"/>
<path fill="none" stroke="#D5DDDF" stroke-width="2" stroke-linecap="square" stroke-miterlimit="10" d="M16,5V1H3C1.9,1,1,1.9,1,3
	l0,0c0,1.1,0.9,2,2,2"/>
<path fill="none" stroke="#D5DDDF" stroke-width="2" stroke-linecap="square" stroke-miterlimit="10" d="M23,16h-5c-1.1,0-2-0.9-2-2
	l0,0c0-1.1,0.9-2,2-2h5V16z"/>
</svg>
