<?xml version="1.0" encoding="iso-8859-1"?>
<!-- Generator: Adobe Illustrator 19.0.0, SVG Export Plug-In . SVG Version: 6.00 Build 0)  -->
<svg xmlns="http://www.w3.org/2000/svg" xmlns:xlink="http://www.w3.org/1999/xlink" version="1.1" id="Capa_1" x="0px" y="0px" viewBox="0 0 60 60" style="enable-background:new 0 0 60 60;" xml:space="preserve" width="512px" height="512px">
<g>
	<path d="M17,23c0.256,0,0.512-0.098,0.707-0.293l4-4c0.391-0.391,0.391-1.023,0-1.414s-1.023-0.391-1.414,0l-4,4    c-0.391,0.391-0.391,1.023,0,1.414C16.488,22.902,16.744,23,17,23z" fill="#344160"/>
	<path d="M20.29,22.29C20.11,22.479,20,22.74,20,23s0.11,0.52,0.29,0.71C20.48,23.89,20.74,24,21,24s0.52-0.11,0.71-0.29    C21.89,23.52,22,23.26,22,23s-0.11-0.521-0.29-0.71C21.34,21.92,20.66,21.92,20.29,22.29z" fill="#344160"/>
	<path d="M28,22c0.26,0,0.52-0.11,0.71-0.29C28.89,21.52,29,21.26,29,21s-0.11-0.521-0.29-0.71c-0.37-0.37-1.05-0.37-1.42,0    C27.11,20.479,27,20.729,27,21c0,0.27,0.11,0.52,0.29,0.71C27.48,21.89,27.74,22,28,22z" fill="#344160"/>
	<path d="M30,20c0.256,0,0.512-0.098,0.707-0.293l1-1c0.391-0.391,0.391-1.023,0-1.414s-1.023-0.391-1.414,0l-1,1    c-0.391,0.391-0.391,1.023,0,1.414C29.488,19.902,29.744,20,30,20z" fill="#344160"/>
	<path d="M30.293,22.293l-2,2c-0.391,0.391-0.391,1.023,0,1.414C28.488,25.902,28.744,26,29,26s0.512-0.098,0.707-0.293l2-2    c0.391-0.391,0.391-1.023,0-1.414S30.684,21.902,30.293,22.293z" fill="#344160"/>
	<path d="M27,28c0.26,0,0.52-0.11,0.71-0.29C27.89,27.52,28,27.26,28,27c0-0.271-0.11-0.521-0.29-0.71c-0.38-0.37-1.05-0.37-1.42,0    C26.11,26.479,26,26.74,26,27s0.11,0.52,0.29,0.71C26.48,27.89,26.74,28,27,28z" fill="#344160"/>
	<path d="M25.707,28.293c-0.391-0.391-1.023-0.391-1.414,0l-3,3c-0.391,0.391-0.391,1.023,0,1.414C21.488,32.902,21.744,33,22,33    s0.512-0.098,0.707-0.293l3-3C26.098,29.316,26.098,28.684,25.707,28.293z" fill="#344160"/>
	<path d="M20.71,28.29c-0.38-0.37-1.05-0.37-1.42,0C19.11,28.479,19,28.74,19,29s0.11,0.52,0.29,0.71C19.48,29.89,19.74,30,20,30    s0.52-0.11,0.71-0.29C20.89,29.52,21,29.26,21,29C21,28.729,20.89,28.479,20.71,28.29z" fill="#344160"/>
	<path d="M17.293,30.293l-1,1c-0.391,0.391-0.391,1.023,0,1.414C16.488,32.902,16.744,33,17,33s0.512-0.098,0.707-0.293l1-1    c0.391-0.391,0.391-1.023,0-1.414S17.684,29.902,17.293,30.293z" fill="#344160"/>
	<path d="M58,49.5c0-4.741-3.174-8.813-7.606-10.08C52.681,35.923,54,31.849,54,27.5c0-9.435-6.187-17.585-15.084-21.321    C38.288,2.665,33.681,0,28,0S17.712,2.665,17.084,6.179C8.187,9.915,2,18.065,2,27.5c0,7.323,3.726,13.872,9.553,18.185    L6.62,50.317c-1.36,1.277-2.072,3.078-1.954,4.942c0.115,1.813,1.015,3.459,2.53,4.558L7.456,60h40.917l0.374-0.036l0.08-0.058    C54.075,59.245,58,54.828,58,49.5z M19.598,5.263C20.909,3.382,24.249,2,28,2s7.091,1.382,8.402,3.263    c-0.033-0.01-0.068-0.017-0.101-0.027c-0.63-0.192-1.268-0.368-1.919-0.517c-0.036-0.008-0.072-0.014-0.108-0.023    c-0.592-0.133-1.192-0.245-1.799-0.34c-0.106-0.017-0.212-0.036-0.319-0.052c-0.605-0.088-1.216-0.156-1.834-0.205    c-0.135-0.011-0.27-0.019-0.405-0.028C29.284,4.029,28.646,4,28,4s-1.284,0.029-1.918,0.071c-0.135,0.009-0.271,0.017-0.405,0.028    c-0.618,0.05-1.229,0.117-1.834,0.205c-0.107,0.016-0.213,0.035-0.319,0.052c-0.607,0.096-1.207,0.207-1.799,0.34    c-0.036,0.008-0.072,0.014-0.108,0.023c-0.65,0.149-1.289,0.324-1.919,0.517C19.665,5.246,19.631,5.252,19.598,5.263z M4,27.5    c0-8.772,5.898-16.329,14.324-19.669l0.053-0.021c1.118-0.441,2.262-0.8,3.427-1.08c0.031-0.007,0.061-0.016,0.092-0.024    c0.327-0.078,0.657-0.145,0.988-0.21c0.074-0.014,0.147-0.032,0.221-0.046c0.285-0.053,0.573-0.097,0.86-0.141    c0.118-0.018,0.235-0.04,0.353-0.057c0.244-0.034,0.49-0.058,0.735-0.085c0.162-0.018,0.322-0.04,0.484-0.055    c0.229-0.021,0.459-0.033,0.689-0.048c0.179-0.012,0.356-0.028,0.536-0.037C27.174,6.01,27.586,6,28,6s0.826,0.01,1.237,0.028    c0.18,0.008,0.357,0.025,0.536,0.037c0.23,0.015,0.461,0.027,0.689,0.048c0.163,0.015,0.323,0.038,0.484,0.055    c0.245,0.027,0.491,0.051,0.735,0.085C31.8,6.27,31.916,6.292,32.035,6.31c0.287,0.044,0.575,0.088,0.86,0.141    c0.074,0.014,0.147,0.031,0.221,0.046c0.331,0.065,0.66,0.133,0.988,0.21c0.031,0.007,0.061,0.016,0.092,0.024    c1.165,0.28,2.309,0.64,3.427,1.08l0.053,0.021C46.102,11.171,52,18.728,52,27.5c0,11.555-10.229,21.005-23,21.477V46.91    c2.074-0.35,3.788-1.763,4.559-3.662C41.499,41.134,47,34.738,47,27.5C47,18.402,38.477,11,28,11S9,18.402,9,27.5    c0,7.238,5.501,13.634,13.441,15.748c0.771,1.899,2.485,3.311,4.559,3.662v2.068C14.229,48.505,4,39.055,4,27.5z M21.428,50.238    l-1.19,2.976c-1.491-0.295-2.972-0.664-4.43-1.123l1.986-2.979C18.964,49.564,20.178,49.942,21.428,50.238z M23.426,50.628    c1.167,0.188,2.359,0.307,3.574,0.349v2.989c-1.585-0.043-3.168-0.18-4.745-0.411L23.426,50.628z M22,41.049    c-6.547-2.114-11-7.511-11-13.549C11,19.505,18.626,13,28,13s17,6.505,17,14.5c0,6.038-4.453,11.435-11,13.549    c0-0.017,0-0.032,0-0.049c0-3.309-2.691-6-6-6s-6,2.691-6,6C22,41.017,22,41.032,22,41.049z M24.313,42.551l-0.123-0.408    c-0.059-0.195-0.099-0.372-0.13-0.544C24.031,41.402,24,41.205,24,41c0-2.206,1.794-4,4-4s4,1.794,4,4    c0,0.205-0.031,0.402-0.06,0.598c-0.031,0.172-0.071,0.349-0.13,0.544l-0.123,0.408C31.08,43.988,29.656,45,28,45    S24.92,43.988,24.313,42.551z M29,50.977c1.215-0.042,2.407-0.161,3.574-0.349l1.179,2.948c-1.579,0.226-3.166,0.357-4.753,0.394    C29,53.97,29,50.977,29,50.977z M35.774,53.243l-1.202-3.006c1.25-0.295,2.464-0.673,3.633-1.126l2.009,3.014    C38.753,52.582,37.269,52.952,35.774,53.243z M42.17,51.452l-2.099-3.148c0.959-0.456,1.882-0.965,2.766-1.522l3.214,3.017    C44.781,50.415,43.487,50.969,42.17,51.452z M15.929,48.304l-2.072,3.107c-1.277-0.473-2.53-1.015-3.762-1.612l3.155-2.962    C14.107,47.373,15.001,47.863,15.929,48.304z M8.111,58c-0.853-0.705-1.377-1.736-1.449-2.867    c-0.081-1.267,0.403-2.49,1.327-3.356l0.548-0.514C14.643,54.354,21.378,56,28.073,56s13.43-1.646,19.536-4.738l0.548,0.514    c0.923,0.866,1.407,2.09,1.327,3.356c-0.071,1.119-0.585,2.141-1.453,2.867L8.111,58L8.111,58z M51.016,57.238    c0.26-0.619,0.419-1.286,0.463-1.978c0.118-1.864-0.594-3.665-1.954-4.942l-4.996-4.691c1.738-1.297,3.282-2.799,4.599-4.457    C53.085,41.937,56,45.412,56,49.5C56,52.936,53.982,55.9,51.016,57.238z" fill="#344160"/>
</g>
</svg>
