<?xml version="1.0" encoding="iso-8859-1"?>
<!-- Generator: Adobe Illustrator 19.0.0, SVG Export Plug-In . SVG Version: 6.00 Build 0)  -->
<svg xmlns="http://www.w3.org/2000/svg" xmlns:xlink="http://www.w3.org/1999/xlink" version="1.1" id="Capa_1" x="0px" y="0px" viewBox="0 0 58 58" style="enable-background:new 0 0 58 58;" xml:space="preserve" width="512px" height="512px">
<g>
	<path d="M58,29c0-1.862-1.283-3.416-3.008-3.86c-0.156-13.476-4.116-21.867-22.13-22.127C32.419,1.286,30.863,0,29,0   s-3.419,1.286-3.862,3.013C7.123,3.273,3.164,11.663,3.008,25.14C1.283,25.584,0,27.138,0,29s1.283,3.416,3.008,3.86   c0.156,13.476,4.116,21.867,22.13,22.127C25.581,56.714,27.137,58,29,58s3.419-1.286,3.862-3.013   c18.015-0.26,21.974-8.651,22.13-22.127C56.717,32.416,58,30.862,58,29z M52.993,25.144c-0.44,0.115-0.857,0.29-1.225,0.538   c-0.25-1.73-0.718-3.417-1.357-5.046c-0.007-0.023-0.003-0.048-0.013-0.071c-0.011-0.027-0.033-0.045-0.046-0.071   c-0.728-1.818-1.67-3.563-2.866-5.179c-2.429-3.281-5.619-5.78-9.262-7.369c-0.021-0.011-0.035-0.03-0.057-0.04   c-0.026-0.012-0.054-0.008-0.081-0.017c-1.801-0.772-3.702-1.34-5.692-1.637c-0.029-0.004-0.057-0.004-0.085-0.009   c0.251-0.369,0.429-0.788,0.545-1.231C49.295,5.258,52.844,12.59,52.993,25.144z M37.62,48.142l-2.571-6.523   c0.792-0.382,1.558-0.832,2.28-1.367c1.732-1.282,3.103-2.916,4.072-4.773l6.437,2.797c-1.459,2.971-3.606,5.576-6.343,7.602   C40.274,46.783,38.972,47.53,37.62,48.142z M25.9,49.77c-1.503-0.224-2.952-0.616-4.341-1.139l2.792-6.425   c0.831,0.29,1.693,0.509,2.582,0.642c0.7,0.104,1.4,0.156,2.096,0.156c1.421,0,2.82-0.222,4.161-0.644l2.57,6.521   C32.628,49.949,29.268,50.273,25.9,49.77z M12.121,41.495c-0.904-1.221-1.651-2.523-2.263-3.875l6.518-2.569   c0.382,0.792,0.837,1.556,1.372,2.278c1.282,1.732,2.916,3.103,4.773,4.072l-2.797,6.437   C16.752,46.379,14.147,44.231,12.121,41.495z M20.38,9.859l2.569,6.518c-0.792,0.382-1.556,0.837-2.279,1.371   c-1.732,1.282-3.103,2.916-4.071,4.772l-6.437-2.797c1.459-2.971,3.606-5.576,6.343-7.602C17.726,11.217,19.028,10.47,20.38,9.859z    M28.955,7.996c0.003,0,0.007,0,0.01,0C28.977,7.997,28.988,8,29,8c0.006,0,0.011-0.002,0.016-0.002   c1.023,0.003,2.053,0.078,3.083,0.232c1.503,0.224,2.952,0.616,4.341,1.139l-2.792,6.425c-0.831-0.29-1.693-0.509-2.582-0.642   c-2.13-0.317-4.256-0.131-6.253,0.497l-2.576-6.536C24.392,8.38,26.655,7.996,28.955,7.996z M45.879,16.505   c0.904,1.221,1.651,2.523,2.263,3.875l-6.518,2.569c-0.382-0.792-0.837-1.556-1.372-2.278c-1.282-1.732-2.916-3.103-4.773-4.071   l2.797-6.437C41.248,11.621,43.853,13.769,45.879,16.505z M48.63,36.441l-6.425-2.792c0.29-0.831,0.509-1.693,0.642-2.582   c0.318-2.131,0.132-4.256-0.496-6.253l6.53-2.574c1.069,3.132,1.392,6.492,0.89,9.86C49.545,33.603,49.154,35.052,48.63,36.441z    M33.516,40.108c-0.043,0.01-0.087,0.006-0.13,0.023c-0.051,0.02-0.087,0.059-0.133,0.086c-1.899,0.724-3.958,0.962-6.026,0.651   c-3.17-0.473-5.967-2.152-7.873-4.729c-0.617-0.833-1.104-1.733-1.482-2.67c-0.008-0.026-0.004-0.053-0.014-0.079   c-0.012-0.031-0.037-0.051-0.052-0.079c-0.741-1.916-0.988-3.996-0.676-6.083c0.473-3.17,2.152-5.967,4.729-7.873   c0.853-0.631,1.773-1.133,2.734-1.514c0.002-0.001,0.004,0,0.006-0.001s0.003-0.002,0.004-0.003   c1.388-0.549,2.865-0.839,4.37-0.839c0.596,0,1.196,0.044,1.797,0.134c1.015,0.151,1.986,0.439,2.908,0.828   c0.033,0.019,0.055,0.048,0.091,0.063c0.041,0.018,0.083,0.014,0.124,0.026c1.867,0.831,3.501,2.124,4.75,3.811   c1.907,2.576,2.697,5.741,2.224,8.911c-0.155,1.038-0.451,2.031-0.854,2.971c-0.006,0.013-0.018,0.021-0.024,0.034   c-0.007,0.015-0.004,0.032-0.01,0.047c-0.829,1.896-2.132,3.557-3.84,4.821C35.32,39.251,34.436,39.732,33.516,40.108z M8.23,25.9   c0.224-1.503,0.616-2.952,1.139-4.341l6.425,2.792c-0.29,0.831-0.509,1.693-0.642,2.582c-0.318,2.131-0.132,4.256,0.496,6.253   L9.12,35.76C8.051,32.628,7.728,29.268,8.23,25.9z M29,2c1.103,0,2,0.897,2,2s-0.897,2-2,2s-2-0.897-2-2S27.897,2,29,2z    M25.146,5.012c0.115,0.438,0.289,0.854,0.536,1.22c-1.732,0.25-3.419,0.718-5.05,1.358c-0.022,0.007-0.044,0.003-0.066,0.012   c-0.026,0.01-0.043,0.031-0.067,0.043c-1.82,0.728-3.567,1.671-5.184,2.869c-3.28,2.429-5.78,5.619-7.369,9.261   c-0.011,0.021-0.03,0.035-0.04,0.058c-0.011,0.026-0.008,0.054-0.017,0.081c-0.772,1.801-1.34,3.702-1.637,5.692   c-0.004,0.029-0.004,0.057-0.009,0.085c-0.371-0.252-0.791-0.43-1.236-0.547C5.156,12.59,8.705,5.258,25.146,5.012z M2,29   c0-1.103,0.897-2,2-2s2,0.897,2,2s-0.897,2-2,2S2,30.103,2,29z M5.007,32.856c0.44-0.115,0.857-0.29,1.225-0.538   c0.25,1.73,0.717,3.417,1.357,5.046c0.007,0.024,0.003,0.048,0.013,0.071c0.014,0.036,0.039,0.064,0.057,0.097   c0.727,1.809,1.665,3.545,2.855,5.153c2.429,3.281,5.619,5.78,9.262,7.369c0.021,0.011,0.035,0.03,0.057,0.04   c0.026,0.011,0.052,0.008,0.078,0.016c1.802,0.772,3.704,1.341,5.694,1.638c0.028,0.004,0.056,0.005,0.085,0.009   c-0.251,0.369-0.428,0.788-0.544,1.231C8.705,52.742,5.156,45.41,5.007,32.856z M29,56c-1.103,0-2-0.897-2-2   c0-1.095,0.886-1.986,1.978-1.998c0.023,0,0.046,0.003,0.069,0.003C30.128,52.031,31,52.914,31,54C31,55.103,30.103,56,29,56z    M32.854,52.988c-0.116-0.442-0.293-0.86-0.543-1.228c1.746-0.252,3.451-0.708,5.094-1.356c0.009-0.003,0.019-0.002,0.029-0.005   c0.008-0.003,0.012-0.01,0.02-0.013c1.838-0.73,3.598-1.691,5.23-2.899c3.275-2.424,5.772-5.608,7.361-9.242   c0.015-0.027,0.036-0.048,0.048-0.077c0.011-0.026,0.008-0.054,0.017-0.081c0.772-1.801,1.34-3.702,1.637-5.692   c0.004-0.029,0.004-0.057,0.009-0.085c0.371,0.252,0.791,0.43,1.236,0.547C52.844,45.41,49.295,52.742,32.854,52.988z M54,31   c-1.103,0-2-0.897-2-2s0.897-2,2-2s2,0.897,2,2S55.103,31,54,31z" fill="#344160"/>
</g>
</svg>
