<?xml version="1.0" encoding="iso-8859-1"?>
<!-- Generator: Adobe Illustrator 19.0.0, SVG Export Plug-In . SVG Version: 6.00 Build 0)  -->
<svg xmlns="http://www.w3.org/2000/svg" xmlns:xlink="http://www.w3.org/1999/xlink" version="1.1" id="Capa_1" x="0px" y="0px" viewBox="0 0 59.001 59.001" style="enable-background:new 0 0 59.001 59.001;" xml:space="preserve" width="512px" height="512px">
<g>
	<path d="M52.123,24.959C48.167,24.048,46.574,10.54,46.5,2.24l-0.01-0.149c-0.138-1.067-0.949-1.896-2.02-2.061   c-0.986-0.152-1.915,0.289-2.425,1.103c-0.063,0.033-0.131,0.054-0.188,0.102C39.005,3.629,34.501,5.002,29.5,5.002   c-4.703,0-9.334-1.417-12.388-3.789c-0.048-0.038-0.105-0.052-0.158-0.079c-0.511-0.814-1.443-1.255-2.424-1.102   c-1.07,0.165-1.882,0.993-2.021,2.084L12.5,2.24c-0.073,8.3-1.664,21.807-5.623,22.719C6.067,25.146,5.5,25.855,5.5,26.684v3.317v8   v7v8v6h48v-6v-8v-7v-8v-3.317C53.5,25.855,52.934,25.146,52.123,24.959z M40.196,4.684C37.379,9.629,33.138,15.002,29.5,15.002   c-3.667,0-7.942-5.455-10.759-10.432c3.1,1.549,6.917,2.432,10.759,2.432C33.559,7.002,37.236,6.188,40.196,4.684z M36.5,30.002h9   v8h-9V30.002z M47.5,32.002h4v4h-4V32.002z M34.5,36.002h-10v-4h10V36.002z M22.5,38.002h-9v-8h9V38.002z M11.5,36.002h-4v-4h4   V36.002z M7.5,26.863c6.608-1.871,6.979-22.267,6.995-24.516c0.031-0.242,0.201-0.318,0.339-0.34c0.1-0.016,0.339-0.023,0.461,0.24   c0.666,1.439,6.453,13.531,13.205,14.661v13.093h-4v-0.342c0-0.914-0.744-1.658-1.658-1.658h-9.684   c-0.914,0-1.658,0.744-1.658,1.658v0.342h-4C7.5,30.001,7.5,26.863,7.5,26.863z M25.5,45.002h9v8h-9V45.002z M36.5,47.002h15v4h-15   V47.002z M23.5,51.002h-16v-4h16V51.002z M51.5,57.002h-44v-4h16v0.342c0,0.914,0.744,1.658,1.658,1.658h9.684   c0.914,0,1.658-0.744,1.658-1.658v-0.342h15C51.5,53.002,51.5,57.002,51.5,57.002z M51.5,45.002h-15V44.66   c0-0.914-0.744-1.658-1.658-1.658h-9.684c-0.914,0-1.658,0.744-1.658,1.658v0.342h-16v-7h4v0.342c0,0.914,0.744,1.658,1.658,1.658   h9.684c0.914,0,1.658-0.744,1.658-1.658v-0.342h10v0.342c0,0.914,0.744,1.658,1.658,1.658h9.684c0.914,0,1.658-0.744,1.658-1.658   v-0.342h4C51.5,38.002,51.5,45.002,51.5,45.002z M47.5,30.002V29.66c0-0.914-0.744-1.658-1.658-1.658h-9.684   c-0.914,0-1.658,0.744-1.658,1.658v0.342h-4V16.908c6.752-1.129,12.54-13.221,13.205-14.661c0.121-0.264,0.358-0.256,0.461-0.24   c0.138,0.021,0.308,0.098,0.334,0.25c0.021,2.339,0.393,22.734,7,24.605v3.139h-4V30.002z" fill="#344160"/>
</g>
</svg>
