<?xml version="1.0" encoding="iso-8859-1"?>
<!-- Generator: Adobe Illustrator 19.0.0, SVG Export Plug-In . SVG Version: 6.00 Build 0)  -->
<svg xmlns="http://www.w3.org/2000/svg" xmlns:xlink="http://www.w3.org/1999/xlink" version="1.1" id="Capa_1" x="0px" y="0px" viewBox="0 0 60 60" style="enable-background:new 0 0 60 60;" xml:space="preserve" width="512px" height="512px">
	<g>
		<path d="M56.473,46.536c-0.191-1.65-1.398-2.984-2.973-3.393v-0.699c0.591,0.344,1.268,0.556,2,0.556c2.206,0,4-1.794,4-4    s-1.794-4-4-4c-0.732,0-1.409,0.212-2,0.556V21c0-5.514-4.486-10-10-10h-7V9h-3V7.444C34.091,7.788,34.768,8,35.5,8    c2.206,0,4-1.794,4-4s-1.794-4-4-4c-1.2,0-2.266,0.542-3,1.382C31.766,0.542,30.7,0,29.5,0c-2.206,0-4,1.794-4,4s1.794,4,4,4    c0.732,0,1.409-0.212,2-0.556V9h-3v2h-14V9h-3V7.444C12.091,7.788,12.768,8,13.5,8c2.206,0,4-1.794,4-4s-1.794-4-4-4    c-1.2,0-2.266,0.542-3,1.382C9.766,0.542,8.7,0,7.5,0c-2.206,0-4,1.794-4,4s1.794,4,4,4c0.732,0,1.409-0.212,2-0.556V9h-3v6h1    v1.158c-4.16,1.297-7,5.109-7,9.533V31v16v8.981C0.5,58.197,2.303,60,4.518,60h11.964c2.215,0,4.018-1.803,4.018-4.019V53h2v2.981    c0,2.216,1.803,4.019,4.018,4.019h11.964c2.215,0,4.018-1.803,4.018-4.019V47V31v-5c0-4.491-2.9-8.5-7-9.83V15h1v-2h7    c4.411,0,8,3.589,8,8v22.143c-1.575,0.41-2.782,1.743-2.973,3.393C47.292,47.239,46.5,48.558,46.5,50s0.792,2.761,2.027,3.464    C48.757,55.451,50.451,57,52.5,57s3.743-1.549,3.973-3.536C57.708,52.761,58.5,51.442,58.5,50S57.708,47.239,56.473,46.536z     M35.5,2c1.103,0,2,0.897,2,2s-0.897,2-2,2s-2-0.897-2-2S34.397,2,35.5,2z M29.5,6c-1.103,0-2-0.897-2-2s0.897-2,2-2s2,0.897,2,2    S30.603,6,29.5,6z M13.5,2c1.103,0,2,0.897,2,2s-0.897,2-2,2s-2-0.897-2-2S12.397,2,13.5,2z M7.5,6c-1.103,0-2-0.897-2-2    s0.897-2,2-2s2,0.897,2,2S8.603,6,7.5,6z M30.5,11h1h2h1v2h-1h-2h-1V11z M13.5,15h1v-2h14v2h1v1.158    c-3.941,1.229-6.693,4.716-6.972,8.842h-2.081c-0.393-4.076-3.154-7.6-6.947-8.83V15z M24.5,33h16v12h-16V33z M22.5,47v1h-2v-1V31    v-1h2v1V47z M18.5,45h-16V33h16V45z M20.5,27h2v1h-2V27z M8.5,11h4v2h-1h-2h-1V11z M2.5,25.691c0-3.755,2.559-6.959,6.222-7.792    L9.5,17.722V15h2v2.722l0.772,0.181C15.881,18.745,18.5,22.15,18.5,26v4v1h-16V25.691z M18.5,55.981    c0,1.113-0.905,2.019-2.018,2.019H4.518C3.405,58,2.5,57.095,2.5,55.981V47h16v1v5V55.981z M20.5,51v-1h2v1H20.5z M40.5,55.981    c0,1.113-0.905,2.019-2.018,2.019H26.518c-1.113,0-2.018-0.905-2.018-2.019V53v-5v-1h16V55.981z M40.5,26v5h-16v-1v-4.309    c0-3.755,2.559-6.959,6.222-7.792l0.778-0.178V15h2v2.722l0.772,0.181C37.881,18.745,40.5,22.15,40.5,26z M55.5,37    c1.103,0,2,0.897,2,2s-0.897,2-2,2s-2-0.897-2-2S54.397,37,55.5,37z M55.163,51.873L54.5,52.11V53c0,1.103-0.897,2-2,2    s-2-0.897-2-2v-0.89l-0.663-0.237C49.037,51.587,48.5,50.834,48.5,50s0.537-1.587,1.337-1.873L50.5,47.89V47c0-1.103,0.897-2,2-2    s2,0.897,2,2v0.89l0.663,0.237c0.8,0.286,1.337,1.039,1.337,1.873S55.963,51.587,55.163,51.873z" fill="#344160"/>
		<path d="M52.5,47c-0.552,0-1,0.447-1,1v4c0,0.553,0.448,1,1,1s1-0.447,1-1v-4C53.5,47.447,53.052,47,52.5,47z" fill="#344160"/>
	</g>
</svg>
