<?xml version="1.0" encoding="iso-8859-1"?>
<!-- Generator: Adobe Illustrator 19.0.0, SVG Export Plug-In . SVG Version: 6.00 Build 0)  -->
<svg xmlns="http://www.w3.org/2000/svg" xmlns:xlink="http://www.w3.org/1999/xlink" version="1.1" id="Capa_1" x="0px" y="0px" viewBox="0 0 60 60" style="enable-background:new 0 0 60 60;" xml:space="preserve" width="512px" height="512px">
<path d="M51.512,20.769C49.595,19.611,47.287,19,44.835,19H25.154c-2.452,0-4.761,0.611-6.677,1.769    c-2.933,1.771-4.483,4.272-4.483,7.231L14,35.9c-0.008,0.078-0.174,1.929,1.324,3.583C16.835,41.153,19.416,42,23.013,42    c0.407-0.008,9.977-0.263,9.981-6.994L33,35c0-1.103,0.897-2,2-2c1.101,0,1.997,0.895,2,1.995L36.995,35c0,6.737,9.574,6.992,10,7    c3.579,0,6.16-0.847,7.671-2.517C56.155,37.838,56,36,55.995,36v-8C55.995,25.041,54.444,22.54,51.512,20.769z M53.151,38.177    C52.042,39.369,49.913,40,47.013,40c-0.08-0.001-8.013-0.204-8.019-4.995L39,35c0-2.206-1.794-4-4-4c-2.204,0-3.997,1.791-4,3.994    L30.995,35c0,4.78-7.939,4.999-8,5c-2.918,0-5.047-0.631-6.156-1.823c-0.917-0.986-0.851-2.046-0.844-2.177v-8    c0-2.253,1.183-4.109,3.517-5.52c1.604-0.969,3.555-1.48,5.643-1.48h19.681c2.087,0,4.039,0.512,5.643,1.481    c2.334,1.409,3.517,3.266,3.517,5.519L54,36.087C54.001,36.131,54.067,37.19,53.151,38.177z" fill="#344160"/>
<path d="M60,26.166C60,20.009,54.991,15,48.833,15H21.167C15.009,15,10,20.009,10,26.166l0.002,1.689l-0.008,0.094V28H8V0H0v47    c0,6.617,5.383,12,12,12h10.386c0.407,0.603,1.096,1,1.877,1h11.475C36.985,60,38,58.985,38,57.737v-5.475    C38,51.015,36.985,50,35.737,50H24.263c-0.78,0-1.47,0.397-1.877,1H12c-2.206,0-4-1.794-4-4V34h1.995v1.868    c-0.039,1.066,0.113,3.814,2.363,6.299C14.659,44.71,18.261,46,23.087,46c5.043-0.094,9.489-1.978,11.924-5.038    c2.401,3.061,6.847,4.944,11.983,5.038c4.757,0,8.336-1.29,10.637-3.833c2.25-2.484,2.401-5.232,2.363-6.263L60,26.166z M6,2v6H2    V2H6z M36,52.263v5.475C36,57.882,35.882,58,35.737,58H24.263c-0.107,0-0.181-0.074-0.222-0.165l-0.011-0.049L24,52.332    l0.033-0.149C24.069,52.082,24.149,52,24.263,52h11.475C35.882,52,36,52.118,36,52.263z M12,53h10v4H12C6.486,57,2,52.514,2,47V10    h4v37C6,50.309,8.691,53,12,53z M8.107,32v-2h1.887v2H8.107z M58,30h-0.006v5.94c0.03,0.822-0.089,2.944-1.847,4.885    C54.242,42.932,51.163,44,46.938,44c-4.382-0.081-8.35-1.719-10.353-4.271c-0.39-0.498-0.97-0.784-1.591-0.784    s-1.201,0.286-1.59,0.783C31.4,42.281,27.432,43.919,23.064,44c-4.214,0-7.318-1.068-9.225-3.175    c-1.757-1.94-1.876-4.063-1.846-4.921L11.995,34H12v-6h-0.001L12,26.166C12,21.112,16.112,17,21.167,17h27.667    C53.888,17,58,21.112,58,26.166V30z" fill="#344160"/>
<path d="M24.707,24.293c-0.391-0.391-1.023-0.391-1.414,0l-4,4c-0.391,0.391-0.391,1.023,0,1.414C19.488,29.902,19.744,30,20,30    s0.512-0.098,0.707-0.293l4-4C25.098,25.316,25.098,24.684,24.707,24.293z" fill="#344160"/>
<path d="M30.293,24.293l-7,7c-0.391,0.391-0.391,1.023,0,1.414C23.488,32.902,23.744,33,24,33s0.512-0.098,0.707-0.293l7-7    c0.391-0.391,0.391-1.023,0-1.414S30.684,23.902,30.293,24.293z" fill="#344160"/>
</svg>
