<?xml version="1.0" encoding="iso-8859-1"?>
<!-- Generator: Adobe Illustrator 18.0.0, SVG Export Plug-In . SVG Version: 6.00 Build 0)  -->
<!DOCTYPE svg PUBLIC "-//W3C//DTD SVG 1.1//EN" "http://www.w3.org/Graphics/SVG/1.1/DTD/svg11.dtd">
<svg version="1.1" id="Capa_1" xmlns="http://www.w3.org/2000/svg" xmlns:xlink="http://www.w3.org/1999/xlink" x="0px" y="0px"
	 viewBox="0 0 415.478 415.478" style="enable-background:new 0 0 415.478 415.478;" xml:space="preserve">
<g>
	<path style="fill:#F74B4B;" d="M122.45,138.479v99.39l-36.04,8.15c-3.44,0.78-6.84,1.11-10.14,1.04
		c-26.3-0.51-46.71-26.26-38.7-53.22l4.91-16.54c0.97-3.28,1.43-6.56,1.43-9.78c0-18.2-14.75-34.08-34.16-34.08
		c-5.39,0-9.75-4.36-9.75-9.75c0-5.38,4.36-9.75,9.75-9.75l60.01,13.07L122.45,138.479z"/>
	<path style="fill:#F9D43A;" d="M405.728,312.93H140.966c-28.979,0-52.471-23.492-52.471-52.471v-125.27
		c0-25.266-20.482-45.748-45.748-45.748h0c-5.385,0-9.75-4.365-9.75-9.75v0c0-5.384,4.365-9.75,9.75-9.75h217.926
		c54.847,0,99.309,44.462,99.309,99.309v78.433c0,25.266,20.482,45.748,45.748,45.748h0c5.385,0,9.75,4.365,9.75,9.749v0
		C415.478,308.565,411.113,312.93,405.728,312.93z"/>
	<g>
		<circle style="fill:#FFFFFF;" cx="329.382" cy="280.831" r="18.726"/>
		<circle style="fill:#4D4D4D;" cx="329.382" cy="280.831" r="11.457"/>
	</g>
	<path style="fill:#F74B4B;" d="M207.209,345.535h-48.914v-14.823c0-17.09,13.854-30.944,30.944-30.944h53.056v10.682
		C242.294,329.827,226.586,345.535,207.209,345.535z"/>
	<path style="fill:#D3B742;" d="M287.45,276.619L287.45,276.619c-21.539,0-39-17.461-39-39v-138h0c21.539,0,39,17.461,39,39V276.619
		z"/>
	<path style="fill:#D3B742;" d="M193.2,276.619L193.2,276.619c21.539,0,39-17.461,39-39v-138h0c-21.539,0-39,17.461-39,39V276.619z"
		/>
	<path style="fill:#D3B742;" d="M176.95,276.619L176.95,276.619c-21.539,0-39-17.461-39-39v-138h0c21.539,0,39,17.461,39,39V276.619
		z"/>
</g>
<g>
</g>
<g>
</g>
<g>
</g>
<g>
</g>
<g>
</g>
<g>
</g>
<g>
</g>
<g>
</g>
<g>
</g>
<g>
</g>
<g>
</g>
<g>
</g>
<g>
</g>
<g>
</g>
<g>
</g>
</svg>
