<?xml version="1.0" encoding="iso-8859-1"?>
<!-- Generator: Adobe Illustrator 18.0.0, SVG Export Plug-In . SVG Version: 6.00 Build 0)  -->
<!DOCTYPE svg PUBLIC "-//W3C//DTD SVG 1.1//EN" "http://www.w3.org/Graphics/SVG/1.1/DTD/svg11.dtd">
<svg version="1.1" id="Capa_1" xmlns="http://www.w3.org/2000/svg" xmlns:xlink="http://www.w3.org/1999/xlink" x="0px" y="0px"
	 viewBox="0 0 422.245 422.245" style="enable-background:new 0 0 422.245 422.245;" xml:space="preserve">
<g>
	<path style="fill:#F9993A;" d="M362.313,256.502c-6.881,0.126-12.265,6.03-12.265,12.913v13.484
		c0,16.304-12.759,30.103-29.056,30.587c-16.934,0.503-30.87-13.127-30.87-29.949V203V79c0-43.63-35.369-79-79-79h0
		c-43.63,0-79,35.369-79,79v124v79.9c0,16.304-12.759,30.103-29.056,30.587c-16.934,0.503-30.87-13.126-30.87-29.949l0-14.122
		c0-6.882-5.384-12.786-12.265-12.913c-7.011-0.129-12.735,5.516-12.735,12.498v13.702c0,30.162,23.951,55.331,54.109,55.791
		c30.696,0.469,55.817-24.365,55.817-54.956V213.75c0-5.937,4.813-10.75,10.75-10.75h0c5.937,0,10.75,4.813,10.75,10.75v152.911
		c0,16.611-13.25,30.528-29.861,30.584c-16.513,0.055-29.975-13.317-30.065-29.797c-0.037-6.855-5.574-12.628-12.43-12.666
		c-6.936-0.038-12.571,5.573-12.571,12.5c0,30.591,25.121,55.425,55.817,54.956c30.158-0.46,54.109-25.629,54.109-55.791V210.5
		c0-4.142,3.358-7.5,7.5-7.5h0c4.142,0,7.5,3.358,7.5,7.5v155.898c0,30.333,24.2,55.611,54.532,55.845
		c30.365,0.234,55.168-24.288,55.392-54.548c0.049-6.626-4.962-12.402-11.571-12.879c-7.323-0.528-13.428,5.256-13.428,12.466
		c0,16.823-13.936,30.452-30.87,29.949c-16.297-0.484-29.056-14.283-29.056-30.587V213.75c0-5.937,4.813-10.75,10.75-10.75h0
		c5.937,0,10.75,4.813,10.75,10.75v68.953c0,30.162,23.951,55.331,54.109,55.791c30.696,0.468,55.817-24.366,55.817-54.956V269
		C375.048,262.019,369.324,256.374,362.313,256.502z"/>
	<g>
		<circle style="fill:#E2822B;" cx="260.119" cy="140" r="39.769"/>
		<circle style="fill:#FFFFFF;" cx="260.119" cy="140" r="25"/>
		<path style="fill:#4D4D4D;" d="M260.119,155L260.119,155c-3.038,0-5.5-2.462-5.5-5.5v-19c0-3.038,2.462-5.5,5.5-5.5h0
			c3.038,0,5.5,2.462,5.5,5.5v19C265.619,152.538,263.157,155,260.119,155z"/>
	</g>
	<g>
		<circle style="fill:#E2822B;" cx="159.622" cy="140" r="39.769"/>
		<circle style="fill:#FFFFFF;" cx="159.622" cy="140" r="25"/>
		<path style="fill:#4D4D4D;" d="M159.622,155L159.622,155c-3.038,0-5.5-2.462-5.5-5.5v-19c0-3.038,2.462-5.5,5.5-5.5h0
			c3.038,0,5.5,2.462,5.5,5.5v19C165.122,152.538,162.66,155,159.622,155z"/>
	</g>
	<circle style="fill:#E2822B;" cx="248.122" cy="42.5" r="10"/>
	<circle style="fill:#E2822B;" cx="157.122" cy="55.5" r="10"/>
	<circle style="fill:#E2822B;" cx="265.119" cy="61.5" r="5"/>
	<circle style="fill:#E2822B;" cx="169.122" cy="34.5" r="5"/>
	<circle style="fill:#E2822B;" cx="245.122" cy="67.5" r="5"/>
</g>
<g>
</g>
<g>
</g>
<g>
</g>
<g>
</g>
<g>
</g>
<g>
</g>
<g>
</g>
<g>
</g>
<g>
</g>
<g>
</g>
<g>
</g>
<g>
</g>
<g>
</g>
<g>
</g>
<g>
</g>
</svg>
