<?xml version="1.0" encoding="iso-8859-1"?>
<!-- Generator: Adobe Illustrator 18.0.0, SVG Export Plug-In . SVG Version: 6.00 Build 0)  -->
<!DOCTYPE svg PUBLIC "-//W3C//DTD SVG 1.1//EN" "http://www.w3.org/Graphics/SVG/1.1/DTD/svg11.dtd">
<svg version="1.1" id="Capa_1" xmlns="http://www.w3.org/2000/svg" xmlns:xlink="http://www.w3.org/1999/xlink" x="0px" y="0px"
	 viewBox="0 0 450.449 450.449" style="enable-background:new 0 0 450.449 450.449;" xml:space="preserve">
<g>
	<g>
		<g>
			<path style="fill:#CE3E3E;" d="M149.995,77.286L149.995,77.286c7.914-7.914,20.746-7.914,28.661,0l39.807,39.807l-28.661,28.661
				l-39.807-39.807C142.08,98.033,142.08,85.201,149.995,77.286z"/>
			<path style="fill:#CE3E3E;" d="M121.334,105.947L121.334,105.947c7.914-7.914,20.746-7.914,28.661,0l39.807,39.807
				l-28.661,28.661l-39.807-39.807C113.42,126.694,113.42,113.862,121.334,105.947z"/>
		</g>
		<g>
			<path style="fill:#CE3E3E;" d="M121.334,344.502L121.334,344.502c-7.914-7.914-7.914-20.746,0-28.661l39.807-39.807
				l28.661,28.661l-39.807,39.807C142.08,352.416,129.249,352.416,121.334,344.502z"/>
			<path style="fill:#CE3E3E;" d="M149.995,373.163L149.995,373.163c-7.914-7.914-7.914-20.746,0-28.661l39.807-39.807
				l28.661,28.661l-39.807,39.807C170.741,381.077,157.909,381.077,149.995,373.163z"/>
		</g>
	</g>
	<path style="fill:#F74B4B;" d="M438.213,254.761l-67.55,67.56l-22.93,22.93c-44.51,44.52-116.68,44.52-161.2,0l-120.03-120.03
		l120.04-120.03c44.51-44.51,116.68-44.51,161.19,0l22.93,22.93l67.55,67.56c2.48,2.48,4.58,5.19,6.3,8.06l-17.07,17.07
		c-3.32,3.32-4.98,7.67-4.98,12.02c0,4.36,1.66,8.71,4.98,12.03l22.88-22.88C451.233,233.721,447.203,245.781,438.213,254.761z"/>
	<g>
		<path style="fill:#CE3E3E;" d="M98.558,225.221L98.558,225.221l-31.538,0C30.005,225.221,0,195.216,0,158.202v0h31.538
			C68.552,158.202,98.558,188.208,98.558,225.221z"/>
		<path style="fill:#CE3E3E;" d="M98.558,225.221L98.558,225.221l-31.538,0C30.005,225.221,0,255.227,0,292.24v0h31.538
			C68.552,292.24,98.558,262.235,98.558,225.221z"/>
	</g>
	<path style="fill:#CE3E3E;" d="M438.213,254.761l-67.55,67.56c-24.85-24.85-40.22-59.18-40.22-97.1s15.37-72.25,40.22-97.1
		l67.55,67.56c2.48,2.48,4.58,5.19,6.3,8.06l-17.07,17.07c-3.32,3.32-4.98,7.67-4.98,12.02c0,4.36,1.66,8.71,4.98,12.03l22.88-22.88
		C451.233,233.721,447.203,245.781,438.213,254.761z"/>
	<g>
		<circle style="fill:#FFFFFF;" cx="379.631" cy="225.221" r="22.238"/>
		<circle style="fill:#4D4D4D;" cx="379.631" cy="225.221" r="13.606"/>
	</g>
	<path style="fill:#CE3E3E;" d="M287.653,356.839h-70.398v0c0-30.017,24.334-54.351,54.351-54.351h45.402v24.996
		C317.009,343.696,303.866,356.839,287.653,356.839z"/>
</g>
<g>
</g>
<g>
</g>
<g>
</g>
<g>
</g>
<g>
</g>
<g>
</g>
<g>
</g>
<g>
</g>
<g>
</g>
<g>
</g>
<g>
</g>
<g>
</g>
<g>
</g>
<g>
</g>
<g>
</g>
</svg>
