<?xml version="1.0" encoding="iso-8859-1"?>
<!-- Generator: Adobe Illustrator 18.0.0, SVG Export Plug-In . SVG Version: 6.00 Build 0)  -->
<!DOCTYPE svg PUBLIC "-//W3C//DTD SVG 1.1//EN" "http://www.w3.org/Graphics/SVG/1.1/DTD/svg11.dtd">
<svg version="1.1" id="Capa_1" xmlns="http://www.w3.org/2000/svg" xmlns:xlink="http://www.w3.org/1999/xlink" x="0px" y="0px"
	 viewBox="0 0 402.156 402.156" style="enable-background:new 0 0 402.156 402.156;" xml:space="preserve">
<g>
	<path style="fill:#269DC6;" d="M92.218,118.002h44.771L245.9,32.534V0h-29.708C149.802,0,95.421,52.392,92.218,118.002z"/>
	<path style="fill:#51CAF4;" d="M310.259,86.671l42.8,5.34V54.917l-40.244,5.021c-10.875,1.357-21.71-3.557-27.471-12.881
		c-8.163-13.214-22.77-22.021-39.445-22.021h-29.708c-54.726,0-99.09,44.364-99.09,99.09v14.534
		c0,54.675-20.396,106.557-53.835,149.813c-8.884,11.492-14.17,25.907-14.17,41.556v4.122c0,37.558,30.447,68.005,68.005,68.005
		h2.061c37.558,0,68.005-30.447,68.005-68.005c0,0-10.925,33.096-54.61,30.911c-41.215-2.061-50.489-70.066,34.003-70.066h57.638
		c48.049,0,88.972-37.363,90.679-85.382c1.792-50.412-38.543-91.844-88.555-91.844h19.577c15.343,0,28.927-7.461,37.355-18.948
		C289.554,90.238,299.693,85.353,310.259,86.671z"/>
	<polygon style="fill:#269DC6;" points="73.104,237.836 142.168,222.462 142.168,177.57 73.104,162.196 	"/>
	<g>
		<circle style="fill:#FFFFFF;" cx="239.727" cy="75.7" r="20.466"/>
		<circle style="fill:#4D4D4D;" cx="239.727" cy="75.7" r="12.144"/>
	</g>
</g>
<g>
</g>
<g>
</g>
<g>
</g>
<g>
</g>
<g>
</g>
<g>
</g>
<g>
</g>
<g>
</g>
<g>
</g>
<g>
</g>
<g>
</g>
<g>
</g>
<g>
</g>
<g>
</g>
<g>
</g>
</svg>
