<?xml version="1.0" encoding="iso-8859-1"?>
<!-- Generator: Adobe Illustrator 18.0.0, SVG Export Plug-In . SVG Version: 6.00 Build 0)  -->
<!DOCTYPE svg PUBLIC "-//W3C//DTD SVG 1.1//EN" "http://www.w3.org/Graphics/SVG/1.1/DTD/svg11.dtd">
<svg version="1.1" id="Capa_1" xmlns="http://www.w3.org/2000/svg" xmlns:xlink="http://www.w3.org/1999/xlink" x="0px" y="0px"
	 viewBox="0 0 442.5 442.5" style="enable-background:new 0 0 442.5 442.5;" xml:space="preserve">
<g>
	<path style="fill:#48E0AA;" d="M228.457,442.5h61.242V222.354c0-6.632,5.376-12.008,12.008-12.008h16.811
		c16.911,0,30.621-13.709,30.621-30.621v0c0-16.911-13.709-30.621-30.621-30.621h-16.811c-40.455,0-73.25,32.795-73.25,73.25V442.5z
		"/>
	<circle style="fill:#47A583;" cx="318.878" cy="179.965" r="19.573"/>
	<path style="fill:#42CC97;" d="M198.391,442.5h61.242V73.25c0-6.632,5.376-12.008,12.008-12.008h16.811
		c16.911,0,30.621-13.709,30.621-30.621v0C319.073,13.709,305.364,0,288.452,0l-16.811,0c-40.455,0-73.25,32.795-73.25,73.25V442.5z
		"/>
	<circle style="fill:#47A583;" cx="288.813" cy="30.861" r="19.573"/>
	<path style="fill:#53F2BD;" d="M233.815,442.5h-61.242V145.299c0-6.632-5.376-12.008-12.008-12.008h-16.811
		c-16.911,0-30.621-13.709-30.621-30.621v0c0-16.911,13.709-30.621,30.621-30.621h16.811c40.455,0,73.25,32.795,73.25,73.25V442.5z"
		/>
	<circle style="fill:#47A583;" cx="143.394" cy="102.91" r="19.573"/>
	<path style="fill:#48E0AA;" d="M197.791,442.5h-61.242V282.792c0-6.632-5.376-12.008-12.008-12.008H107.73
		c-16.911,0-30.621-13.709-30.621-30.621v0c0-16.911,13.709-30.621,30.621-30.621h16.811c40.455,0,73.25,32.795,73.25,73.25V442.5z"
		/>
	<circle style="fill:#47A583;" cx="107.37" cy="240.403" r="19.573"/>
	<path style="fill:#42CC97;" d="M277.732,442.5V271.372c0-16.911-13.709-30.621-30.621-30.621h0
		c-16.911,0-30.621,13.709-30.621,30.621V442.5"/>
	<circle style="fill:#47A583;" cx="247.351" cy="271.012" r="19.573"/>
	<path style="fill:#42CC97;" d="M365.391,442.5V330.458c0-16.911-13.709-30.621-30.621-30.621h0
		c-16.911,0-30.621,13.709-30.621,30.621V442.5"/>
	<circle style="fill:#47A583;" cx="335.01" cy="330.098" r="19.573"/>
</g>
<g>
</g>
<g>
</g>
<g>
</g>
<g>
</g>
<g>
</g>
<g>
</g>
<g>
</g>
<g>
</g>
<g>
</g>
<g>
</g>
<g>
</g>
<g>
</g>
<g>
</g>
<g>
</g>
<g>
</g>
</svg>
