<?xml version="1.0" encoding="utf-8"?>
<!-- Generator: Adobe Illustrator 20.0.0, SVG Export Plug-In . SVG Version: 6.00 Build 0)  -->
<svg version="1.1" id="Layer_1" xmlns="http://www.w3.org/2000/svg" xmlns:xlink="http://www.w3.org/1999/xlink" x="0px" y="0px"
	 width="100px" height="100px" viewBox="0 0 100 100" style="enable-background:new 0 0 100 100;" xml:space="preserve">
<style type="text/css">
	.st0{fill:#FE5F55;}
</style>
<g>
	<g>
		<path class="st0" d="M28.5,89.8c-0.7-1.8-3-5-10.2-6c-0.6-4-5.9-6.2-6.5-6.5c-0.7-0.3-1.6,0.1-1.9,0.8c-0.3,0.8,0.1,1.6,0.8,1.9
			c1.1,0.5,4.2,2.1,4.7,4.1c-1.3-0.2-4.2-1.7-6.8-3.4c-0.7-0.4-1.6-0.3-2,0.4c-0.4,0.7-0.3,1.6,0.4,2c2.3,1.6,6.2,3.9,8.8,3.8
			c0.5,0,1-0.1,1.4-0.3c0,0,0.1-0.1,0.2-0.1c7.6,0.9,8.5,4.2,8.6,4.6c-2,0.7-5.2-0.1-6.4-0.5c-0.7-0.3-1.6,0.1-1.9,0.9
			c-0.3,0.8,0.1,1.6,0.9,1.9c0.4,0.2,2.9,1,5.5,1c1.7,0,3.4-0.3,4.7-1.4c0.1-0.1,0.1-0.1,0.2-0.2c8.1,1.3,12.5,4.9,12.6,4.9
			c0.3,0.2,0.6,0.3,0.9,0.3c0.4,0,0.8-0.2,1.1-0.5c0.5-0.6,0.4-1.5-0.2-2.1C43.1,95.4,37.9,91.1,28.5,89.8z"/>
		<path class="st0" d="M44.7,89.7c0.5-2.3,0.5-4.1,0.5-4.2c0-0.8-0.7-1.5-1.5-1.5s-1.5,0.7-1.5,1.5c0,0,0,1.3-0.3,2.9
			c-1.6-0.9-4.2-2.4-6.8-4.3c0.5-2.3,0.4-6.1,0.3-7c0-0.8-0.7-1.5-1.5-1.4c-0.8,0-1.4,0.7-1.4,1.5c0,0.3,0,0.6,0,0.9
			c-0.5-0.9-1.1-1.9-1.6-3c-0.4-0.7-1.2-1-2-0.7c-0.7,0.4-1,1.2-0.7,2c2.3,4.8,3.6,5.7,4.1,6c0,0.5-0.1,0.8-0.2,1.2
			c-0.9,0.1-2.9-0.1-5.6-3.1c0-4.5-2.1-6.5-2.3-6.7c-0.6-0.5-1.5-0.5-2,0.1c-0.5,0.6-0.5,1.5,0,2.1c0.1,0.1,1.1,1.2,1.3,3.8
			c-1.2-0.2-3.4-1.3-6.1-5.5C17.2,70,16,66.7,16,66.5c-0.3-0.8-1.1-1.1-1.9-0.9c-0.8,0.3-1.1,1.1-0.9,1.9c0,0,0.7,2.1,1.2,4.8
			c-1.1-0.7-2.5-2-3.5-4.3C10.7,67.3,9.8,67,9,67.3c-0.7,0.3-1.1,1.2-0.7,1.9c2.1,4.7,5.5,6.2,7,6.7c4,6.2,7.6,6.9,9.4,6.7
			c3.8,4,7,4,8.5,3.7c4.5,3.3,9,5.5,9.2,5.6c0.1,0,0.2,0.1,0.2,0.1c0,0,0,0,0,0c0,0,0,0,0,0c0,0,0,0,0,0c2.4,0.6,4.3,4.2,4.9,5.5
			c0.2,0.6,0.8,0.9,1.4,0.9c0.2,0,0.4,0,0.5-0.1c0.8-0.3,1.1-1.2,0.8-1.9C49.9,95.9,48.1,91.5,44.7,89.7z"/>
		<path class="st0" d="M92,70.1c-3.5,0.5-8.5-1.2-10.9-2.2c0.5-0.9,1.2-2,2.1-3.1c1.5,0.4,4.3,1.2,6.6,1.2c0.5,0,1,0,1.5-0.1
			c0.8-0.2,1.3-0.9,1.1-1.7c-0.2-0.8-0.9-1.3-1.7-1.1c-1.4,0.3-4.4-0.3-6.4-0.9l0.3-5.1c0-0.8-0.6-1.5-1.4-1.5
			c-0.8-0.1-1.5,0.6-1.5,1.4l-0.3,5.7c-1.5,1.8-2.7,3.7-3.2,4.8c-3.1,0.5-7.3,0.6-10.2,0.7c1-1.5,1.7-3.2,2.2-5
			c1.1-0.7,7.1-4.7,11.1-9.9c0.2-0.2,0.5-0.5,0.7-0.7c1.5,0.9,4.4,2.5,5.7,2.8c0.1,0,0.2,0,0.4,0c0.7,0,1.3-0.4,1.4-1.1
			c0.2-0.8-0.3-1.6-1.1-1.8c-0.6-0.2-2.5-1.1-4.1-2c1-0.8,2-1.5,2.7-1.7c0.8-0.2,1.2-1.1,1-1.8c-0.2-0.8-1.1-1.2-1.8-1
			c-2.7,0.8-6.6,4.9-7,5.3c0,0-0.1,0.1-0.1,0.1c-2.4,3.2-5.8,5.9-8.1,7.6c0.4-3.5,0.3-6.7,0.2-8.1c1.3-1.1,4.4-3.7,6.4-5.1
			c0.1-0.1,0.2-0.2,0.3-0.3c0,0,0.1,0,0.1,0c0.4-0.1,3.8-0.8,5.8-2.2c0.7-0.5,0.8-1.4,0.4-2c-0.5-0.7-1.4-0.8-2-0.4
			c-0.9,0.6-2.4,1.1-3.5,1.5c0.1-1,0.5-2.6,1.1-4.1c0.3-0.7,0-1.6-0.8-1.9c-0.7-0.3-1.6,0-1.9,0.8c-0.7,1.7-1.6,4.4-1.2,6.4
			c-1.7,1.2-4,3-5.5,4.3c-0.4-1.4-0.7-3-0.6-3.8c0.1-0.8-0.4-1.6-1.2-1.7c-0.8-0.1-1.6,0.4-1.7,1.2c-0.4,2.3,0.9,6.2,1.3,7.2
			c0.4,4,0.4,14.6-4.5,17.9c-5.5,3.7-5.7,8.1-6,11.7c-0.1,1.3-0.2,2.6-0.5,3.7c-0.8,2.7-2.6,4-3.7,4.6c-1.7-4-3.3-9-3.1-14.2
			c1.9-1,8.3-4.7,12.1-10.1c0.5-0.7,0.3-1.6-0.4-2c-0.7-0.5-1.6-0.3-2,0.4c-2.6,3.7-6.8,6.6-9.3,8.2c0,0,0-0.1,0-0.1l3.4-7.2
			c1.5-1.2,8-6.6,8.7-15.2c1-0.9,2.8-3.3,3.8-8.4c2-0.6,6.2-2,8.7-4.8c0.5-0.6,0.5-1.5-0.1-2.1c-0.6-0.5-1.5-0.5-2.1,0.1
			c-1.6,1.7-4.2,2.9-6,3.5c0.1-0.7,0.1-1.5,0.2-2.3c0.9-1,2.7-3.4,3.5-7.7c0.1-0.8-0.4-1.6-1.2-1.7c-0.8-0.1-1.6,0.4-1.7,1.2
			c-0.8,4.6-2.9,6.4-2.9,6.4c-0.3,0.3-0.5,0.7-0.6,1.1c-0.1,1.7-0.2,3.1-0.4,4.4c-0.1,0.3-0.2,0.6-0.1,0.9c-0.6,3.3-1.5,5.2-2.2,6.3
			c-0.5-1.3-0.8-3.4-0.9-4.9c0-0.8-0.7-1.5-1.5-1.4c-0.8,0-1.4,0.7-1.4,1.5c0,1,0.3,5.5,2.1,7.6c-0.5,5.6-4,9.8-6.1,11.8
			c-0.5-1.9-1.3-4.6-2-7.2c3-1.8,4-8.2,4.2-10.7c0.5-1.3,3.2-9.2,3.8-13.7c1.4-0.6,4-2.1,6.1-5.8c0.9,0.1,2.3,0.1,3.6,0.1
			c1.1,0,2.2-0.1,2.8-0.2c0.8-0.2,1.3-1,1.1-1.8c-0.2-0.8-1-1.3-1.8-1.1c-0.6,0.2-2.5,0.1-4.3,0.1c0.7-1.7,1.3-3.7,1.7-6.1
			c0.1-0.8-0.4-1.6-1.2-1.7c-0.8-0.1-1.6,0.4-1.7,1.2c-1.4,7.8-4.6,10.9-6.5,12.1L59,20.3c1.2-0.9,3.1-3.1,4.4-7.8
			c0.2-0.8-0.2-1.6-1-1.8c-0.8-0.2-1.6,0.2-1.8,1c-0.9,3.3-2.1,5-2.9,5.9c-0.9-2.2-0.1-6.7,0.6-8.9c0.2-0.8-0.2-1.6-1-1.8
			c-0.8-0.2-1.6,0.2-1.8,1c-0.3,1-2.7,9.1,0.6,12.5l1,6.8c-0.1,2.5-1.4,6.9-2.5,10.1c-2.3-7.8-1.9-18.6-1.9-18.7
			c0-0.8-0.6-1.5-1.4-1.5c-0.8,0-1.5,0.6-1.5,1.4c0,0.3-0.1,4,0.2,8.7l-2.3-0.9c-0.8-0.3-1.6,0.1-1.9,0.9c-0.3,0.8,0.1,1.6,0.9,1.9
			l3.6,1.4c0.5,4,1.3,8.2,2.9,11.4c-0.4,3.5-1.4,6.5-2.2,7.7c-0.3-0.8-0.7-1.6-1.1-2.5c-1.9-3.9-4.7-9.7-5.5-23.1
			c1-2.1,6.3-12.8,8.3-18.5c0.3-0.8-0.1-1.6-0.9-1.9c-0.8-0.3-1.6,0.1-1.9,0.9c-0.7,2-1.9,4.7-3.1,7.5c-0.3-2.6-0.7-6.1-0.8-8.5
			c-0.1-0.8-0.8-1.4-1.6-1.4c-0.8,0.1-1.4,0.8-1.4,1.6c0.1,1,0.8,10.1,1.5,12.4c0,0.1,0.1,0.2,0.2,0.3c-0.9,2-1.8,3.7-2.3,4.9
			c-1.5-2.4-3.5-5.9-4.1-7c2-2.8,2.2-9.4,2.2-11.5c0-0.8-0.7-1.5-1.5-1.5c-0.8,0-1.5,0.7-1.5,1.5c0,2.2-0.2,4.6-0.5,6.5
			c-0.4-2-0.8-4.2-1.1-5.8c-0.1-0.8-0.9-1.3-1.7-1.2c-0.8,0.1-1.3,0.9-1.2,1.7c0.3,1.6,1.7,9.6,2.7,11.6c0.9,1.9,5.5,9.5,5.7,9.8
			c0,0,0.1,0.1,0.1,0.1c0.1,0.9,0.1,1.7,0.2,2.6C36,25,31.9,16.9,31.8,16.8c0,0-0.1-0.1-0.1-0.1c0-0.1,0.1-0.3,0.1-0.4
			c-0.2-2.8-2.4-9.8-2.6-10.6c-0.2-0.8-1.1-1.2-1.8-1c-0.8,0.2-1.2,1.1-1,1.8c0.5,1.5,1.5,5.1,2.1,7.7c-2.4-2-4.3-4.4-4.3-4.5
			c-0.5-0.6-1.4-0.7-2.1-0.2c-0.6,0.5-0.7,1.4-0.2,2.1c0.2,0.2,3.8,4.7,7.5,6.9c1.1,2,5.9,10.4,12.6,12.9c0.3,1.9,0.6,3.6,0.9,5.2
			c-2.9-1-7.6-2.6-9.2-3.1c-1.4-2.7-5.3-8-6.4-9.5c-0.6-2.4-4.3-5.7-5.9-7.1c-0.6-0.5-1.5-0.4-2.1,0.2c-0.5,0.6-0.4,1.5,0.2,2.1
			c1.5,1.2,2.9,2.7,3.9,3.8c-1.4-0.2-3-0.6-4-0.8c-0.8-0.2-1.6,0.3-1.8,1.1c-0.2,0.8,0.3,1.6,1.1,1.8c0.8,0.2,4.4,1.1,6.6,1.1
			c1.2,1.5,3.1,4.2,4.5,6.3c-3.3-1.3-6.3-3.8-6.3-3.8c-0.6-0.5-1.5-0.4-2.1,0.2c-0.5,0.6-0.4,1.5,0.2,2.1c0.2,0.2,5.7,4.7,10.9,5.2
			c1.1,0.4,9.2,3.1,11.5,3.9c1.1,3.8,2.3,6.3,3.3,8.4c0.7,1.4,1.2,2.5,1.5,3.6c0.3,1.3,0.7,2.7,1.1,4c-1.3-0.4-3.6-1.7-5.5-3.2
			c-0.6-0.5-1.6-0.4-2.1,0.3c-0.5,0.6-0.4,1.6,0.3,2.1c1.6,1.2,5.3,3.9,8,3.9c0,0,0.1,0,0.1,0c0.4,1.4,0.7,2.6,0.9,3.3l-2.9,6
			c-2.7-4.7-7-8.9-8.9-10.6c0-0.1,0.1-0.2,0.1-0.3c0.3-1.6-0.1-3.7-0.7-5.7c0.7-0.7,2.5-2.8,3.1-4.8c0.2-0.8-0.2-1.6-1-1.8
			c-0.8-0.2-1.6,0.2-1.8,1c-0.2,0.8-0.8,1.7-1.4,2.5c-0.4-1-0.8-1.8-1.1-2.3l1-4.8c0.2-0.8-0.3-1.6-1.1-1.7
			c-0.8-0.2-1.6,0.3-1.7,1.1l-0.5,2.6c-0.9-1.2-2.1-2.9-3-4.4c-0.4-0.7-1.3-0.9-2-0.5c-0.7,0.4-0.9,1.3-0.5,2
			c0.8,1.3,3.4,5.4,5.2,6.8c1.2,2.3,2.8,6.2,2.9,8.5c-2.7-1.5-7.7-5.2-9.2-7.9c-0.5-0.9-1.3-2-2.1-3.1c1.6-4.3-0.9-8.8-1-9
			c-0.4-0.7-1.3-0.9-2-0.5c-0.7,0.4-0.9,1.3-0.5,2c0,0,1.2,2.1,1.2,4.4c-1.6-2-2.9-3.6-3-3.7c-0.5-0.6-1.5-0.7-2.1-0.2
			c-0.6,0.5-0.7,1.4-0.2,2.1c0.1,0.1,5.2,6.2,7.2,9.5c2.1,3.6,9,8.6,11.8,9.7c1.3,1.1,8.3,7.6,10.4,13.5c-0.3,2.8,0,5.5,0.5,8.1
			c-5.4-2.7-9.2-10.1-10.3-12.4c0.4-1,0.5-2.8-0.2-6.3c-0.2-0.8-1-1.3-1.7-1.1c-0.8,0.2-1.3,0.9-1.1,1.7c0.3,1.4,0.5,2.9,0.5,3.8
			c-2.6-1.1-3.2-5-3.2-5.1c-0.1-0.8-0.9-1.4-1.7-1.2c-0.8,0.1-1.4,0.9-1.2,1.7c0,0.3,1,6.6,6.1,7.7c0.2,0.4,0.4,0.9,0.7,1.5
			c-1.7,0.2-7.2,0.2-10.1-5.4c-1.8-3.5-2.9-5.4-3.6-6.4c0-1.7-0.8-5.2-4-12.7c-0.3-0.7-1.2-1.1-1.9-0.8c-0.7,0.3-1.1,1.2-0.8,1.9
			c0.8,1.8,1.4,3.4,1.9,4.7c-1.9-1.1-3.9-2.7-4.7-3.4c-0.6-0.5-1.5-0.5-2.1,0.1c-0.5,0.6-0.5,1.5,0.1,2.1c0.5,0.4,4.4,4,7.9,5
			c0.3,1.2,0.5,2,0.6,2.6c-1.4,0-3.3-0.7-4.4-1.3c-0.7-0.4-1.6-0.1-2,0.6c-0.4,0.7-0.1,1.6,0.6,2c0.4,0.2,3.2,1.7,5.9,1.7
			c0.3,0,0.6,0,0.9-0.1c0.4,0.7,1.3,2.2,3,5.5c2.9,5.6,8.1,7,11.7,7c0.8,0,1.6-0.1,2.2-0.2c0.1,0,0.3-0.1,0.4-0.2
			c2.4,3.9,6.4,9,11.6,10.6c2.3,7.7,6.4,13.4,6.7,13.7c0.3,0.4,0.7,0.6,1.2,0.6c0.3,0,0.6-0.1,0.9-0.3c0.6-0.5,0.8-1.4,0.3-2
			c0-0.1-1.5-2.1-3.2-5.3c1.5-0.8,4.2-2.7,5.2-6.5c0.4-1.4,0.5-2.9,0.6-4.3c0.2-3.3,0.4-6.4,4.3-9.2c1.9,0,9.2-0.1,14-0.9
			c1.6,0.7,7.2,3,11.9,3c0.6,0,1.1,0,1.7-0.1c0.8-0.1,1.4-0.8,1.2-1.7C93.5,70.6,92.8,70,92,70.1z"/>
		<path class="st0" d="M72.8,76.7c0.7-0.4,0.9-1.3,0.5-2c-0.4-0.7-1.3-0.9-2-0.5c-1.8,1.1-3.3,3.2-4.4,5.6c-0.2-1.2-0.2-2.5-0.2-3.4
			c0-0.8-0.6-1.5-1.4-1.5c0,0,0,0-0.1,0c-0.8,0-1.4,0.6-1.5,1.4c0,0.6-0.2,5.5,1.5,8c-1.6,5.5-2,11.2-2.1,12.3
			c-0.1,0.8,0.6,1.5,1.4,1.6c0,0,0.1,0,0.1,0c0.8,0,1.4-0.6,1.5-1.4C66.5,92.1,68.2,79.5,72.8,76.7z"/>
		<path class="st0" d="M88,76.4c-2.2,1.3-5.5,2.8-7.8,3.8c0.6-1.7,1.2-3.2,1.5-3.5c0.7-0.4,0.9-1.4,0.4-2c-0.4-0.7-1.4-0.9-2-0.4
			c-1,0.7-2.2,3.4-3.7,8.2c-4.1,3.4-7.3,13.2-7.6,14.3c-0.2,0.8,0.2,1.6,1,1.8c0.1,0,0.3,0.1,0.4,0.1c0.6,0,1.2-0.4,1.4-1
			c0.9-2.9,4-11,7-13.2c0.2-0.2,0.4-0.4,0.5-0.7c1.3-0.5,7-2.9,10.5-4.9c0.7-0.4,0.9-1.3,0.5-2C89.6,76.2,88.7,76,88,76.4z"/>
	</g>
</g>
</svg>
