<?xml version="1.0" encoding="utf-8"?>
<!-- Generator: Adobe Illustrator 20.0.0, SVG Export Plug-In . SVG Version: 6.00 Build 0)  -->
<svg version="1.1" id="Layer_1" xmlns="http://www.w3.org/2000/svg" xmlns:xlink="http://www.w3.org/1999/xlink" x="0px" y="0px"
	 width="100px" height="100px" viewBox="0 0 100 100" style="enable-background:new 0 0 100 100;" xml:space="preserve">
<style type="text/css">
	.st0{fill:#E5B181;}
</style>
<path class="st0" d="M97.9,45C97.9,45,97.8,45,97.9,45c-0.9,0-2.2-0.7-3.4-1.4c0,0,0.1,0,0.1-0.1c0.3-0.2,0.7-0.5,1-0.8
	c0.3-0.2,0.5-0.4,0.8-0.7c0.2-0.2,0.4-0.4,0.5-0.5c0.3-0.3,0.4-0.5,0.4-0.5c0.7-0.7,0.7-1.8,0-2.4s-1.9-0.7-2.5,0l-0.1,0.1
	c0,0-0.1,0.1-0.3,0.3c-0.1,0.1-0.2,0.2-0.4,0.4c-0.1,0.2-0.3,0.3-0.5,0.4c-0.2,0.2-0.4,0.3-0.7,0.5c-0.2,0.1-0.5,0.3-0.9,0.4
	c-0.3,0.1-0.7,0.3-1,0.4c-0.3,0.1-0.7,0.2-1,0.3c-0.3,0.1-0.7,0.1-1.1,0.1c-0.3,0-0.7,0-1.1,0c-0.3,0-0.7,0-1-0.1
	c-0.3,0-0.7-0.1-0.9-0.1c-0.5-0.1-1-0.2-1.3-0.3h-0.1c0.1-0.5,0.2-1.1,0.4-1.5c0.8-2.4,1.9-4.1,2.9-5.2c0.5-0.5,0.9-1,1.2-1.2
	c0.3-0.2,0.4-0.4,0.4-0.4l0,0l0.1-0.1c0.7-0.7,0.7-1.9,0-2.5c-0.7-0.7-1.9-0.7-2.5,0c0,0-0.2,0.2-0.5,0.5c-0.3,0.3-0.8,0.9-1.3,1.5
	c-0.5,0.7-1.2,1.5-1.9,2.6c-0.7,1.1-1.2,2.3-1.8,3.7c-0.5,1.4-0.9,3-1.3,4.5c-0.4,1.5-0.9,3.1-1.4,4.6c-0.1,0.3-0.3,0.8-0.4,1.1
	L78,49.4l-0.3,0.5c-0.2,0.3-0.3,0.5-0.5,0.9c-0.2,0.3-0.4,0.7-0.7,1c-1,1.3-2.2,2.5-3.4,3.7c-1.3,1.2-2.6,2.4-4.1,3.5
	c-0.1,0.1-0.1,0.1-0.2,0.2c-0.2-0.2-0.4-0.4-0.7-0.7c-0.8-0.9-1.6-2-2.4-3.2c-0.4-0.7-0.8-1.2-1.1-1.9c-0.1-0.3-0.3-0.5-0.4-0.9
	s-0.2-0.5-0.3-0.8c-0.1-0.2-0.1-0.4-0.2-0.7c-0.1-0.2-0.1-0.3-0.1-0.5c-0.1-0.3-0.1-0.4-0.1-0.4L63.3,50c-0.2-0.8-0.9-1.4-1.8-1.4
	c-1,0-1.8,0.8-1.8,1.8c0,0,0,0.2,0,0.7c0,0.2,0,0.4,0,0.8s0.1,0.5,0.1,1c0,0.3,0.1,0.7,0.2,1.1c0,0.1,0.1,0.2,0.1,0.4
	c-1.9-0.5-2.9-1.5-2.9-1.5c-0.5-0.5-1.4-0.5-2,0c-0.5,0.5-0.5,1.4,0,2c0.1,0.1,2.2,2.2,5.9,2.7v0.1c0.7,1.6,1.4,3.2,2.1,4.3
	c0.2,0.4,0.4,0.8,0.7,1c-1.1,0.8-2.2,1.5-3.2,2.3c-1.3,0.9-2.5,1.6-3.7,2.4c-2.3,1.4-4.3,2.6-5.6,3.4c-0.3,0.1-0.5,0.3-0.8,0.4
	c-0.2-0.3-0.4-0.5-0.7-0.9c-1.2-1.4-2.5-2.9-4-4.1l0.3-1.2c0.2-0.9,0.5-1.8,0.8-2.6c0.2-0.9,0.4-1.8,0.7-2.6
	c0.2-0.9,0.3-1.9,0.4-2.7c0.1-1,0.2-1.9,0.2-2.9c0-0.1,0-0.1,0-0.2c0.2-0.1,0.4-0.2,0.5-0.3c0,0,2-1.6,4.9-4.1
	c1.5-1.2,3.2-2.6,5-4.2c0.9-0.8,1.9-1.5,2.9-2.3l0.8-0.7c0.2-0.2,0.4-0.4,0.8-0.7c0.5-0.4,1-0.9,1.5-1.4c1.9-1.9,3.6-3.8,5.3-5.8
	c0.1-0.1,0.2-0.2,0.2-0.3c1.9-0.2,7.4-1.2,9.9-3.2c0.7-0.4,0.8-1.4,0.2-2c-0.4-0.7-1.4-0.8-2-0.2c-1.2,0.9-3.6,1.6-5.7,2.1
	c0.1-0.2,0.2-0.4,0.4-0.5c0.3-0.4,0.5-0.9,0.8-1.3c0.5-0.9,1-1.6,1.3-2.4c0.3-0.8,0.7-1.4,0.9-2c0.4-1.1,0.7-1.8,0.7-1.8
	c0.3-0.9,0-1.9-0.9-2.3s-2,0-2.4,0.9v0.1c0,0-0.2,0.5-0.7,1.5c-0.2,0.4-0.5,1-0.9,1.6c-0.3,0.7-0.8,1.3-1.3,2.1
	c-0.2,0.3-0.5,0.8-0.8,1.2c-0.3,0.4-0.5,0.8-0.9,1.2s-0.7,0.9-1,1.2c-0.3,0.4-0.8,0.9-1.1,1.3c-1.4,1.6-3.1,3.2-4.7,4.7
	c0,0,0,0,0-0.1c-0.1-0.2-0.2-0.4-0.3-0.7s-0.2-0.5-0.3-0.9s-0.3-0.7-0.4-1.1c-0.1-0.4-0.2-0.8-0.3-1.2c-0.1-0.4-0.2-0.9-0.3-1.3
	c-0.1-0.4-0.2-0.9-0.2-1.4c-0.1-1-0.2-1.9-0.2-2.7s0-1.8,0.1-2.4c0.1-0.8,0.2-1.3,0.2-1.6c0-0.2,0.1-0.3,0.1-0.4c0-0.1,0-0.1,0-0.1
	c0.2-0.9-0.2-1.9-1.1-2.2c-0.9-0.3-2,0.1-2.3,1.1l0,0c0,0,0,0.1-0.1,0.2c0,0.1-0.1,0.3-0.2,0.5c-0.1,0.4-0.3,1.2-0.4,2
	c-0.1,0.3-0.1,0.8-0.2,1.2c-1-0.5-2.3-1.4-3.5-2.5c-0.5-0.5-1.5-0.4-2,0.1c-0.5,0.5-0.4,1.5,0.1,2c1,0.9,3.1,2.6,5,3.3
	c0,0.7,0,1.3,0,2c0,0.5,0.1,1.1,0.1,1.6c0,0.5,0.1,1.1,0.2,1.6c0.1,0.5,0.2,1,0.3,1.5c0.1,0.4,0.2,0.9,0.3,1.3
	c0.1,0.4,0.2,0.8,0.3,1.1c0.1,0.3,0.2,0.7,0.3,0.9c0.2,0.4,0.3,0.8,0.3,0.8c0,0.1,0.1,0.1,0.1,0.2c0.1,0.1,0.1,0.2,0.2,0.3
	c-0.7,0.5-1.4,1-2.1,1.4c-2,1.4-3.8,2.6-5.4,3.7c-1.1,0.8-2.1,1.4-2.9,2.1c-0.1-0.5-0.3-1-0.4-1.5l-0.1-0.3l0,0L47.3,45l0,0l0,0
	v-0.1l-0.1-0.1l-0.3-0.5l-0.1-0.3c0-0.1-0.1-0.2-0.2-0.3l-0.4-0.8c-0.3-0.5-0.7-0.9-1-1.3l-0.4-0.5l-0.4-0.5c-0.7-0.7-1.3-1.3-2-2
	c-0.3-0.3-0.8-0.7-1.1-1c0.2-0.4,0.4-0.9,0.5-1.3c0.1-0.3,0.2-0.8,0.3-1.1c0.1-0.4,0.2-0.9,0.2-1.3s0.1-0.9,0.1-1.4c0-0.4,0-1,0-1.4
	c-0.1-1-0.3-2-0.5-3c-0.2-1-0.5-2-0.9-3c-0.3-1-0.7-1.9-0.9-2.7c-0.1-0.4-0.2-0.9-0.3-1.4v-0.4c2.4-0.2,6.5-1,9.3-4.2
	c0.7-0.8,0.7-1.9-0.1-2.5c-0.8-0.7-1.9-0.5-2.5,0.1c-1.9,2.1-4.7,2.7-6.6,3c0.1-0.8,0.2-1.5,0.4-2.3c0.2-0.8,0.3-1.5,0.5-2.3
	c0.3-1.4,0.8-2.5,1.1-3.4C42,8.2,42.1,8,42.3,7.8c0.1-0.2,0.1-0.3,0.1-0.3l0,0c0.3-0.9-0.1-2-1-2.3c-0.9-0.3-2,0.1-2.3,1
	c0,0,0,0.1-0.1,0.3c-0.1,0.2-0.2,0.5-0.3,1c-0.3,0.9-0.8,2.1-1.2,3.6c-0.2,0.8-0.4,1.5-0.7,2.5c-0.2,0.9-0.3,1.9-0.5,2.9
	c-0.1,1-0.2,2.1-0.1,3.2c0,0.3,0,0.5,0.1,0.9c0,0.3,0.1,0.5,0.1,0.9c0.1,0.4,0.2,1,0.3,1.5c0.3,1.1,0.5,2.1,0.9,3
	c0.3,1,0.5,1.9,0.8,2.6c0.2,0.9,0.3,1.6,0.3,2.4c0,0.3,0,0.8,0,1.1c0,0.3-0.1,0.7-0.1,1c-0.1,0.3-0.1,0.5-0.2,0.9
	c-0.1,0.2-0.2,0.5-0.2,0.8c0,0.1,0,0.1-0.1,0.2c-0.7-0.4-1.3-0.9-2.1-1.4c-0.8-0.4-1.5-1-2.2-1.4c-0.5-0.3-1.1-0.7-1.6-1
	c-0.1-0.2-0.1-0.4-0.2-0.7l-0.7-1.1c-0.3-0.9-0.7-1.9-1-2.7c-0.7-1.9-1.4-3.6-2.4-5.4l0,0c-0.4-0.9-1.5-1.2-2.4-0.8
	c-0.9,0.4-1.2,1.5-0.8,2.4l0,0c0.9,1.5,1.5,3.2,2.2,4.9c0.3,0.9,0.7,1.8,0.9,2.6l0.2,0.7c-3,0.3-8.8,0.5-13.3-1.2
	c-0.9-0.3-2,0.1-2.3,1s0.1,2,1,2.3c3.3,1.3,7.1,1.8,10.3,1.8c2.7,0,4.9-0.2,6.1-0.4c0.5,0.3,1,0.8,1.5,1.1c0.7,0.4,1.3,1,2,1.5
	c0.7,0.5,1.3,1,2,1.5c0.7,0.5,1.2,1.1,1.9,1.6c0.7,0.5,1.2,1.1,1.8,1.6c0.5,0.5,1.1,1.2,1.5,1.8l0.3,0.4l0.3,0.4
	c0.2,0.3,0.4,0.7,0.5,0.9c0.1,0.1,0.1,0.2,0.2,0.3c0,0.1,0.1,0.1,0.1,0.2l0.1,0.3l0.2,0.5l0.1,0.1v0.1l0,0l0,0
	c0-0.1-0.1-0.2-0.1-0.2l0,0l0.1,0.2c0.2,0.7,0.3,1.4,0.4,2.2c0,0.3,0.1,0.8,0.1,1.1s0,0.8,0,1.1c0,0.8-0.1,1.4-0.1,2.2
	c-0.1,0.8-0.2,1.5-0.4,2.2c-0.1,0.8-0.3,1.5-0.5,2.2c-0.2,0.8-0.4,1.5-0.8,2.2c-0.1,0.4-0.3,0.9-0.5,1.3c-2.9-1.8-5.8-3.2-8.7-4.4
	c0-0.1,0-0.2,0-0.3c0-0.3-0.1-0.9-0.2-1.3c-0.1-0.5-0.2-1.1-0.3-1.8c-0.1-0.7-0.3-1.3-0.5-2.1s-0.4-1.5-0.8-2.4
	c-0.1-0.4-0.3-0.9-0.7-1.3c-0.1-0.2-0.3-0.5-0.5-0.8c-0.1-0.1-0.2-0.3-0.4-0.4l-0.2-0.2l0,0l-0.2-0.2l0,0l0,0h-0.1
	c-0.2-0.1-0.3-0.2-0.7-0.4c-0.2-0.1-0.3-0.1-0.5-0.2l-0.2-0.1h-0.2l-0.8-0.2l-0.7,0.2c-0.9-0.2-1.8-0.3-2.5-0.4
	c-0.8-0.1-1.5-0.2-2.3-0.3c-0.8-0.1-1.4-0.2-2.1-0.4c-0.7-0.1-1.2-0.2-1.8-0.4c-0.3-0.1-0.5-0.1-0.8-0.2c-0.2-0.1-0.4-0.1-0.7-0.2
	s-0.3-0.1-0.5-0.2c-0.1-0.1-0.2-0.1-0.3-0.2c-0.1-0.1-0.2-0.1-0.2-0.2c-0.1,0-0.1-0.1-0.1-0.1c-0.1-0.1-0.1-0.1-0.1-0.1l-0.4-0.3
	c-0.7-0.4-1.6-0.4-2.2,0.1c-0.8,0.7-0.8,1.8-0.1,2.5c0,0,0.1,0.1,0.3,0.3c0.2,0.2,0.4,0.5,0.9,0.8c0.2,0.1,0.4,0.3,0.7,0.4
	c0.2,0.1,0.4,0.3,0.8,0.4c0.1,0,0.1,0.1,0.2,0.1c-2,0.5-5.3,0.5-10.2-1.3c-0.9-0.3-2,0.1-2.3,1.1C0.5,47.6,1,48.7,2,49
	c3.5,1.3,6.5,1.8,8.8,1.8c3.7,0,6-1.2,7.2-2.3c0.4,0.1,0.9,0.2,1.3,0.3c0.8,0.1,1.5,0.3,2.4,0.4c0.8,0.1,1.5,0.3,2.3,0.5l0.5,0.1
	l0.1,0.2h0.1l0,0l0,0c0,0,0.1,0,0.2,0.1c0,0.1,0.1,0.1,0.1,0.2c0.1,0.2,0.2,0.4,0.3,0.8c0.2,0.5,0.4,1.2,0.5,1.9
	c0.1,0.7,0.3,1.2,0.4,1.9c0,0.1,0,0.2,0.1,0.3c-0.1,0-0.2-0.1-0.3-0.1c-1.9-0.4-3.5-0.5-5-0.4c-1.5,0-2.9,0.2-4.1,0.4
	c-1.2,0.2-2.2,0.4-3.1,0.7c-0.9,0.2-1.4,0.4-1.9,0.5c-0.4,0.1-0.7,0.2-0.7,0.2c-0.9,0.3-1.4,1.3-1.1,2.2c0.3,1,1.3,1.4,2.2,1.2h0.1
	c0,0,0.2-0.1,0.5-0.2s1-0.2,1.8-0.4c0.8-0.1,1.6-0.3,2.7-0.4s2.2-0.2,3.5-0.1c1.2,0.1,2.6,0.2,3.8,0.7c0.3,0.1,0.7,0.2,0.9,0.3
	l0.4,0.2l0.2,0.1l0.1,0.1l0.1,0.1c0.3,0.2,0.8,0.4,1.1,0.7c0.3,0.2,0.8,0.4,1.1,0.7c0.9,0.4,1.8,1,2.6,1.5c0,0.1-0.2,0.1-0.4,0.2
	c-0.3,0.1-0.8,0.2-1.1,0.3c-1.5,0.4-3.1,0.7-4.3,0.8c-0.5,0.1-1.1,0.1-1.4,0.1c-0.3,0-0.5,0-0.5,0h-0.1c-0.9,0.1-1.6,0.8-1.6,1.8
	c0,1,0.8,1.8,1.8,1.9c0,0,0.2,0,0.7,0s1,0,1.6,0s1.4,0,2.2-0.1c-0.7,1.8-1.9,3.6-2.4,4.5c-0.4,0.7-0.2,1.5,0.4,2
	c0.2,0.1,0.5,0.2,0.8,0.2c0.4,0,0.9-0.2,1.2-0.7c0.2-0.4,2.4-3.7,3.1-6.5c0.3,0,0.7-0.1,0.9-0.2c0.4-0.1,0.9-0.2,1.3-0.3
	c0.4-0.1,0.9-0.3,1.3-0.4c0.4-0.1,0.8-0.3,1.2-0.5c0.1,0,0.1-0.1,0.2-0.1c0.5,0.4,1.1,0.8,1.6,1.2c0.4,0.3,0.9,0.8,1.3,1.1
	c0.3,0.5,0.8,1,1.3,1.2c1.5,1.5,2.9,3.2,4,4.9c0.9,1.3,1.5,2.6,2.1,3.8c0.5,1.3,1,2.5,1.2,3.7c0.3,1.2,0.4,2.3,0.7,3.3
	c0.1,0.4,0.1,1,0.1,1.3c0,0.4,0,0.8,0.1,1.2c0.1,0.7,0,1.3,0,1.6s0,0.5,0,0.5v0.2c0,0.2,0,0.3,0,0.5c0.3,2.5,2.7,4.4,5.3,4.1
	c2.5-0.3,4.4-2.7,4.1-5.3c0,0,0-0.2-0.1-0.8c-0.1-0.4-0.1-1.2-0.3-2.1c-0.1-0.4-0.2-1-0.3-1.5c-0.1-0.5-0.2-1.1-0.4-1.8
	c-0.3-1.2-0.8-2.6-1.3-4.1c-0.1-0.4-0.3-0.8-0.5-1.2c0.3-0.2,0.7-0.5,1.2-1c1.3-1.1,3.1-2.5,5.3-4.4c1.1-0.9,2.2-1.9,3.4-3
	c1.2-1.1,2.5-2.2,3.8-3.4c2.6-2.4,5.4-4.9,8-7.8c0.2-0.3,0.5-0.5,0.8-0.9c0.2,0.1,0.4,0.3,0.8,0.4c0.3,0.2,0.7,0.3,1,0.4
	c0.7,0.3,1.4,0.5,2.3,0.8c0.4,0.1,0.8,0.2,1.2,0.2c0.4,0,0.9,0.1,1.2,0c0.2,0,0.4,0,0.5,0c0.2,0,0.4-0.1,0.5-0.1
	c0.3-0.1,0.8-0.1,1-0.2c0.3-0.1,0.5-0.2,0.9-0.3c0.2-0.1,0.4-0.2,0.5-0.3c0.3-0.2,0.5-0.3,0.5-0.3c0.8-0.4,1.1-1.4,0.8-2.2
	c-0.3-0.9-1.4-1.3-2.3-1l-0.3,0.1c0,0-0.1,0-0.3,0.1c-0.1,0-0.2,0.1-0.3,0.1c-0.1,0-0.3,0.1-0.4,0.1c-0.2,0.1-0.3,0.1-0.5,0.1
	c-0.1,0-0.2,0-0.3,0c-0.1,0-0.2,0-0.3,0c-0.2,0-0.4,0-0.7-0.1c-0.2,0-0.4-0.1-0.8-0.2c-0.5-0.2-1-0.3-1.4-0.7
	c-0.2-0.1-0.4-0.2-0.7-0.4c-0.1,0-0.1-0.1-0.2-0.1c0.1-0.1,0.2-0.3,0.3-0.4c0.3-0.4,0.5-0.9,0.8-1.3c0.2-0.4,0.5-1,0.7-1.5l0.2-0.7
	l0.2-0.7c0.1-0.4,0.2-0.9,0.3-1.3c0.3-1.3,0.5-2.5,0.9-3.7c0.4,0.1,0.9,0.2,1.4,0.3c0.3,0.1,0.8,0.1,1.2,0.1c0.4,0,0.9,0,1.3,0
	s1,0,1.4-0.1c0.5-0.1,1-0.1,1.5-0.3c0.3-0.1,0.7-0.1,0.9-0.2c1.5,1.1,4.2,2.7,6.3,2.7h0.1c0.8,0,1.4-0.7,1.4-1.4
	C99.3,45.5,98.7,45,97.9,45z"/>
</svg>
