<?xml version="1.0" encoding="utf-8"?>
<!-- Generator: Adobe Illustrator 20.0.0, SVG Export Plug-In . SVG Version: 6.00 Build 0)  -->
<svg version="1.1" id="Layer_1" xmlns="http://www.w3.org/2000/svg" xmlns:xlink="http://www.w3.org/1999/xlink" x="0px" y="0px"
	 width="100px" height="100px" viewBox="0 0 100 100" style="enable-background:new 0 0 100 100;" xml:space="preserve">
<style type="text/css">
	.st0{fill:#F4B9B2;}
</style>
<g>
	<path class="st0" d="M68.5,72.3c-4.1-2-6.3,1.5-8,4.9c-1.3,2.5-2.4,1.7-3.8,0.1c-4.2-4.5-3-7.5,4-10.4c3.1-1.3,5.4-3.3,5.7-7.2
		c0.2-2.8-1.2-4.9-3.5-5.7c-3.4-1.1-5.1,2-7.1,4.1c-1.9,1.9-2.1,6.6-5.1,5.9c-2.6-0.6-1.7-5-3-7.5c-1.9-3.7-1.1-5.1,2.9-3.4
		c2,0.8,4.2,0.7,5.4-1.6c1.2-2.3,1.2-4.8-0.1-7.1c-0.9-1.5-2-2.8-3-4.3c-3.9-1.4-5.8,2-7.6,4.7c-1.6-1.2-2.1-2.4-2.1-3.8
		c0-3.3-0.6-7.5,2.6-9c3.2-1.5,3.9,3,5.6,5c0.7,0.8,1.3,1.7,2,2.6c2,0,4.1,0.8,5.9-0.8c2.5-2.3,3.3-5.3,2.1-8.4
		c-1.5-3.8-4.5-4-7.7-2.6c-1.8,0.8-4.2,2.4-5.3-0.6c-1.2-3.1,1.7-4.1,3.4-5.5c2.3-1.9,4.6-0.3,7,0.2c2.9,0.6,5.2-0.6,6.8-3.3
		c1-1.8,1.6-3.9,0.2-5.6c-1.9-2.4-4.5-1.5-6.8-0.9c-1,0.3-1.9,0.8-2.8,1.3c-0.4,0.2-0.9,0.4-1.3,0.5c0.1-0.5,0.2-1.1,0.2-1.6
		c0.5-1.2,0.9-2.5,1.4-3.7c0.8-2.2,2.4-4.8-0.7-6.3c-2.3-1.1-4.3,0.1-5.7,2.5c-1.8,3-2.4,6.3-1.5,9.7c0.8,3,0.6,5.1-2.7,6.4
		c0-2,0.1-3.6,0-5.2c-0.1-2.5-0.2-5.7-2.6-6.3c-3.1-0.7-5.9,1.6-7.8,4.3c-1.5,2.2-1.4,5.1,0.7,6.7c5.9,4.4,4.8,10.2,3.4,16.4
		c-2.3-0.8-2.5-3.2-3.9-4.6c-1.9-2-3.9-3.4-6.6-2.3c-1.8,0.8-3.2,2.2-3.1,4.6c0.2,3.2,2.3,4.6,4.7,5.5c1,0.4,1.9,0.9,2.9,1
		c4.5,0.2,6.2,3.6,7.5,7.7c0.4,1.2,1.5,2.4,0.1,3.5c-0.9,0.6-2,0.1-2.8-0.6c-2.1-1.7-4.1-3.8-6.5-5.1c-3.2-1.9-5.7-0.1-6.8,3.3
		c-1,3.2,0.1,5.7,3.4,6.6c2.6,0.7,5.2,0.3,7.9,0.2c3.8-0.1,7.4,0.6,9.2,5.1c0.5,1.2,1,2.7-0.2,3.7c-0.9,0.8-1.9-0.2-2.7-0.8
		c-2-1.2-3.9-2.6-6-3.4c-3-1.2-5.7-0.1-7.8,2.3c-1.4,1.6-1.8,3.5-0.6,5.5c1.8,3.1,4.3,3.7,7.5,2.8c2-0.6,4-1,6-1.1
		c2.7-0.2,5.4,0.4,7.4,2.6c1.3,1.4,3.2,3.1,2.2,5.1c-1,2.1-3.2,1.1-5,0.2c-1.5-0.8-2.9-1.8-4.4-2.3c-3.6-1.1-6.3,0.8-8.5,3.8
		c-1.4,1.9-1.8,4.2-0.2,6.2c2.3,3,5.2,3.1,8.3,1.6c1.3-0.6,2.6-1.3,3.9-2.1c5.4-3.4,9.6-2.4,13,3.5c1.5,2.6,3.6,4.9,5.8,6.9
		c1.6,1.6,3.7,2.8,6.1,0.3c-3.4-3.7-8.3-5.6-10-10.8c0.6-0.3,1-0.8,1.2-0.7c4.7,1.8,7.3-0.5,9-5.2C71.6,76.7,71.1,73.6,68.5,72.3z"
		/>
	<circle class="st0" cx="21.6" cy="21.5" r="3.1"/>
	<circle class="st0" cx="14.2" cy="33.8" r="2.9"/>
	<circle class="st0" cx="9.8" cy="11.1" r="4.4"/>
	<circle class="st0" cx="91.5" cy="64.6" r="3.1"/>
	<circle class="st0" cx="84.1" cy="76.9" r="2.9"/>
	<circle class="st0" cx="79.7" cy="54.1" r="4.4"/>
</g>
</svg>
