<?xml version="1.0" encoding="utf-8"?>
<!-- Generator: Adobe Illustrator 20.0.0, SVG Export Plug-In . SVG Version: 6.00 Build 0)  -->
<svg version="1.1" id="Layer_1" xmlns="http://www.w3.org/2000/svg" xmlns:xlink="http://www.w3.org/1999/xlink" x="0px" y="0px"
	 width="100px" height="100px" viewBox="0 0 100 100" style="enable-background:new 0 0 100 100;" xml:space="preserve">
<style type="text/css">
	.st0{fill:#DAEDBD;}
</style>
<g>
	<g>
		<path class="st0" d="M0.7,33.3c0-4.1,2.1-8.2,4.8-10.9S12.3,18,16.4,18c4.2,0,7.7,2.1,10.5,4.8c2.7,2.7,5.2,6.3,5.2,10.5
			c0,4.2-1.7,8.5-4.4,11.3c-2.7,2.7-7.1,3-11.3,3c-4.2,0-8.5-0.4-11.2-3.1C2.5,41.8,0.7,37.4,0.7,33.3z"/>
	</g>
	<g>
		<path class="st0" d="M81.4,48.5c0-2.4,1.6-4.3,3.2-5.9c1.6-1.6,3.5-3.3,5.9-3.3c2.4,0,4.5,1.5,6.1,3.1c1.6,1.6,2.6,3.7,2.6,6.1
			c0,2.4-1.1,4.5-2.7,6.1c-1.6,1.6-3.7,2.4-6.1,2.4s-4.8-0.5-6.4-2C82.6,53.3,81.4,50.9,81.4,48.5z"/>
	</g>
	<g>
		<path class="st0" d="M37.8,16.1c0-2.9,1.5-5.8,3.4-7.7C43.2,6.4,46,5.2,49,5.2c2.9,0,5.5,1.5,7.4,3.4c1.9,1.9,3.7,4.5,3.7,7.4
			c0,2.9-1.2,6.1-3.1,8c-1.9,1.9-5,2.1-8,2.1c-2.9,0-6-0.3-7.9-2.2C39.1,22.1,37.8,19,37.8,16.1z"/>
	</g>
	<g>
		<path class="st0" d="M27.7,51.7c0-2.4,1.2-4.8,2.8-6.4c1.6-1.6,4-2.6,6.4-2.6c2.4,0,4.5,1.2,6.1,2.8c1.6,1.6,3,3.7,3,6.1
			c0,2.4-1,5-2.6,6.6c-1.6,1.6-4.2,1.8-6.6,1.8c-2.4,0-5-0.2-6.6-1.8C28.8,56.6,27.7,54.1,27.7,51.7z"/>
	</g>
	<g>
		<path class="st0" d="M52.2,55.6c0-3.2,1.6-6.4,3.7-8.5c2.1-2.1,5.3-3.4,8.5-3.4c3.2,0,6,1.6,8.1,3.8c2.1,2.1,4,4.9,4,8.1
			c0,3.2-1.3,6.6-3.4,8.7c-2.1,2.1-5.5,2.3-8.7,2.3c-3.2,0-6.6-0.3-8.7-2.4C53.6,62.2,52.2,58.8,52.2,55.6z"/>
	</g>
	<g>
		<path class="st0" d="M52.1,32.2c0-2,1-4,2.4-5.4c1.3-1.3,3.3-2.2,5.4-2.2c2,0,3.8,1,5.2,2.4c1.3,1.3,2.6,3.1,2.6,5.2
			c0,2-0.8,4.2-2.2,5.6c-1.3,1.3-3.5,1.5-5.6,1.5c-2,0-4.2-0.2-5.5-1.5C53,36.4,52.1,34.3,52.1,32.2z"/>
	</g>
	<g>
		<path class="st0" d="M16.2,39.9L15,38.5C15,63.1,31.2,83,51.1,83l-1-1.2C31.9,80.5,17.2,62.5,16.2,39.9z"/>
	</g>
	<g>
		<path class="st0" d="M53,87.2l-1.3,1.3c24.5-2.2,42.8-20.1,41.1-39.9l-1.1,1.1C91.9,68,75.3,84.1,53,87.2z"/>
	</g>
	<g>
		<path class="st0" d="M61,29.3l-0.8,1.2c0.7,7.3-3.9,14.2-11.3,17.1l-1.2,1.8C57.2,47.1,63.2,38.1,61,29.3z"/>
	</g>
	<g>
		<path class="st0" d="M62.6,59.1l-0.7,1.3c1.1,7.2-3.1,14.4-10.2,17.7L50.6,80C59.9,77.1,65.3,67.7,62.6,59.1z"/>
	</g>
	<g>
		<path class="st0" d="M49.7,66.1l-1.1-0.8c-6.5,0.3-12.5-4.1-14.8-10.8l-1.6-1.2C34,61.9,41.8,67.6,49.7,66.1z"/>
	</g>
	<g>
		<path class="st0" d="M50.1,78.9c0.4,5,0.2,11.5,2.6,15.9h3.3c-4.1-4.4-3.9-12.3-4.3-18.2c-0.7-10-2.4-19.7-2.5-29.9
			c0-6.3-0.4-12.7-0.2-19.1l-0.8-6.2c-1.6,9.1-0.6,18.6-0.6,27.6C47.7,59.2,49.4,68.9,50.1,78.9z"/>
	</g>
</g>
</svg>
