<?xml version="1.0" encoding="utf-8"?>
<!-- Generator: Adobe Illustrator 20.0.0, SVG Export Plug-In . SVG Version: 6.00 Build 0)  -->
<svg version="1.1" id="Layer_1" xmlns="http://www.w3.org/2000/svg" xmlns:xlink="http://www.w3.org/1999/xlink" x="0px" y="0px"
	 width="100px" height="100px" viewBox="0 0 100 100" style="enable-background:new 0 0 100 100;" xml:space="preserve">
<style type="text/css">
	.st0{fill:#7DBBC3;}
</style>
<g>
	<path class="st0" d="M23.5,78.1c2.1-2.2,1.6-7.2,1.7-8.9c0.3-5.7-2.8-6.1-3.4-9.2c-1.4-7.8-1.8-9.7-3.3-11.1
		c-1.4-1.4-3.9-3.7-4.4-5c-0.5-1.3-3.3-3.4-4.4-4.1c-1.1-0.8-1.4-3.6-2.3-4.3c-0.9-0.7-3.3-1.8-3.4-2.9c-0.1-1.1-1.2-3.9,0-4.1
		s1.8,0.1,2,0.7c0.2,0.6-0.5,3,1.2,2.9c1.5-0.1,1.6-1.6,1.7-2.7c0.1-1.2,2.3-0.3,1.9,0.9c-0.3,1.3-1.7,2.6-1,3.6
		c0.7,0.9,1,1.1,1.2,2.6s1.4,2.7,2,2c0.8-1.1,0.5-2.2-0.3-3.9c-0.3-0.6-0.8-2.3,0-2.8c0.8-0.4,2.1-0.8,2.1,1.6
		c-0.1,1.8,1.7,3.3,1.3,6.8c-0.2,2.1,2,5,2.8,5c2.2,0.1,1-6.1,0.8-7.5c-0.8-5.8-3.1-14.1-6-13.6c-0.8,0.1-0.9,0.8-1.7,1.6
		C11.2,26.1,9.3,25,9.1,24c-0.3-1.1-2-0.2-2.6-0.9c-0.5-0.7-0.7-2.5,1.7-1.5c2.4,1,4.7,0.5,3.8-0.1C5.4,17,5.4,12.4,5.2,11.3
		C5,10.2,6.9,9.3,7.7,10c0.8,0.7-0.4,1.4,0.6,2.2c2.1,1.6,0,4.5,5.4,7.4c1.5,0.8,4.9,2.5,5.9,7.9c1,5.4,1.8,7.5,2.6,7.5
		c2.8-0.2-1.7-6-1.7-7.9c0-1.5,1.1-1.4,1.9-0.3c0.3,0.5,0.9-0.3,1-1c0-1.2-1.7-6.7-4.7-7.3c-0.9-0.2-3.8-0.8-5-2.9s0.5-2-0.4-3.6
		c-0.2-0.4-1.6-0.2-2.1-0.3c-0.6-0.3-1.2-1.2-1-2c0.2-0.9,1.1-0.7,0.5-1.8S8.6,5.5,8.6,4.5s1.3-1.7,2.2-1c1.2,1,1.2,1.2,1.8,0.6
		c0.6-0.6,1.1-1.6,1.9-1c1.8,1.4-0.3,2.6-0.7,4.1c-0.5,1.8,1.9,5.8,2.9,6.6c1,0.8,2.3,2,2.7,1c0.6-1.3,0.7-4.6-3.1-9.2
		c-0.5-0.6,0.8-2,1.4-1.5s0.2,2.4,1.3,1.9c0.4-0.2-0.7-2.5-0.1-3.2c0.3-0.3,1.6,0.1,1.7,0.6c0.3,1.2-0.2,8.4,0.9,8.4
		c1.1,0,1.3-0.9,1.2-2.3c-0.2-1.3-0.6-6.4,0.3-7.2c0.7-0.7,2.4-0.1,1.7,1.5c-0.3,0.7,1.9,0.6,1.8-1.2c0-0.8,2-0.3,1.6,1
		c-0.3,1.3-2.8,1.7-2.8,3.2s0.2,3.1,1.5,2.5c1.3-0.7,1-2,1.7-2.9c0.8-0.9,2.6,0.2,2.1,1.8c-0.5,1.6-3.5,3.3-5.5,3.5
		c-1.5,0.1-2.6,3.3-2.7,4.2c-0.1,0.9,0.2,2.8,1.2,2.5c3.1-0.9,0.4-2,1.9-2.8c1-0.6,1.6,0.3,1.8,1.2s0.8,1.2,1.6,0.2
		c0.8-1,0.3-2.5,0.2-3.5c-0.2-1,1.7-1.7,2.4-0.6c0.5,0.8,1.7-1.4,1.5-3c-0.2-1.6,0-3.6,1.5-3.2c2.4,0.6-0.3,2.6,1.3,3
		c0.5,0.1,1.4-1.2,1.9-0.8c1.5,1,1,2.2-0.2,2.7c-1.6,0.6-4,2.6-4.5,3.4c-0.5,0.8,0.1,2.1,1.5,1.3c1.3-0.8,3.4-4.1,4.6-4.2
		c0.7,0,2,1.2,1.3,1.8c-1.7,1.3-4.6,3.1-3.7,4c1.3,1.3-0.8,2.7-1.4,2.1c-0.7-0.5-1.5-1-2.3-1.3c-0.9-0.3-2.6-0.3-2.4,1.3
		c0.1,0.9,1.3,0.2,1.7,1.1c0.3,0.6,0,1.5-0.9,1.8c-2,0.7-3.2-4.5-5-2.4c-0.6,0.7-0.8,2.9-0.3,3.6c1.5,1.7,2.6-0.6,3.4-0.2
		s1,1.4,0.2,2c-0.8,0.7-2.9,0.5-3.6,0.9c-0.7,0.4-0.8,2.8,0.3,3.2c1,0.3,2.4,0.3,3.3-1.6c1.7-3.4,4.1-5.4,4.7-5.5
		c0.7-0.1,1.6,1,1.2,1.5c-0.4,0.5-2.4,1.8-2.6,2.9c-0.2,1.2,3.5,1,1.8,3.1c-0.6,0.8-3.5-0.8-3.9,0c-0.4,0.8,0.5,2.8,1.4,2.8
		c0.9,0,3.3-2.7,4-1.1c0.4,1.1-0.2,1.5-1.1,1.8c-0.9,0.3-1.8,1.4-2.8,2c-1,0.6-3.3-2.3-4.1-2.7c-0.7-0.4-2.3,0.9-1.5,2
		c0.8,1,2.1,0.6,2.2,1.7c0.1,1.1-0.6,1.5-1,1.5c-0.4,0-1.6-1.5-2.1-1c-2.1,2.1-1.6,6-1.6,6.9c-0.1,0.9-0.1,7.1,0.5,7.8
		c0.8,1,2.6-0.6,2.6-1.4c0-0.8-0.6-3.1-0.7-4.8c-0.1-0.8,1.6-1.9,2-1c0.5,1.3,0.3,3.7,1,3.6c1.8-0.2,2.3-4.2,1.6-4.9
		c-1.6-1.7-2.7-1.9-2.5-2.6c0.5-2.2,2,0.5,3.3,0.4s-0.6-2.1,0.8-2.8c1-0.5,2.1,0.5,1.9,2.7c-0.2,2.1-0.6,4.6-1.4,5.7
		c-0.5,0.7,1.7-1.1,1.8,1.2c0.1,2.2-2.6,1.1-4.1,2.6c-3.6,3.5-3.8,8.4-2.8,8.9c0.9,0.6,2.3-2.3,2.9-3.6c0.7-1.3,1.2-4.5,2.3-3.9
		c0.7,0.3,1.8,0.6,1.5,1.7c-0.3,1.1-1.7,1.5-2.6,4.9c-0.3,1,2.4-0.1,2,1.9c-0.3,1.9-2.1,0.7-3.4,1.5c-1,0.7-2,3.5-2,4.5
		c0,1,0,6.5,3.2,5.1c3.3-1.4,5.5-4,4.8-7.1c-0.4-1.9-1.5-0.9-0.7-2.3c0.4-0.8,1.7,1.1,2.4,1c1.5-0.4,1-2.5,0.2-4
		c-0.8-1.4-3.2-1.5-2.3-3.1c0.5-0.9,0.8-0.6,1.8,0.2c0.9,0.8,1.8,0.6,1.9-1.2c0-1-3.9-1.8-3.5-3.8c0.1-0.6,0.2-0.7,0.6-1
		c0.6-0.5,2.3,1.8,2.7-0.2c0.1-0.6,0.1-3.5-1.4-4.8c-1.3-1.1-1.9-1.5-1.4-2.5c0.4-0.7,0.7-0.9,1.4-0.3c0.8,0.7,1.9,0.7,2.3-0.3
		c0.4-0.9-0.1-2.6-2.2-3.8c-1.1-0.7-3.1-0.6-3.1-2.2c0-0.9,0.6-1.7,1.2-1.4c0.6,0.3,1.2,1,2.5,1.1c2.3,0.3,2.7-3.1,2.8-4.7
		c0-0.8-0.2-2.4-1.8-2.4c-3.5-0.1-3.7-4.7-3.4-5.1c0.3-0.4,1.4-0.9,1.7,0.3c0.3,1.6,1.4,1.9,2.1,1.5c0.8-0.5,2.2-2.6,0.8-3.7
		c-0.7-0.5-1.8-0.7-2.3-2.2c-0.3-1,0-1.5,1-1.9c1-0.4,1.2,1,2.2,1.7c0.9,0.7,3-0.2,1.9-2.1c-0.6-1.1-1.4-2.8-0.7-3.7
		c0.5-0.6,1.5-0.6,1.9-0.3c0.9,0.5,0.3,2.3,1.3,2.5s0.6-3.3,3.2-1.7c1,0.6-0.4,2.6-1.7,4c-1.1,1.2-3.1,2.3-2.8,3.5
		c0.3,1.2,1.6,0.5,1.1,1.6c-0.4,1-1.7,0.2-2.1,0.6c-0.7,0.6-0.9,1.6-0.5,2.6c0.5,1.5,3.4,2.2,4.1-0.1c0.8-2.6-0.4-5.4,0.2-7.2
		c0.1-0.4,1.4-0.5,1.8-0.2c0.9,0.7-1,3.5,0.9,4.2c1.1,0.4,3.1-1.8,2.3-4.9C52.7,17,52,16,53.6,15.7c0.9-0.1,0.5,2.7,1.8,2.8
		c1.3,0.2,2.1-3,3.4-0.6c0.6,1-4.2,3.4-4.2,4.2c-0.1,1.9,1.6-0.4,2,0c1.4,1.6-0.5,1.8-2.7,2.7c-2.2,0.9-3.9,2-3.5,3.1
		c0.3,1.2,1,2.2,2.3,0c0.6-1,1.8,0.5,1.7,0.9c-0.1,1-1.9,2.6-3,2.6c-1.1,0.1-2.5-0.8-3.9-0.5c-1.4,0.3-2.3,2-2.7,3.6
		c-0.3,1.7-1.1,2.8,0.1,3.5c1.3,0.8,4.9,0,5.1-1.5c0.2-1.4-2.3-2.2-0.7-3.5c1-0.9,1.8,2.7,3.2,1.8c1.4-0.9,0.3-4.1,2.7-3.6
		c1.3,0.3-0.2,6.6-3.9,7.8c-1.4,0.5-3,0.7-2.6,1.7c0.3,1,0.9,1.7,2.3,0.9c0.9-0.5,2,1.5,1.2,2.1c-1.1,0.8-2.7,1.7-4.4,0.7
		c-1.7-1-2.1-1.3-3-1c-0.9,0.3-2.3,2.5-1.4,3.1c0.8,0.6,2-1.1,2.4,0c0.6,1.6-2.1,1.3-2.5,2.8c-0.4,1.4-0.3,4,0.6,3.4
		c0.9-0.6,1.5-3.6,2.7-4c1-0.3,1.6,0.5,1.6,1c0,1-1.2,1.5-1.4,2.3c-0.3,0.8-4.9,4.2-3.2,7.4c0.4,0.9,2.4-0.7,3.5-1.7
		c1.1-1,3.9-3.7,4.4-5.7c1.3-5.1,3.4-7.7,3.7-9.1c0.3-1.4-0.3-3-0.1-4.3c0.1-0.9,1.4-1.3,2.3-0.9c0.8,0.3,0.5,4.3,0.3,5.6
		c-0.6,3.4-2.5,8.9-3.2,10.2c-0.7,1.3-2.8,5-4.2,6.5c-0.8,0.9-7,4.5-7.4,6.8c-0.2,1,1.1,1.8,2.4,1c7.9-4.7,13.6-11,11.5-12.7
		c-2.4-2-0.4-3.6,0.6-3.8c0.7-0.1,1,0.8,1.9,0.9c0.9,0.1,2.4-0.5,1.9-3.2c-0.2-1-2.4-0.7-1.9-2.8c0.2-1,3.4,1,1.8-4.1
		c-0.2-0.7-0.8-4.5-1-5.5c-0.4-2.1-2.4-0.3-2.4-2.3c0-0.8,0.4-1.1,1-1.2c1.7-0.2,1.9-2.4,0.9-3.3c-0.9-0.8-3.1-0.7-3-2.9
		c0-0.9,0.5-2.5,1-2.6c0.5-0.1,2.1,0.6,1.6,1.5c-0.7,1.3,1,1.8,1.8,1.5c0.9-0.3,1-1.3,0.9-2.6c-0.1-1.3,0.3-1.6,1-1.6
		c0.8,0.1,1.2,0.7,1.2,2c0,1.6,0,2.9-0.6,3.8c-0.6,0.8-1.4,0.6-0.8,6.3c0.2,1.6,0.3,5.7,1.5,6c2.4,0.7,1.7-1.4,1.7-2.9
		s1.8-3,1.5-3.9c-0.3-0.9-3.4-1.8-2.5-3.3c0.5-0.9,2.2,0.8,3.2,1.2c1.1,0.4,2.4-2.4,1.6-3.6c-0.8-1.2-3.6-0.2-3.9-1.5
		c-0.5-1.9,1.8-0.9,2.9-1.5c1.1-0.6-1.4-0.3-1.8-1.9c-0.4-1.6-0.5-2.8-0.1-3.7c0.3-0.9,2.2-0.4,2.1,0.6c-0.2,1.2-0.6,2.7,0.3,2.9
		c0.8,0.2,1.3-1.3,1.7-1.8c0.6-0.8,0.8-0.7,1.5-0.3c0.7,0.4,1.2,1.2,0.4,1.8c-0.8,0.6-1.9,2-1.8,2.9s2.3,1.3,3.1-0.4
		c0.6-1.4,1.9-5.5,3.3-4.9c1.3,0.6,1.3,1.3,0.5,2.4c-0.8,1.1-1.7,2.6-1.8,3.1c-0.3,1.5,1.4,2.2,2.6,1.8c1.3-0.4,1.8-2.5,2.4-3.8
		c0.8-2,2.3-1,2.8-0.1c0.5,0.8-1.3,1.5-2.1,3.9c-0.3,0.9-0.4,2.3-1.8,2.8c-1,0.3-1.6-0.7-3.4-0.7c-1.8,0-3.5-0.3-4.3,0.8
		c-0.8,1.1-0.1,2.3-1.1,3.3c-1.1,1.2-2.7,3.2-2.1,3.8c2.3,2,5.2-2.4,5.1-3.3c-0.2-2.4-0.1-2.5,1.8-2.7c1.6-0.2,0.5,1.9,0.8,2.5
		c0.8,1.8,5.4,0.4,6-1.9c0.2-0.8-1.6-1.5-0.1-3.1c1-1.2,1.1,2.1,2.8,0.3c0.6-0.6,1-1.7,2-1c1,0.7,0.9,1.8-0.3,2.5
		c-1.2,0.8-2.2,1.6-2,2.3c0.2,0.7,1.3,1.3,2.4,0.4c1.2-0.9,1.6-2.2,2.6-0.8c0.6,0.8-0.9,1-0.7,1.7c0.2,0.7,2.1-0.5,1.5,1.7
		c-0.3,1.2-5.2,0-7.6-0.6c-1.4-0.3-4.6,1.6-3.4,2.1c1.2,0.5,2,1.4,1.1,2.1c-2.1,1.5-2.3,0.2-2.8-0.8c-0.6-1.3-3.1-1.9-4-1.2
		c-0.8,0.8-2.3,2.5-1.2,2.9c1.2,0.4,2.2-0.2,2.3,1c0.1,1.2-0.4,2.2-1.8,2c-1.3-0.2-2.3-1.8-3.3-1.9c-1-0.1-1.2,0.2-2.2,1.2
		c-1,1-2.8,2.4-3.7,3.7c-0.6,0.9-0.3,2,1.1,1.9c3.2-0.1,9.5-2.2,10.7-3.1c2.4-1.6-0.8-2.9,1.3-4.3c1.5-0.9,1.3,2.3,2.6,1.8
		c1.3-0.6,2.5-2.4,3.7-3c1.2-0.6,2.4,0.2,4.1-1.3c0.8-0.7,1.8,0.4,0.8,1.7c-0.4,0.5,2.3-0.3,1.5,1.7c-0.4,0.9-4.9-0.8-5.7,0.1
		c-0.8,0.9,0.3,1.3,1.1,1.2c0.8-0.1,0.6,2.1-0.6,1.7c-1.2-0.3-6.1,0.9-5.8,2c0.6,2.7,6,0.2,7.7-1.5c1.8-1.7,1.5-1.9,2.4-1.7
		c0.7,0.2,1.3,0.7,0.8,1.3c-0.5,0.6-2,1.1-1,1.5c1.1,0.4,2.9-0.7,3.3,0.4c0.3,0.8,0.5,2.4-0.5,2.4c-1.1,0-3.2-2.2-6.1-0.2
		c-3.4,2.3-8.8,0.4-9.7-0.2c-0.9-0.6-3.5-0.7-4.6,0.6c-0.5,0.6,0.2,1-0.4,1.5c-1.6,1.4-1.2-1.6-3.6-0.3c-0.6,0.3-3,1.2-2.2,2
		c2.2,2,11.5-0.4,13-0.7c0.8-0.2,1.7,1.3,1.5,1.5c-1.2,1-9.6,2.3-12.7,1.9c-3.1-0.4-3.9-1.2-5.3-0.4c-1.3,0.8-3.5,3.8-3.6,4.4
		c-0.3,1.6,2.2,2.2,3.6,0.9c1.4-1.3,0.5-2.9,1.2-3.3c0.4-0.2,1.4-1,1.8-0.7c0.4,0.3,0.5,1.5,1,1.4c0.6-0.1,1.4-3.1,6.3,0.2
		c1.1,0.7,2.4-1.3,2.9,0.1c1.5,4-1.3,4-3.3,3c-2-1-2.3-1.3-3.5-1.4c-1.2-0.1-2,0.2-1.8,1.1c0.4,2.6,1.6,4.5-2.2,4.5
		c-1.1,0,0.1-1.8-0.6-2.5c-0.8-0.9-3.2-0.3-4.1,2.4c-0.5,1.5-4.6-0.1-5.9,0.3s-3.9,1.6-2.9,3.9c0.4,0.8,1.4,2.2,3.9,1.3
		c1.5-0.5,1-2.8,1.8-3.2c0.8-0.4,1.6-0.3,2.7,0c1.2,0.2,0.2,2,0.1,2.9c-0.2,1.3,4.7,2.1,6,2c2.6-0.2,4.6-3.5,4.3-4.1
		c-1.1-2-2,0.8-2.7,0.3c-1.8-1.3-1-2-0.4-2.6c0.8-0.8,2.4-2.1,3.4-1.4c1,0.7,3.1,1.4,4.5,0c1.3-1.3,4.3-3.1,4.5-4.7
		c0.1-0.9-2-2.7-0.6-4c0.7-0.7,1.3,0.7,1.9,1.6c0.6,0.8,1.1-0.8,1.4-1.9c0.3-1.1,1.4-2.9,3.5-3.4c2.1-0.5,3.7-0.5,3.7,0.2
		c0,0.8-0.2,1.7-0.9,1.6c-0.7-0.1-2.8-0.3-3.5,0.7c-0.7,1-1.3,4.1-2.1,5.3c-0.8,1.3-2.9,1.9-2.6,2.8c0.5,1.2,3.1,1,4.1-0.7
		c1.4-2.4,0.6-4,0.8-5c0.1-0.4,1.5-1.5,2.2-1.1c0.7,0.4-0.1,2.5,0.8,2.4c1.9-0.2,2.5-1.3,2.4-2.2c-0.1-0.9,0.3-4.1,1.8-4.2
		c1.5-0.1,1.6,0.6,1.3,1.3c-0.5,1-1,1.8,0.3,2.1c1.3,0.3,2.3-2.2,3.2-1.4c0.8,0.8,1.1,1,1.1,1.7c0,1-1.6,0.5-1.8,1.3
		c-0.4,1.1,3.2,0.8,2.3,2.8c-0.7,1.6-2.4-0.2-3.9-0.9c-1.4-0.7-3.8,1.5-4.5,2c-0.8,0.4-3.6,0.7-3.9,1.7c-0.3,0.9,2.2,0,1.2,1.8
		c-0.4,0.8-2.8-0.6-5.3,1.5c-1.5,1.2-5.5,1.4-6.4,1.4s-3.7,2.7-1.6,3.8c7.5,3.8,14.8-6.1,15.6-7.7c1.6-3.3,3.7-1.4,3.9-0.6
		c0.1,0.7-1.3,1.9-1,2.6c0.4,1.1,2.1-0.3,2.9,0.7c0.8,0.9,0.6,1.4-0.2,1.7c-1,0.4-4.7-0.8-5.7,0.1c-1,0.9-2,1.8-1.7,2.2
		c1.4,2.2,1.9-0.4,2.8-0.1s0.8,0.8,0.4,1.2c-0.4,0.3-0.7,0.7-0.5,1.1c0.9,1.7,2,0.5,2.7,1.2c0.3,0.3,0.6,2-0.3,2.2
		c-1.7,0.5-4-0.4-4.7-2c-0.4-1-1.3-2-2.4-2c-1.1,0-3.7,1.9-4.2,2.7c-0.5,0.8-0.9,1.3-1,2.5c-0.1,1.2-2.1,0.9-2.2,0
		c-0.1-1.2,0.4-2.2-0.6-2.6c-0.6-0.3-2.1-0.2-2.4,0.7c-0.3,0.9,0.8,1.8,1.6,2.1c0.5,0.1,0.4,1.8-0.2,2c-0.8,0.2-1.8-0.8-2.4-0.5
		c-1.4,0.6-1.4,2.2-2.3,1.6c-0.9-0.7-1.4-1.1-0.7-2.2c0.7-1.2,1.1-2.7,0-3.2c-1.1-0.5-2.8,0.2-3.1,1c-0.3,0.8,0.9,1-0.3,2
		c-0.8,0.6-0.9-0.8-1.8-1.1c-0.8-0.3-4.4-1-4.9-0.4c-0.5,0.6,0.8,1.4-1.1,1.7c-1.7,0.3-1.5-1.7-2.7-1.8c-1.2-0.2-4.8,0.5-8,0.5
		c-2.7,0-4.7-2.5-6.3-2.1C26.4,78.7,16.2,97.2,10.6,98c-1.3,0.2-9.9-10.2-8.2-12.8C3.1,84.2,20.4,81.3,23.5,78.1z"/>
</g>
</svg>
