<?xml version="1.0" encoding="utf-8"?>
<!-- Generator: Adobe Illustrator 20.0.0, SVG Export Plug-In . SVG Version: 6.00 Build 0)  -->
<svg version="1.1" id="Layer_1" xmlns="http://www.w3.org/2000/svg" xmlns:xlink="http://www.w3.org/1999/xlink" x="0px" y="0px"
	 width="100px" height="100px" viewBox="0 0 100 100" style="enable-background:new 0 0 100 100;" xml:space="preserve">
<style type="text/css">
	.st0{fill:#7C90DB;}
</style>
<g>
	<path class="st0" d="M88.5,46.4c0.5-2,0.8-4.1,0.9-6.3c-0.9,1.7-1.9,3.2-3.2,4.7c-0.2,0.5-4.7,5.6-12.4,11c-0.6,0.5-1.3,1-2,1.5
		c1.5-2.9,3.1-5.8,4.6-8.7c4.5-8.7,7.9-17.3,8.2-24.3c0.6-6.9-1.6-12.2-1.5-12.9c-1-3-2.3-6.1-4.2-9.3c0.7,3,1,5.8,0.8,8.6
		c-0.3,0.7,0,5.5-2.6,12c-1.8,4.8-5.1,10.5-9,16.5c0.6-8.5-2.1-14.8-2.4-15.4c-0.9-2.2-2-4.4-3.5-6.6c0.2,2.3,0.2,4.6-0.1,6.8
		c0.1,0.6-1,8.5-5.2,18.7c-3.9,10.1-9.9,22.8-9.3,33.6c0.4,11.7,5.9,18.9,9.2,20.9c0,0,0,0,0,0c0.1,0,0.1,0.1,0.2,0.1
		c0,0,0.1,0,0.1,0.1c0.2,0.1,0.4,0.2,0.6,0.2c0,0,0,0,0.1,0c0.1,0,0.2,0.1,0.2,0.1c0.1,0,0.1,0,0.2,0c0,0,0,0,0,0c0,0,0.1,0,0.1,0
		c0.1,0,0.1,0,0.2,0c0,0,0.1-0.1,0.1-0.1c0.1-0.1,0.2-0.1,0.2-0.2c1.7-1.1,1.4-6.9,5.3-14.2c3.6-7.4,11.4-14.8,16.6-22.1
		C86.5,54.1,88.5,47,88.5,46.4z M77.5,56.5c-3.2,3.3-6.6,6.4-9.8,9.4c0.5-1.2,1.1-2.4,1.7-3.7C72.2,60.2,75,58.3,77.5,56.5z
		 M80.2,31.2c-1.2,5-3.4,10.4-6.1,15.9c-2.6,5-5,9.5-6.9,13.5c-0.8,1.7-1.6,3.4-2.2,4.9c-0.8,1.9-1.5,3.7-2.1,5.4
		c-1,2.8-1.8,5.2-2.3,7.4c-0.2,0.7-0.3,1.3-0.5,1.9c-1.3,5.9-1.5,9.5-1.9,11.4c0,0.2-0.1,0.3-0.1,0.4c-0.1,0.2-0.2,0.3-0.3,0.5
		c0-0.1,0-0.3-0.1-0.4c-0.3-1.4-0.4-2.8-0.5-4.2c-0.2-3.3,0-6.6,0.5-9.7c0.2-0.9,0.3-1.7,0.5-2.6c0.4-1.9,1-3.7,1.7-5.5
		c0.7-1.9,1.5-3.7,2.3-5.6c0.4-0.9,0.9-1.9,1.4-2.8C68.7,51.4,76,41.6,80.2,31.2z M77.1,30.5c-2.7,7-6.8,13.8-10.7,20.6
		c-1.9,3.3-3.8,6.7-5.5,10.1c-1.2,2.4-2.2,4.8-3.1,7.2c-0.8,2.2-1.5,4.4-2,6.7c-0.2,1-0.4,2.1-0.6,3.1c-0.4,3-0.6,6.1-0.3,9.2
		c0.1,1.6,0.4,3.2,0.7,4.9c-0.2-0.3-0.4-0.6-0.6-0.9c0-0.1-0.1-0.3-0.1-0.4c0,0.1,0,0.1,0,0.2c-0.1-0.1-0.1-0.2-0.2-0.4
		c-0.5-1-1-2.3-1.5-4C52.5,84,52,80.1,52.8,75c0.1-0.6,0.2-1.2,0.3-1.8c0.9-4.2,2.7-9.1,5.9-14.9c1.2-2.1,2.5-4.3,4-6.6
		c1.3-2,2.7-4.1,4.3-6.2c0.1-0.1,0.1-0.2,0.2-0.3C71.1,40.1,74.5,35,77.1,30.5z M64.2,45.2c-0.1,0.2-0.2,0.3-0.3,0.5
		c-0.5,0.7-0.9,1.3-1.4,2c0.8-2.6,1.6-5.1,2.2-7.7C64.6,41.7,64.5,43.4,64.2,45.2z M50.1,75.9C49.9,64.5,57,50.7,61.3,40.3
		C60,46.2,58,52,56.3,57.9c-3.7,6.9-5.9,13.9-6.2,20.1C50.1,77.3,50.1,76.6,50.1,75.9z M62.2,81.6c0,0.1-0.1,0.2-0.1,0.3
		c0.7-3,1.6-6.2,2.9-9.5c4.3-4.8,9.7-9.2,14.7-14.2C74.4,65.7,66,74,62.2,81.6z"/>
	<path class="st0" d="M49.2,38.4c-0.8-1.9-1.8-3.8-3.1-5.6c0.3,1.9,0.4,3.7,0.3,5.6c0.1,0.5-0.4,7.3-3.3,16.2
		c-0.2,0.8-0.4,1.6-0.7,2.4c-0.5-3.2-1-6.5-1.5-9.7c-1.6-9.7-4.1-18.5-8.1-24.3c-3.7-5.9-8.6-8.8-9-9.4c-2.6-1.8-5.5-3.5-9-4.9
		c2.4,1.9,4.3,4.1,5.8,6.3c0.2,0.7,3.3,4.4,5.2,11.1c1.5,4.9,2.3,11.4,2.8,18.6C23.9,37.7,17.9,34.2,17.4,34c-2-1.2-4.3-2.3-6.7-3.2
		c1.6,1.7,2.9,3.5,4,5.5c0.4,0.5,4.4,7.4,7.1,18c3,10.5,5.9,24.1,12.9,32.4c7.4,9.1,16.1,11.6,19.9,11.2c0,0,0,0,0.1,0
		c0.1,0,0.1,0,0.2,0c0,0,0.1,0,0.1,0c0.2,0,0.4-0.1,0.6-0.2c0,0,0,0,0.1,0c0.1,0,0.2,0,0.3,0c0,0,0.1-0.1,0.1-0.1c0,0,0,0,0,0
		c0,0,0,0,0.1,0c0,0,0.1-0.1,0.1-0.1c0,0,0-0.1,0-0.1c0-0.1,0.1-0.2,0.1-0.3c0.7-1.9-3-6.3-4.4-14.6c-1.6-8,0.2-18.7,0-27.7
		C52.2,45.8,49.5,38.9,49.2,38.4z M46.4,53.1c-0.6,4.6-1.5,9.1-2.2,13.5c-0.3-1.3-0.6-2.6-0.8-4C44.5,59.3,45.6,56.1,46.4,53.1z
		 M33.4,31.2c2,4.7,3.5,10.3,4.7,16.3c1,5.6,1.8,10.6,2.7,15c0.4,1.9,0.8,3.6,1.2,5.3c0.5,2,1,3.9,1.5,5.6c0.9,2.8,1.7,5.2,2.6,7.3
		c0.3,0.6,0.5,1.2,0.8,1.8c2.5,5.5,4.5,8.4,5.3,10.2c0.1,0.1,0.1,0.3,0.2,0.4c0,0.2,0.1,0.4,0,0.6c-0.1-0.1-0.2-0.2-0.3-0.3
		c-1.1-1-2.1-2-3-3.1c-2.2-2.5-4-5.2-5.4-8.1c-0.4-0.8-0.8-1.6-1.1-2.4c-0.8-1.8-1.4-3.6-2-5.4c-0.6-1.9-1.1-3.9-1.5-5.8
		c-0.2-1-0.4-2.1-0.6-3.1C36.4,54.3,36.3,42.1,33.4,31.2z M30.4,32.6c2.1,7.3,2.9,15.1,3.8,22.9c0.5,3.8,1,7.6,1.7,11.4
		c0.5,2.6,1.1,5.1,1.9,7.6c0.7,2.2,1.5,4.4,2.4,6.5c0.4,1,0.9,1.9,1.4,2.9c1.5,2.7,3.2,5.2,5.3,7.6c1.1,1.2,2.2,2.3,3.5,3.4
		c-0.3-0.1-0.6-0.2-1-0.4c-0.1-0.1-0.3-0.2-0.4-0.3c0.1,0.1,0.1,0.1,0.1,0.2c-0.1-0.1-0.2-0.1-0.4-0.2c-1-0.5-2.2-1.2-3.6-2.3
		c-2.3-1.8-5-4.5-7.5-9.1c-0.3-0.5-0.5-1.1-0.8-1.6c-1.8-3.9-3.4-8.9-4.3-15.4c-0.3-2.4-0.6-4.9-0.8-7.7c-0.2-2.4-0.3-4.9-0.3-7.6
		c0-0.1,0-0.2,0-0.4C31.4,43.8,31.2,37.8,30.4,32.6z M29.1,52.1c0,0.2,0,0.4,0,0.6c0,0.8,0.1,1.6,0.1,2.4c-0.9-2.5-1.8-5-2.9-7.4
		C27.3,49,28.2,50.5,29.1,52.1z M36.3,85.1c-7.1-9-9.6-24.3-12.5-35.2c2.5,5.5,4.4,11.3,6.6,17.1c1.2,7.7,3.6,14.6,7.2,19.8
		C37.1,86.2,36.7,85.6,36.3,85.1z M49.4,82.4c0,0.1,0,0.2,0.1,0.3c-1.2-2.8-2.4-5.9-3.4-9.3c0.5-6.5,2.2-13.3,3.1-20.2
		C49.6,62.3,47.9,74,49.4,82.4z"/>
</g>
</svg>
