<?xml version="1.0" encoding="utf-8"?>
<!-- Generator: Adobe Illustrator 18.1.0, SVG Export Plug-In . SVG Version: 6.00 Build 0)  -->
<!DOCTYPE svg PUBLIC "-//W3C//DTD SVG 1.1//EN" "http://www.w3.org/Graphics/SVG/1.1/DTD/svg11.dtd">
<svg version="1.1" id="Layer_1" xmlns="http://www.w3.org/2000/svg" xmlns:xlink="http://www.w3.org/1999/xlink" x="0px" y="0px"
	 width="32px" height="32px" viewBox="-283 385 32 32" enable-background="new -283 385 32 32" xml:space="preserve">
<g>
	<g>
		<path fill="#58585B" d="M-252,410.7c-0.4,0-0.7-0.2-0.9-0.5l-2.5-4.7l-4.8,1.8c-0.5,0.2-1.1-0.1-1.3-0.6c-0.2-0.5,0.1-1.1,0.6-1.3
			l5.6-2.1c0.5-0.2,1,0,1.2,0.5l2.9,5.5c0.3,0.5,0.1,1.1-0.4,1.4C-251.7,410.7-251.8,410.7-252,410.7z"/>
	</g>
	<g>
		<path fill="#58585B" d="M-279.4,398.2c-0.4,0-0.7-0.2-0.9-0.6l-2.6-5.6c-0.2-0.5,0-1.1,0.5-1.3c0.5-0.2,1.1,0,1.3,0.5l2.2,4.8
			l4.9-1.4c0.5-0.2,1.1,0.2,1.2,0.7c0.1,0.5-0.2,1.1-0.7,1.2l-5.7,1.6C-279.2,398.2-279.3,398.2-279.4,398.2z"/>
	</g>
	<g>
		<path fill="#58585B" d="M-279.4,398.2c-0.1,0-0.2,0-0.3,0c-0.5-0.2-0.8-0.7-0.7-1.2c1.8-5.8,7.2-9.9,13.2-9.9
			c6,0,11.3,3.9,13.2,9.8c0.2,0.5-0.1,1.1-0.6,1.3c-0.5,0.2-1.1-0.1-1.3-0.6c-1.6-5-6.1-8.4-11.2-8.4c-5.1,0-9.7,3.5-11.2,8.5
			C-278.6,397.9-279,398.2-279.4,398.2z"/>
	</g>
	<g>
		<path fill="#58585B" d="M-267.2,415c-6.3,0-11.7-4.3-13.3-10.5c-0.1-0.5,0.2-1.1,0.7-1.2c0.5-0.1,1.1,0.2,1.2,0.7
			c1.3,5.3,6,8.9,11.3,8.9c5.3,0,10-3.7,11.3-9c0.1-0.5,0.7-0.9,1.2-0.7c0.5,0.1,0.9,0.7,0.7,1.2C-255.5,410.7-260.9,415-267.2,415z
			"/>
	</g>
</g>
</svg>
