<?xml version="1.0" encoding="utf-8"?>
<!-- Generator: Adobe Illustrator 18.1.0, SVG Export Plug-In . SVG Version: 6.00 Build 0)  -->
<!DOCTYPE svg PUBLIC "-//W3C//DTD SVG 1.1//EN" "http://www.w3.org/Graphics/SVG/1.1/DTD/svg11.dtd">
<svg version="1.1" id="Layer_1" xmlns="http://www.w3.org/2000/svg" xmlns:xlink="http://www.w3.org/1999/xlink" x="0px" y="0px"
	 width="32px" height="32px" viewBox="-283 385 32 32" enable-background="new -283 385 32 32" xml:space="preserve">
<g>
	<g>
		<path fill="#58585B" d="M-271,409c-3.2,0-6.2-1.2-8.5-3.5c-4.7-4.7-4.7-12.3,0-17c2.3-2.3,5.3-3.5,8.5-3.5s6.2,1.2,8.5,3.5
			c4.7,4.7,4.7,12.3,0,17C-264.8,407.8-267.8,409-271,409z M-271,387c-2.7,0-5.2,1-7,2.9c-3.9,3.9-3.9,10.3,0,14.2
			c1.9,1.9,4.4,2.9,7,2.9s5.2-1,7-2.9c3.9-3.9,3.9-10.3,0-14.2C-265.8,388-268.3,387-271,387z"/>
	</g>
	<g>
		<path fill="#58585B" d="M-252,417c-0.3,0-0.5-0.1-0.7-0.3l-11-11.1c-0.4-0.4-0.4-1,0-1.4c0.4-0.4,1-0.4,1.4,0l11,11.1
			c0.4,0.4,0.4,1,0,1.4C-251.5,416.9-251.7,417-252,417z"/>
	</g>
</g>
</svg>
