<?xml version="1.0" encoding="utf-8"?>
<!-- Generator: Adobe Illustrator 18.1.0, SVG Export Plug-In . SVG Version: 6.00 Build 0)  -->
<!DOCTYPE svg PUBLIC "-//W3C//DTD SVG 1.1//EN" "http://www.w3.org/Graphics/SVG/1.1/DTD/svg11.dtd">
<svg version="1.1" id="Layer_1" xmlns="http://www.w3.org/2000/svg" xmlns:xlink="http://www.w3.org/1999/xlink" x="0px" y="0px"
	 width="32px" height="32px" viewBox="-283 385 32 32" enable-background="new -283 385 32 32" xml:space="preserve">
<g>
	<path fill="#58585B" d="M-267,416L-267,416c-0.3,0-0.6-0.1-0.7-0.3c-4.4-4.9-12.9-14.3-13.2-14.7c0,0,0-0.1-0.1-0.1
		c-1.3-1.7-2-3.7-2-5.7c0-5.1,4.2-9.2,9.3-9.2c2.6,0,5,1,6.7,2.7c1.8-1.7,4.2-2.7,6.7-2.7c5.1,0,9.3,4.1,9.3,9.2c0,2-0.7,4.1-2,5.7
		l-13.2,14.8C-266.4,415.9-266.7,416-267,416z M-279.4,399.7c0.8,0.9,8.9,9.9,12.4,13.8l12.5-13.9c1-1.3,1.5-2.8,1.5-4.4
		c0-4-3.3-7.2-7.3-7.2c-2.2,0-4.4,1-5.9,2.8c-0.2,0.2-0.5,0.3-0.8,0.4c-0.3,0-0.6-0.1-0.8-0.4c-1.4-1.8-3.6-2.8-5.9-2.8
		c-4,0-7.3,3.2-7.3,7.2C-281,396.8-280.4,398.4-279.4,399.7z"/>
</g>
</svg>
