<?xml version="1.0" encoding="utf-8"?>
<!-- Generator: Adobe Illustrator 18.1.0, SVG Export Plug-In . SVG Version: 6.00 Build 0)  -->
<!DOCTYPE svg PUBLIC "-//W3C//DTD SVG 1.1//EN" "http://www.w3.org/Graphics/SVG/1.1/DTD/svg11.dtd">
<svg version="1.1" id="Layer_1" xmlns="http://www.w3.org/2000/svg" xmlns:xlink="http://www.w3.org/1999/xlink" x="0px" y="0px"
	 width="32px" height="32px" viewBox="-283 385 32 32" enable-background="new -283 385 32 32" xml:space="preserve">
<g>
	<g>
		<path fill="#58585B" d="M-252,412h-8c-0.6,0-1-0.4-1-1s0.4-1,1-1h7v-11h-28v11h6.9c0.6,0,1,0.4,1,1s-0.4,1-1,1h-7.9
			c-0.6,0-1-0.4-1-1v-13c0-0.6,0.4-1,1-1h30c0.6,0,1,0.4,1,1v13C-251,411.6-251.4,412-252,412z"/>
	</g>
	<g>
		<path fill="#58585B" d="M-260,399h-14c-0.6,0-1-0.4-1-1v-11c0-0.6,0.4-1,1-1h14c0.6,0,1,0.4,1,1v11C-259,398.6-259.4,399-260,399z
			 M-273,397h12v-9h-12V397z"/>
	</g>
	<g>
		<path fill="#58585B" d="M-260,417h-14c-0.6,0-1-0.4-1-1v-9c0-0.6,0.4-1,1-1h14c0.6,0,1,0.4,1,1v9C-259,416.6-259.4,417-260,417z
			 M-273,415h12v-7h-12V415z"/>
	</g>
</g>
</svg>
