<?xml version="1.0" encoding="utf-8"?>
<!-- Generator: Adobe Illustrator 18.1.0, SVG Export Plug-In . SVG Version: 6.00 Build 0)  -->
<!DOCTYPE svg PUBLIC "-//W3C//DTD SVG 1.1//EN" "http://www.w3.org/Graphics/SVG/1.1/DTD/svg11.dtd">
<svg version="1.1" id="Layer_1" xmlns="http://www.w3.org/2000/svg" xmlns:xlink="http://www.w3.org/1999/xlink" x="0px" y="0px"
	 width="32px" height="32px" viewBox="-283 385 32 32" enable-background="new -283 385 32 32" xml:space="preserve">
<g>
	<path fill="#58585B" d="M-269,400h-13c-0.6,0-1-0.4-1-1v-13c0-0.6,0.4-1,1-1h13c0.6,0,1,0.4,1,1v13C-268,399.6-268.4,400-269,400z
		 M-281,398h11v-11h-11V398z"/>
</g>
<g>
	<path fill="#58585B" d="M-252,400h-13c-0.6,0-1-0.4-1-1v-13c0-0.6,0.4-1,1-1h13c0.6,0,1,0.4,1,1v13C-251,399.6-251.4,400-252,400z
		 M-264,398h11v-11h-11V398z"/>
</g>
<g>
	<path fill="#58585B" d="M-269,417h-13c-0.6,0-1-0.4-1-1v-13c0-0.6,0.4-1,1-1h13c0.6,0,1,0.4,1,1v13C-268,416.6-268.4,417-269,417z
		 M-281,415h11v-11h-11V415z"/>
</g>
<g>
	<path fill="#58585B" d="M-252,417h-13c-0.6,0-1-0.4-1-1v-13c0-0.6,0.4-1,1-1h13c0.6,0,1,0.4,1,1v13C-251,416.6-251.4,417-252,417z
		 M-264,415h11v-11h-11V415z"/>
</g>
</svg>
