<?xml version="1.0" encoding="utf-8"?>
<!-- Generator: Adobe Illustrator 18.1.0, SVG Export Plug-In . SVG Version: 6.00 Build 0)  -->
<!DOCTYPE svg PUBLIC "-//W3C//DTD SVG 1.1//EN" "http://www.w3.org/Graphics/SVG/1.1/DTD/svg11.dtd">
<svg version="1.1" id="Layer_1" xmlns="http://www.w3.org/2000/svg" xmlns:xlink="http://www.w3.org/1999/xlink" x="0px" y="0px"
	 width="32px" height="32px" viewBox="-283 385 32 32" enable-background="new -283 385 32 32" xml:space="preserve">
<g>
	<path fill="#58585B" d="M-265.3,417c0,0-0.1,0-0.1,0c-0.4-0.1-0.8-0.4-0.9-0.8l-2-13.9l-13.9-2c-0.4-0.1-0.8-0.4-0.8-0.9
		c-0.1-0.4,0.2-0.9,0.6-1.1l30-13.3c0.4-0.2,0.8-0.1,1.1,0.2c0.3,0.3,0.4,0.7,0.2,1.1l-13.3,30C-264.5,416.8-264.9,417-265.3,417z
		 M-278.4,398.8l11.2,1.6c0.4,0.1,0.8,0.4,0.8,0.8l1.6,11.2L-254,388L-278.4,398.8z"/>
</g>
</svg>
