<?xml version="1.0" encoding="utf-8"?>
<!-- Generator: Adobe Illustrator 18.1.0, SVG Export Plug-In . SVG Version: 6.00 Build 0)  -->
<!DOCTYPE svg PUBLIC "-//W3C//DTD SVG 1.1//EN" "http://www.w3.org/Graphics/SVG/1.1/DTD/svg11.dtd">
<svg version="1.1" id="Layer_1" xmlns="http://www.w3.org/2000/svg" xmlns:xlink="http://www.w3.org/1999/xlink" x="0px" y="0px"
	 width="32px" height="32px" viewBox="-283 385 32 32" enable-background="new -283 385 32 32" xml:space="preserve">
<g>
	<g>
		<path fill="#58585B" d="M-253,417h-28c-0.6,0-1-0.4-1-1v-6c0-0.6,0.4-1,1-1s1,0.4,1,1v5h26v-5c0-0.6,0.4-1,1-1s1,0.4,1,1v6
			C-252,416.6-252.4,417-253,417z"/>
	</g>
	<g>
		<g>
			<path fill="#58585B" d="M-258.9,394.8c-0.2,0-0.5-0.1-0.7-0.3l-7.4-7.1l-7.3,7.1c-0.4,0.4-1,0.4-1.4,0s-0.4-1,0-1.4l8-7.8
				c0.4-0.4,1-0.4,1.4,0l8.1,7.8c0.4,0.4,0.4,1,0,1.4C-258.4,394.7-258.6,394.8-258.9,394.8z"/>
		</g>
		<g>
			<path fill="#58585B" d="M-267,411c-0.6,0-1-0.4-1-1v-24c0-0.6,0.4-1,1-1s1,0.4,1,1v24C-266,410.6-266.4,411-267,411z"/>
		</g>
	</g>
</g>
</svg>
