<?xml version="1.0" encoding="utf-8"?>
<!-- Generator: Adobe Illustrator 18.1.0, SVG Export Plug-In . SVG Version: 6.00 Build 0)  -->
<!DOCTYPE svg PUBLIC "-//W3C//DTD SVG 1.1//EN" "http://www.w3.org/Graphics/SVG/1.1/DTD/svg11.dtd">
<svg version="1.1" id="Layer_1" xmlns="http://www.w3.org/2000/svg" xmlns:xlink="http://www.w3.org/1999/xlink" x="0px" y="0px"
	 width="32px" height="32px" viewBox="-283 385 32 32" enable-background="new -283 385 32 32" xml:space="preserve">
<g>
	<path fill="#58585B" d="M-267,417c-0.3,0-0.6-0.2-0.8-0.4l-9.4-13.9c-1.2-1.9-1.8-3.9-1.8-6.1c0-6.4,5.4-11.6,12-11.6
		c6.6,0,12,5.2,12,11.6c0,2.1-0.6,4.1-1.8,5.9l-9.4,14C-266.4,416.8-266.7,417-267,417C-267,417-267,417-267,417z M-267,387
		c-5.5,0-10,4.3-10,9.6c0,1.7,0.5,3.5,1.4,5l8.5,12.6l8.6-12.8c0.9-1.5,1.4-3.1,1.4-4.8C-257,391.3-261.5,387-267,387z"/>
</g>
<g>
	<path fill="#58585B" d="M-267,403c-3.3,0-6-2.7-6-6s2.7-6,6-6s6,2.7,6,6S-263.7,403-267,403z M-267,393c-2.2,0-4,1.8-4,4s1.8,4,4,4
		c2.2,0,4-1.8,4-4S-264.8,393-267,393z"/>
</g>
</svg>
