<?xml version="1.0" encoding="utf-8"?>
<!-- Generator: Adobe Illustrator 16.0.0, SVG Export Plug-In . SVG Version: 6.00 Build 0)  -->
<!DOCTYPE svg PUBLIC "-//W3C//DTD SVG 1.1//EN" "http://www.w3.org/Graphics/SVG/1.1/DTD/svg11.dtd">
<svg version="1.1" id="Layer_1" xmlns="http://www.w3.org/2000/svg" xmlns:xlink="http://www.w3.org/1999/xlink" x="0px" y="0px"
	 width="24px" height="16px" viewBox="0 0 24 16" enable-background="new 0 0 24 16" xml:space="preserve">
<path fill-rule="evenodd" clip-rule="evenodd" fill="#FFFFFF" d="M0.313,8.757l6.396,6.393c0.417,0.417,1.094,0.417,1.511,0
	s0.417-1.093,0-1.51L3.644,9.066h19.289C23.522,9.066,24,8.589,24,8s-0.478-1.066-1.067-1.066H3.644L8.22,2.361
	c0.417-0.417,0.417-1.093,0-1.51c-0.417-0.417-1.094-0.417-1.511,0L0.313,7.243C0.104,7.452,0,7.727,0,8
	C0,8.274,0.104,8.548,0.313,8.757z"/>
</svg>
