<?xml version="1.0" encoding="utf-8"?>
<!-- Generator: Adobe Illustrator 18.1.0, SVG Export Plug-In . SVG Version: 6.00 Build 0)  -->
<!DOCTYPE svg PUBLIC "-//W3C//DTD SVG 1.1//EN" "http://www.w3.org/Graphics/SVG/1.1/DTD/svg11.dtd">
<svg version="1.1" id="Layer_1" xmlns="http://www.w3.org/2000/svg" xmlns:xlink="http://www.w3.org/1999/xlink" x="0px" y="0px"
	 width="143px" height="44px" viewBox="-128 4.2 143 44" enable-background="new -128 4.2 143 44" xml:space="preserve">
<path id="path-1" fill="#FFFFFF" d="M12.6,35c-1.7,2.2-4.1,3.3-7.1,3.3c-1.3,0-2.4-0.2-3.5-0.7c-1-0.5-1.9-1.2-2.6-2.1v11.9h-6.7
	V13.1h6l0.4,2.9c0.7-1.1,1.6-1.9,2.6-2.5c1-0.6,2.2-0.9,3.6-0.9c3.1,0,5.4,1.2,7.1,3.6c1.7,2.4,2.5,5.5,2.5,9.5v0.5
	C15.1,29.8,14.2,32.7,12.6,35z M8.4,25.6c0-2.3-0.4-4.2-1.2-5.7c-0.8-1.5-2-2.2-3.6-2.2c-1,0-1.9,0.2-2.6,0.6
	c-0.7,0.4-1.3,1-1.7,1.8V31c0.4,0.7,1,1.2,1.7,1.6c0.7,0.4,1.6,0.5,2.6,0.5c1.6,0,2.8-0.6,3.6-1.9c0.8-1.3,1.1-3,1.1-5.2V25.6z
	 M-21,38.3c-1.3,0-2.4-0.2-3.5-0.7c-1-0.5-1.9-1.2-2.6-2.1v11.9h-6.7V13.1h6l0.4,2.9c0.7-1.1,1.6-1.9,2.6-2.5c1-0.6,2.2-0.9,3.6-0.9
	c3.1,0,5.4,1.2,7.1,3.6c1.7,2.4,2.5,5.5,2.5,9.5v0.5c0,3.7-0.8,6.6-2.5,8.8C-15.6,37.2-18,38.3-21,38.3z M-18,25.6
	c0-2.3-0.4-4.2-1.2-5.7c-0.8-1.5-2-2.2-3.6-2.2c-1,0-1.9,0.2-2.6,0.6c-0.7,0.4-1.3,1-1.7,1.8V31c0.4,0.7,1,1.2,1.7,1.6
	c0.7,0.4,1.6,0.5,2.6,0.5c1.6,0,2.8-0.6,3.6-1.9c0.8-1.3,1.1-3,1.1-5.2V25.6z M-45.3,30.6H-57l-2.3,7.2H-66l11.5-33.3h6.8l11.4,33.3
	H-43L-45.3,30.6z M-51.1,12.3h-0.1l-4.1,13.1h8.4L-51.1,12.3z M-79.3,46c-1.2,1.2-3,1.8-5.4,1.8c-0.6,0-1.1,0-1.6-0.1
	c-0.5-0.1-1.1-0.2-1.8-0.4l0.8-4.9c0.2,0,0.4,0.1,0.6,0.1c0.2,0,0.4,0,0.6,0c1.1,0,1.9-0.3,2.5-0.8c0.6-0.5,1.1-1.2,1.4-2l0.8-1.9
	l-8.8-24.7h7.2l4.2,14.4l0.3,1.4h0.1l4.7-15.7h7.2l-10,28.5C-77.1,43.3-78.1,44.8-79.3,46z M-100,27.9l0.6-14.7l-0.1,0l-8.9,24.7
	h-4.5l-8.9-24.6l-0.1,0l0.6,14.6v9.9h-6.7V4.5h8.7l8.5,24.6h0.1l8.6-24.6h8.7v33.3h-6.7V27.9z"/>
</svg>
