<?xml version="1.0" encoding="utf-8"?>
<!-- Generator: Adobe Illustrator 18.0.0, SVG Export Plug-In . SVG Version: 6.00 Build 0)  -->
<!DOCTYPE svg PUBLIC "-//W3C//DTD SVG 1.1//EN" "http://www.w3.org/Graphics/SVG/1.1/DTD/svg11.dtd">
<svg version="1.1" id="Layer_1" xmlns:sketch="http://www.bohemiancoding.com/sketch/ns"
	 xmlns="http://www.w3.org/2000/svg" xmlns:xlink="http://www.w3.org/1999/xlink" x="0px" y="0px" width="32px" height="60px"
	 viewBox="0 0 32 60" enable-background="new 0 0 32 60" xml:space="preserve">
<title>icon-3</title>
<desc>Created with Sketch.</desc>
<path id="Shape" sketch:type="MSShapeGroup" fill="#505977" d="M27,28H5c-2.8,0-5-2.2-5-5V5c0-2.8,2.2-5,5-5h22c2.8,0,5,2.2,5,5v18
	C32,25.8,29.8,28,27,28L27,28z M5,26h13.8l-9.3-7.7l-6.9,6.4c0,0-0.1,0-0.1,0.1C3.1,25.5,4,26,5,26L5,26z M30,5c0-1.7-1.3-3-3-3H5
	C3.3,2,2,3.3,2,5v17.6l6.8-6.4c0.4-0.3,0.9-0.4,1.3,0l2.3,1.9l8-7.9c0.4-0.4,1-0.4,1.4,0L30,18V5L30,5z M30,20.7l-8.8-8.4L14,19.4
	l7.9,6.6H27c1.7,0,3-1.3,3-3V20.7L30,20.7z M11,14c-2.8,0-5-2.2-5-5s2.2-5,5-5s5,2.2,5,5S13.8,14,11,14L11,14z M11,6
	C9.3,6,8,7.3,8,9s1.3,3,3,3s3-1.3,3-3S12.7,6,11,6L11,6z"/>
<path id="Shape_1_" sketch:type="MSShapeGroup" fill="#FFFFFF" d="M27,60H5c-2.8,0-5-2.2-5-5V37c0-2.8,2.2-5,5-5h22c2.8,0,5,2.2,5,5
	v18C32,57.8,29.8,60,27,60L27,60z M5,58h13.8l-9.3-7.7l-6.9,6.4c0,0-0.1,0-0.1,0.1C3.1,57.5,4,58,5,58L5,58z M30,37c0-1.7-1.3-3-3-3
	H5c-1.7,0-3,1.3-3,3v17.6l6.8-6.4c0.4-0.3,0.9-0.4,1.3,0l2.3,1.9l8-7.9c0.4-0.4,1-0.4,1.4,0L30,50V37L30,37z M30,52.7l-8.8-8.4
	L14,51.4l7.9,6.6H27c1.7,0,3-1.3,3-3V52.7L30,52.7z M11,46c-2.8,0-5-2.2-5-5s2.2-5,5-5s5,2.2,5,5S13.8,46,11,46L11,46z M11,38
	c-1.7,0-3,1.3-3,3s1.3,3,3,3s3-1.3,3-3S12.7,38,11,38L11,38z"/>
</svg>
