<?xml version="1.0" encoding="utf-8"?>
<!-- Generator: Adobe Illustrator 18.0.0, SVG Export Plug-In . SVG Version: 6.00 Build 0)  -->
<!DOCTYPE svg PUBLIC "-//W3C//DTD SVG 1.1//EN" "http://www.w3.org/Graphics/SVG/1.1/DTD/svg11.dtd">
<svg version="1.1" id="Layer_1" xmlns:sketch="http://www.bohemiancoding.com/sketch/ns"
	 xmlns="http://www.w3.org/2000/svg" xmlns:xlink="http://www.w3.org/1999/xlink" x="0px" y="0px" width="32px" height="62px"
	 viewBox="0 0 32 62" enable-background="new 0 0 32 62" xml:space="preserve">
<title>icon-4</title>
<desc>Created with Sketch.</desc>
<path id="Shape" sketch:type="MSShapeGroup" fill="#505977" d="M27,30H5c-2.8,0-5-2.2-5-5V5c0-2.8,2.2-5,5-5h22c2.8,0,5,2.2,5,5v20
	C32,27.8,29.8,30,27,30L27,30z M30,5c0-1.7-1.3-3-3-3H5C3.3,2,2,3.3,2,5v20c0,1.7,1.3,3,3,3h22c1.7,0,3-1.3,3-3V5L30,5z M25,16h-1v7
	c0,0.6-0.4,1-1,1s-1-0.4-1-1v-7h-1c-0.6,0-1-0.4-1-1s0.4-1,1-1h1V7c0-0.6,0.4-1,1-1s1,0.4,1,1v7h1c0.6,0,1,0.4,1,1S25.6,16,25,16
	L25,16z M18,12h-1v11c0,0.6-0.4,1-1,1s-1-0.4-1-1V12h-1c-0.6,0-1-0.4-1-1s0.4-1,1-1h1V7c0-0.6,0.4-1,1-1s1,0.4,1,1v3h1
	c0.6,0,1,0.4,1,1S18.6,12,18,12L18,12z M11,19h-1v4c0,0.6-0.4,1-1,1s-1-0.4-1-1v-4H7c-0.6,0-1-0.4-1-1s0.4-1,1-1h1V7
	c0-0.6,0.4-1,1-1s1,0.4,1,1v10h1c0.6,0,1,0.4,1,1S11.6,19,11,19L11,19z"/>
<path id="Shape_1_" sketch:type="MSShapeGroup" fill="#FFFFFF" d="M27,62H5c-2.8,0-5-2.2-5-5V37c0-2.8,2.2-5,5-5h22c2.8,0,5,2.2,5,5
	v20C32,59.8,29.8,62,27,62L27,62z M30,37c0-1.7-1.3-3-3-3H5c-1.7,0-3,1.3-3,3v20c0,1.7,1.3,3,3,3h22c1.7,0,3-1.3,3-3V37L30,37z
	 M25,48h-1v7c0,0.6-0.4,1-1,1s-1-0.4-1-1v-7h-1c-0.6,0-1-0.4-1-1s0.4-1,1-1h1v-7c0-0.6,0.4-1,1-1s1,0.4,1,1v7h1c0.6,0,1,0.4,1,1
	S25.6,48,25,48L25,48z M18,44h-1v11c0,0.6-0.4,1-1,1s-1-0.4-1-1V44h-1c-0.6,0-1-0.4-1-1s0.4-1,1-1h1v-3c0-0.6,0.4-1,1-1s1,0.4,1,1v3
	h1c0.6,0,1,0.4,1,1S18.6,44,18,44L18,44z M11,51h-1v4c0,0.6-0.4,1-1,1s-1-0.4-1-1v-4H7c-0.6,0-1-0.4-1-1s0.4-1,1-1h1V39
	c0-0.6,0.4-1,1-1s1,0.4,1,1v10h1c0.6,0,1,0.4,1,1S11.6,51,11,51L11,51z"/>
</svg>
