<?xml version="1.0" encoding="utf-8"?>
<!-- Generator: Adobe Illustrator 18.0.0, SVG Export Plug-In . SVG Version: 6.00 Build 0)  -->
<!DOCTYPE svg PUBLIC "-//W3C//DTD SVG 1.1//EN" "http://www.w3.org/Graphics/SVG/1.1/DTD/svg11.dtd">
<svg version="1.1" id="Layer_1" xmlns:sketch="http://www.bohemiancoding.com/sketch/ns"
	 xmlns="http://www.w3.org/2000/svg" xmlns:xlink="http://www.w3.org/1999/xlink" x="0px" y="0px" width="32px" height="64px"
	 viewBox="0 0 32 64" enable-background="new 0 0 32 64" xml:space="preserve">
<title>icon-1</title>
<desc>Created with Sketch.</desc>
<path id="Shape" fill="#505977" d="M16,32C7.2,32,0,24.8,0,16S7.2,0,16,0s16,7.2,16,16S24.8,32,16,32L16,32z M16,2C8.3,2,2,8.3,2,16
	s6.3,14,14,14s14-6.3,14-14S23.7,2,16,2L16,2z M27,17c-0.6,0-1-0.4-1-1c0-5.5-4.5-10-10-10S6,10.5,6,16c0,0.6-0.4,1-1,1s-1-0.4-1-1
	C4,9.4,9.4,4,16,4s12,5.4,12,12C28,16.6,27.6,17,27,17L27,17z M15.7,22l2.7-12c0.1-0.5,0.7-0.9,1.2-0.7c0.5,0.1,0.9,0.7,0.8,1.2
	l-2.8,12.1C18.4,23,19,23.9,19,25c0,1.7-1.3,3-3,3s-3-1.3-3-3C13,23.5,14.2,22.2,15.7,22L15.7,22z M16,26c0.6,0,1-0.4,1-1
	s-0.4-1-1-1s-1,0.4-1,1S15.4,26,16,26L16,26z"/>
<path id="Shape_1_" fill="#FFFFFF" d="M16,64C7.2,64,0,56.8,0,48s7.2-16,16-16s16,7.2,16,16S24.8,64,16,64L16,64z M16,34
	C8.3,34,2,40.3,2,48s6.3,14,14,14s14-6.3,14-14S23.7,34,16,34L16,34z M27,49c-0.6,0-1-0.4-1-1c0-5.5-4.5-10-10-10S6,42.5,6,48
	c0,0.6-0.4,1-1,1s-1-0.4-1-1c0-6.6,5.4-12,12-12s12,5.4,12,12C28,48.6,27.6,49,27,49L27,49z M15.7,54l2.7-12
	c0.1-0.5,0.7-0.9,1.2-0.7c0.5,0.1,0.9,0.7,0.8,1.2l-2.8,12.1C18.4,55,19,55.9,19,57c0,1.7-1.3,3-3,3s-3-1.3-3-3
	C13,55.5,14.2,54.2,15.7,54L15.7,54z M16,58c0.6,0,1-0.4,1-1s-0.4-1-1-1s-1,0.4-1,1S15.4,58,16,58L16,58z"/>
</svg>
