<?xml version="1.0" encoding="utf-8"?>
<!-- Generator: Adobe Illustrator 16.0.0, SVG Export Plug-In . SVG Version: 6.00 Build 0)  -->
<!DOCTYPE svg PUBLIC "-//W3C//DTD SVG 1.1//EN" "http://www.w3.org/Graphics/SVG/1.1/DTD/svg11.dtd">
<svg version="1.1" id="Layer_1" xmlns="http://www.w3.org/2000/svg" xmlns:xlink="http://www.w3.org/1999/xlink" x="0px" y="0px"
	 width="1440px" height="500px" viewBox="0 0 1440 500" enable-background="new 0 0 1440 500" xml:space="preserve">
<g>
	<path fill="#E6E6E8" d="M46.215,238.708c-17.274-17.268-25.907-42.029-25.907-74.281c0-32.244,9.241-57.076,27.729-74.483
		c18.482-17.406,44.458-26.109,77.924-26.109c33.459,0,58.424,8.033,74.888,24.086c16.458,16.059,24.692,40.55,24.692,73.471
		c0,68.816-34.275,103.224-102.819,103.224C88.984,264.615,63.482,255.982,46.215,238.708z M147.819,180.822v-34.408
		c0-26.173-1.417-45.268-4.25-57.279c-2.834-12.005-9.38-18.014-19.633-18.014c-5.939,0-10.728,1.689-14.371,5.061
		c-3.643,3.377-6.274,8.975-7.894,16.799c-2.429,12.145-3.643,30.632-3.643,55.458v31.574c0,29.418,0.873,47.097,2.631,53.029
		c1.752,5.939,3.574,10.797,5.465,14.572c2.966,6.478,8.767,9.716,17.407,9.716c10.524,0,17.406-6.073,20.645-18.216
		C146.605,230.48,147.819,211.049,147.819,180.822z"/>
	<path fill="#E6E6E8" d="M372.079,79.217c-9.987,0-18.76,6.477-26.312,19.43c-7.559,12.954-11.334,28.337-11.334,46.147v108.487
		h28.741v7.287H236.875v-7.287h22.264V75.169h-22.264v-7.287h97.557v38.861c3.504-13.764,10.253-24.352,20.24-31.777
		c9.981-7.419,21.315-11.132,34.003-11.132c12.684,0,23.004,3.58,30.967,10.728c7.957,7.153,11.941,17.273,11.941,30.359
		c0,13.093-2.973,23.144-8.905,30.158c-5.938,7.021-15.047,10.524-27.324,10.524c-12.283,0-21.322-4.048-27.122-12.144
		c-5.806-8.096-6.546-19.291-2.227-33.599h14.573C387.322,86.098,384.488,79.217,372.079,79.217z"/>
	<path fill="#E6E6E8" d="M595.529,46.833l11.334-6.881c1.619-8.362-1.619-12.549-9.715-12.549c-11.606,0-17.406,8.905-17.406,26.717
		c0,7.021,0.94,15.116,2.833,24.288c20.505,13.763,30.765,31.372,30.765,52.826s-7.425,38.121-22.264,49.993
		c-14.845,11.878-34.952,17.811-60.315,17.811c-10.523,0-21.455-1.075-32.789-3.238c-11.878,7.559-17.811,13.226-17.811,17.002
		c0,3.782,8.634,5.667,25.907,5.667h41.29c61.258,0,91.89,21.999,91.89,65.983c0,23.744-9.247,42.564-27.729,56.469
		c-18.486,13.896-47.298,20.848-86.425,20.848c-66.659,0-99.983-14.438-99.983-43.312c0-15.654,10.386-26.451,31.169-32.385
		L480.565,297c-2.163,7.824-3.238,15.244-3.238,22.264c0,23.207,17.267,34.812,51.812,34.812c21.051,0,37.242-3.914,48.576-11.738
		c11.334-7.83,17.002-17.545,17.002-29.146c0-11.605-3.439-19.367-10.321-23.275c-6.883-3.916-20.582-5.869-41.088-5.869h-39.266
		c-21.859,0-37.514-3.646-46.957-10.93c-9.45-7.287-14.168-16.256-14.168-26.919c0-10.658,3.371-19.563,10.12-26.718
		c6.742-7.146,18.753-15.989,36.027-26.514c-31.311-8.906-46.957-29.412-46.957-61.53c0-20.24,7.286-36.564,21.857-48.98
		c14.573-12.41,36.434-18.621,65.578-18.621c17.539,0,32.517,3.378,44.933,10.12c-1.617-7.286-2.429-13.896-2.429-19.835
		c0-15.11,4.048-26.04,12.146-32.789c8.096-6.742,17.134-10.12,27.122-10.12c9.979,0,18.014,2.631,24.085,7.894
		c6.07,5.263,9.106,12.485,9.106,21.657c0,9.178-2.429,15.989-7.287,20.442c-4.855,4.452-10.727,6.679-17.607,6.679
		s-12.549-1.821-17.001-5.465S595.794,53.582,595.529,46.833z M509.711,122.531v21.859c0,18.083,1.55,30.359,4.655,36.837
		c3.099,6.477,7.824,9.715,14.168,9.715c6.338,0,10.93-3.169,13.763-9.513c2.833-6.338,4.25-19.361,4.25-39.063v-19.835
		c0-21.05-1.354-34.876-4.048-41.492c-2.701-6.609-7.223-9.918-13.561-9.918c-6.346,0-11.134,3.441-14.37,10.323
		C511.33,88.325,509.711,102.025,509.711,122.531z"/>
	<path fill="#E6E6E8" d="M731.54,165.44h11.738v-31.17c0-25.636-1.416-42.84-4.25-51.612c-2.834-8.767-8.3-13.156-16.396-13.156
		c-4.856,0-9.247,1.284-13.156,3.846c-3.916,2.568-5.868,6.072-5.868,10.525c0,4.452,0.81,8.975,2.429,13.561h10.12
		c2.156,5.667,3.236,12.485,3.236,20.442c0,7.963-3.377,14.845-10.119,20.645c-6.748,5.807-15.25,8.703-25.503,8.703
		c-23.213,0-34.812-11.195-34.812-33.598c0-33.194,28.197-49.791,84.604-49.791c32.111,0,54.309,5.465,66.592,16.395
		c12.275,10.93,18.418,30.967,18.418,60.113v82.175c0,14.035,3.906,21.049,11.738,21.049c9.17,0,14.572-13.896,16.191-41.694
		l6.072,0.404c-1.082,23.751-5.535,40.076-13.359,48.981c-7.83,8.905-20.645,13.358-38.455,13.358
		c-32.385,0-51.006-9.979-55.863-29.955c-3.51,10.259-8.771,17.812-15.787,22.669c-7.02,4.857-17.271,7.285-30.765,7.285
		c-39.94,0-59.91-16.324-59.91-48.98c0-19.159,7.622-32.312,22.871-39.469C676.55,169.019,699.965,165.44,731.54,165.44z
		 M717.574,242.352c1.479,4.048,4.312,6.072,8.501,6.072c4.18,0,8.096-3.441,11.737-10.323c3.646-6.881,5.466-16.395,5.466-28.538
		v-37.646h-2.834c-16.734,0-25.099,12.283-25.099,36.837v6.477C715.348,229.265,716.087,238.304,717.574,242.352z"/>
	<path fill="#E6E6E8" d="M857.431,67.882h97.559v37.242c4.312-12.41,10.93-22.397,19.836-29.955
		c8.903-7.553,22.396-11.335,40.479-11.335c41.828,0,62.744,22.536,62.744,67.602v121.845h22.67v7.287h-114.56v-7.287h16.596
		v-131.56c0-16.192-1.08-26.647-3.238-31.372c-2.16-4.719-6.07-7.084-11.736-7.084c-8.643,0-16.264,5.667-22.871,17.002
		c-6.617,11.334-9.918,25.098-9.918,41.289v111.725h17.406v7.287H857.431v-7.287h22.266V75.169h-22.266V67.882z"/>
	<path fill="#E6E6E8" d="M1104.358,67.882h99.176v185.399h22.668v7.287h-120.226v-7.287h22.265V75.169h-23.883V67.882z
		 M1165.483,39.952c-14.311,0-24.49-3.644-30.562-10.93s-9.108-16.325-9.108-27.122c0-10.79,3.304-19.696,9.918-26.717
		c6.608-7.015,16.659-10.524,30.157-10.524c13.492,0,23.744,3.175,30.768,9.513c7.014,6.344,10.521,15.383,10.521,27.121
		c0,11.739-3.377,21.12-10.119,28.134C1190.308,36.448,1179.784,39.952,1165.483,39.952z"/>
	<path fill="#E6E6E8" d="M1347.638,71.121c-11.879,0-20.379,6.478-25.502,19.431c-5.131,12.954-7.689,34.408-7.689,64.363v21.05
		c0,26.717,2.967,45.882,8.905,57.481c5.933,11.606,16.86,17.408,32.786,17.408c15.921,0,28.604-5.396,38.055-16.192
		c9.441-10.79,15.514-23.074,18.215-36.837l7.287,0.81c-5.13,23.213-14.572,39.942-28.337,50.195
		c-14.034,10.524-33.334,15.787-57.888,15.787c-31.309,0-55.323-8.431-72.055-25.299c-16.736-16.862-25.099-41.556-25.099-74.079
		c0-32.517,9.515-57.545,28.538-75.09c19.025-17.54,45.539-26.312,79.543-26.312c24.018,0,42.365,4.655,55.054,13.966
		c12.683,9.311,19.024,20.986,19.024,35.016c0,14.035-3.035,24.287-9.106,30.765c-6.071,6.477-14.438,9.715-25.099,9.715
		c-10.664,0-19.229-2.834-25.705-8.501c-6.476-5.667-9.715-14.028-9.715-25.098c0-4.857,0.67-9.715,2.023-14.572h13.357
		c1.887-5.396,2.832-10.253,2.832-14.573C1367.067,77.598,1360.591,71.121,1347.638,71.121z"/>
</g>
</svg>
