<?xml version="1.0" encoding="utf-8"?>
<!DOCTYPE svg PUBLIC "-//W3C//DTD SVG 1.1//EN" "http://www.w3.org/Graphics/SVG/1.1/DTD/svg11.dtd">
<svg version="1.1" id="Layer_1" xmlns="http://www.w3.org/2000/svg" xmlns:xlink="http://www.w3.org/1999/xlink" x="0px" y="0px"
	 width="300px" height="500px" viewBox="0 0 300 500" enable-background="new 0 0 300 500" xml:space="preserve">
<path id="svg_2" fill="#08A650" d="M181,466c0,0.13-0.001,0.26-0.003,0.39c-0.002,0.134-0.004,0.266-0.007,0.396
	C180.572,482.992,167.307,496,151,496h-2.125h2.75H150c-16.316,0-29.592-13.029-29.99-29.249c-0.003-0.13-0.006-0.261-0.007-0.393
	C120.001,466.239,120,466.119,120,466l0,0c0-0.141,0.001-0.281,0.003-0.422C120.228,449.206,133.573,436,150,436h1.625h-2.75H151
	c16.438,0,29.787,13.222,29.997,29.608C180.999,465.738,181,465.869,181,466L181,466z"/>
</svg>
